<svg width="28" height="28" viewBox="0 0 28 28" fill="none" xmlns="http://www.w3.org/2000/svg">
<g id="icon">
<path id="Vector" d="M2.86296 18.7372C3.19114 19.0653 3.63617 19.2496 4.10021 19.2496C4.56425 19.2496 5.00929 19.0653 5.33746 18.7372L14 10.0747L22.6625 18.7372C22.9925 19.056 23.4346 19.2324 23.8934 19.2284C24.3523 19.2244 24.7912 19.0404 25.1156 18.7159C25.4401 18.3914 25.6242 17.9525 25.6281 17.4937C25.6321 17.0348 25.4557 16.5928 25.137 16.2627L15.2372 6.36296C14.909 6.03489 14.464 5.85059 14 5.85059C13.5359 5.85059 13.0909 6.03489 12.7627 6.36296L2.86296 16.2627C2.53489 16.5909 2.35059 17.0359 2.35059 17.5C2.35059 17.964 2.53489 18.409 2.86296 18.7372Z" fill="#71717A"/>
</g>
</svg>
