<svg width="56" height="46" viewBox="0 0 56 46" fill="none" xmlns="http://www.w3.org/2000/svg">
<path d="M0 29.7299C0 23.3205 2.07407 17.5027 6.22222 12.2765C10.4668 6.95177 15.8691 2.8596 22.4289 0L25.0336 5.62058C22.7183 7.00108 20.3549 8.8746 17.9432 11.2412C15.6279 13.5091 13.6021 16.1715 11.8656 19.2283L18.2326 23.8135C20.4513 25.4898 21.9466 27.2647 22.7183 29.1383C23.4901 30.9132 23.876 32.7867 23.876 34.7588C23.876 38.1115 22.7666 40.8232 20.5478 42.8939C18.329 44.9646 15.7244 46 12.7339 46C10.6115 46 8.77864 45.6056 7.23514 44.8167C5.69165 43.9293 4.34109 42.9925 3.18346 42.0064C1.06115 38.358 0 34.2658 0 29.7299ZM30.9664 29.7299C30.9664 23.3205 33.0405 17.5027 37.1886 12.2765C41.4332 6.95177 46.8355 2.8596 53.3953 0L56 5.62058C53.6848 7.00108 51.3213 8.8746 48.9096 11.2412C46.5943 13.5091 44.5685 16.1715 42.832 19.2283L49.199 23.8135C51.4177 25.4898 52.913 27.2647 53.6848 29.1383C54.4565 30.9132 54.8424 32.7867 54.8424 34.7588C54.8424 38.1115 53.733 40.8232 51.5142 42.8939C49.2954 44.9646 46.6908 46 43.7003 46C41.5779 46 39.745 45.6056 38.2016 44.8167C36.6581 43.9293 35.3075 42.9925 34.1499 42.0064C32.0276 38.358 30.9664 34.2658 30.9664 29.7299Z" fill="#99D5E4"/>
</svg>
