<svg width="1920" height="2000" viewBox="0 0 1920 2000" fill="none" xmlns="http://www.w3.org/2000/svg">
<g clip-path="url(#clip0_930_763)">
<path d="M1920 0H0V2000H1920V0Z" fill="#E6F5F8"/>
<path d="M862.283 1099.69C940.246 1099.69 971.217 1030.04 1038.5 1030.04C1105.78 1030.04 1136.75 1099.69 1214.72 1099.69C1279.86 1099.69 1309.65 1029.6 1384.41 1029.6C1447.42 1029.6 1480.86 1099.69 1554.33 1099.69C1610.94 1099.69 1636.57 1068.01 1758.32 1068.01C1823.99 1068.01 1872.21 1069.82 1919 1076.24V643.5H48.75H0V1120L48.75 1099.69C123.731 1068.01 228.705 1068.01 318.682 1068.01C440.431 1068.01 466.063 1099.69 522.666 1099.69C596.143 1099.69 623.078 1029.6 686.089 1029.6C760.848 1029.6 797.137 1099.69 862.283 1099.69Z" fill="url(#paint0_linear_930_763)"/>
<g filter="url(#filter0_f_930_763)">
<path d="M1949.75 1095.69C1855.77 1069.57 1794.29 1064.01 1679.32 1064.01C1557.57 1064.01 1531.94 1095.69 1475.33 1095.69C1401.86 1095.69 1368.42 1025.6 1305.41 1025.6C1230.65 1025.6 1200.86 1095.69 1135.72 1095.69C1057.75 1095.69 1026.78 1026.04 959.5 1026.04C892.217 1026.04 861.246 1095.69 783.283 1095.69C718.137 1095.69 681.848 1025.6 607.089 1025.6C544.078 1025.6 517.143 1095.69 443.666 1095.69C387.063 1095.69 361.431 1064.01 239.682 1064.01C149.705 1064.01 44.731 1064.01 -30.25 1095.69" stroke="black" stroke-opacity="0.4" stroke-width="3"/>
</g>
<path d="M783.283 1100.09C861.246 1100.09 892.217 1030.43 959.5 1030.43C1026.78 1030.43 1057.75 1100.09 1135.72 1100.09C1200.86 1100.09 1230.65 1030 1305.41 1030C1368.42 1030 1401.86 1100.09 1475.33 1100.09C1531.94 1100.09 1557.57 1068.4 1679.32 1068.4C1745.69 1068.4 1794.24 1070.26 1841.5 1076.85V1357.9H-30.25H-79V1119.9L-30.25 1100.09C44.731 1068.4 149.705 1068.4 239.682 1068.4C361.431 1068.4 387.063 1100.09 443.666 1100.09C517.143 1100.09 544.078 1030 607.089 1030C681.848 1030 718.137 1100.09 783.283 1100.09Z" fill="url(#paint1_linear_930_763)"/>
<path d="M1841.5 1076.85V1357.9H1924.5C1926 1270.9 1928.1 1096.3 1924.5 1093.9C1920.9 1091.5 1867.67 1081.53 1841.5 1076.85Z" fill="url(#paint2_linear_930_763)"/>
<path d="M1950 1100C1856.02 1073.91 1794.54 1068.35 1679.57 1068.35C1557.82 1068.35 1532.19 1100 1475.58 1100C1402.11 1100 1368.67 1030 1305.66 1030C1230.9 1030 1201.11 1100 1135.97 1100C1058 1100 1027.03 1030.43 959.75 1030.43C892.467 1030.43 861.496 1100 783.533 1100C718.387 1100 682.098 1030 607.339 1030C544.328 1030 517.393 1100 443.916 1100C387.313 1100 361.681 1068.35 239.932 1068.35C149.955 1068.35 44.981 1068.35 -30 1100" stroke="#0088A9" stroke-width="3"/>
<path d="M783.283 1099.69C718.137 1099.69 681.848 1029.6 607.089 1029.6C544.078 1029.6 517.143 1099.69 443.666 1099.69C387.063 1099.69 361.431 1068.01 239.682 1068.01C149.705 1068.01 44.731 1068.01 -30.25 1099.69L-85.5 1122" stroke="#005B71" stroke-width="6" stroke-linecap="round"/>
<path d="M788.294 1100C788.294 1103.04 785.832 1105.5 782.795 1105.5C779.759 1105.5 777.297 1103.04 777.297 1100C777.297 1096.96 779.759 1094.5 782.795 1094.5C785.832 1094.5 788.294 1096.96 788.294 1100Z" fill="#005B71" stroke="#005B71"/>
<path d="M818.057 746.592C822.089 746.592 825.401 747.144 827.993 748.248C830.633 749.304 832.577 750.912 833.825 753.072C835.121 755.232 835.769 757.944 835.769 761.208C835.769 763.944 835.289 766.224 834.329 768.048C833.417 769.872 832.217 771.336 830.729 772.44C829.289 773.496 827.753 774.336 826.121 774.96L839.513 798H832.025L820.361 776.76H811.073V798H804.665V746.592H818.057ZM817.697 752.208H811.073V771.288H817.985C820.577 771.288 822.689 770.928 824.321 770.208C826.001 769.44 827.225 768.336 827.993 766.896C828.761 765.456 829.145 763.656 829.145 761.496C829.145 759.24 828.737 757.44 827.921 756.096C827.105 754.752 825.833 753.768 824.105 753.144C822.425 752.52 820.289 752.208 817.697 752.208ZM877.881 778.632C877.881 781.848 877.473 784.704 876.657 787.2C875.889 789.648 874.761 791.736 873.273 793.464C871.785 795.192 869.985 796.512 867.873 797.424C865.761 798.288 863.409 798.72 860.817 798.72C858.417 798.72 856.185 798.288 854.121 797.424C852.105 796.512 850.329 795.192 848.793 793.464C847.305 791.736 846.153 789.648 845.337 787.2C844.521 784.704 844.113 781.848 844.113 778.632C844.113 774.36 844.785 770.76 846.129 767.832C847.521 764.856 849.489 762.6 852.033 761.064C854.577 759.48 857.577 758.688 861.033 758.688C864.345 758.688 867.249 759.48 869.745 761.064C872.289 762.6 874.281 764.856 875.721 767.832C877.161 770.76 877.881 774.36 877.881 778.632ZM850.593 778.632C850.593 781.656 850.953 784.296 851.673 786.552C852.393 788.76 853.521 790.464 855.057 791.664C856.593 792.864 858.561 793.464 860.961 793.464C863.361 793.464 865.329 792.864 866.865 791.664C868.401 790.464 869.529 788.76 870.249 786.552C871.017 784.296 871.401 781.656 871.401 778.632C871.401 775.56 871.017 772.944 870.249 770.784C869.529 768.624 868.401 766.968 866.865 765.816C865.329 764.616 863.337 764.016 860.889 764.016C857.289 764.016 854.673 765.312 853.041 767.904C851.409 770.496 850.593 774.072 850.593 778.632ZM901.088 758.76C905.504 758.76 908.792 759.792 910.952 761.856C913.16 763.92 914.264 767.208 914.264 771.72V798H909.728L908.504 792.528H908.216C907.16 793.92 906.08 795.096 904.976 796.056C903.92 796.968 902.672 797.64 901.232 798.072C899.84 798.504 898.112 798.72 896.048 798.72C893.888 798.72 891.944 798.312 890.216 797.496C888.488 796.68 887.12 795.432 886.112 793.752C885.104 792.024 884.6 789.864 884.6 787.272C884.6 783.432 886.016 780.48 888.848 778.416C891.68 776.304 896.048 775.152 901.952 774.96L908.072 774.744V772.44C908.072 769.224 907.424 766.992 906.128 765.744C904.88 764.496 903.08 763.872 900.728 763.872C898.856 763.872 897.056 764.184 895.328 764.808C893.648 765.384 892.04 766.056 890.504 766.824L888.56 762.072C890.192 761.16 892.088 760.392 894.248 759.768C896.408 759.096 898.688 758.76 901.088 758.76ZM902.816 779.352C898.4 779.544 895.328 780.312 893.6 781.656C891.92 783 891.08 784.896 891.08 787.344C891.08 789.504 891.68 791.088 892.88 792.096C894.08 793.104 895.64 793.608 897.56 793.608C900.536 793.608 903.032 792.72 905.048 790.944C907.064 789.12 908.072 786.336 908.072 782.592V779.136L902.816 779.352ZM938.258 798.72C933.794 798.72 930.194 797.064 927.458 793.752C924.77 790.392 923.426 785.4 923.426 778.776C923.426 772.152 924.794 767.16 927.53 763.8C930.266 760.392 933.866 758.688 938.33 758.688C940.202 758.688 941.834 758.952 943.226 759.48C944.618 759.96 945.818 760.632 946.826 761.496C947.882 762.36 948.77 763.32 949.49 764.376H949.922C949.874 763.752 949.778 762.84 949.634 761.64C949.538 760.392 949.49 759.408 949.49 758.688V743.28H955.754V798H950.714L949.778 792.816H949.49C948.77 793.92 947.882 794.928 946.826 795.84C945.818 796.704 944.594 797.4 943.154 797.928C941.762 798.456 940.13 798.72 938.258 798.72ZM939.41 793.464C943.154 793.464 945.77 792.36 947.258 790.152C948.794 787.896 949.562 784.512 949.562 780V778.848C949.562 774.048 948.842 770.376 947.402 767.832C945.962 765.24 943.274 763.944 939.338 763.944C936.17 763.944 933.794 765.312 932.21 768.048C930.674 770.736 929.906 774.36 929.906 778.92C929.906 783.528 930.674 787.104 932.21 789.648C933.794 792.192 936.194 793.464 939.41 793.464ZM1007.24 758.688C1011.37 758.688 1014.44 759.816 1016.46 762.072C1018.47 764.28 1019.48 767.88 1019.48 772.872V798H1013.29V773.16C1013.29 770.136 1012.69 767.856 1011.49 766.32C1010.34 764.784 1008.51 764.016 1006.02 764.016C1002.56 764.016 1000.09 765.096 998.601 767.256C997.161 769.416 996.441 772.56 996.441 776.688V798H990.177V773.16C990.177 771.144 989.913 769.464 989.385 768.12C988.857 766.728 988.065 765.696 987.009 765.024C985.953 764.352 984.585 764.016 982.905 764.016C980.505 764.016 978.609 764.568 977.217 765.672C975.825 766.728 974.841 768.288 974.265 770.352C973.689 772.416 973.401 774.96 973.401 777.984V798H967.137V759.408H972.177L973.113 764.664H973.473C974.241 763.32 975.177 762.216 976.281 761.352C977.385 760.44 978.609 759.768 979.953 759.336C981.297 758.904 982.689 758.688 984.129 758.688C986.913 758.688 989.241 759.216 991.113 760.272C992.985 761.328 994.353 762.96 995.217 765.168H995.649C996.849 762.96 998.481 761.328 1000.55 760.272C1002.66 759.216 1004.89 758.688 1007.24 758.688ZM1044.53 758.76C1048.94 758.76 1052.23 759.792 1054.39 761.856C1056.6 763.92 1057.7 767.208 1057.7 771.72V798H1053.17L1051.94 792.528H1051.65C1050.6 793.92 1049.52 795.096 1048.41 796.056C1047.36 796.968 1046.11 797.64 1044.67 798.072C1043.28 798.504 1041.55 798.72 1039.49 798.72C1037.33 798.72 1035.38 798.312 1033.65 797.496C1031.93 796.68 1030.56 795.432 1029.55 793.752C1028.54 792.024 1028.04 789.864 1028.04 787.272C1028.04 783.432 1029.45 780.48 1032.29 778.416C1035.12 776.304 1039.49 775.152 1045.39 774.96L1051.51 774.744V772.44C1051.51 769.224 1050.86 766.992 1049.57 765.744C1048.32 764.496 1046.52 763.872 1044.17 763.872C1042.29 763.872 1040.49 764.184 1038.77 764.808C1037.09 765.384 1035.48 766.056 1033.94 766.824L1032 762.072C1033.63 761.16 1035.53 760.392 1037.69 759.768C1039.85 759.096 1042.13 758.76 1044.53 758.76ZM1046.25 779.352C1041.84 779.544 1038.77 780.312 1037.04 781.656C1035.36 783 1034.52 784.896 1034.52 787.344C1034.52 789.504 1035.12 791.088 1036.32 792.096C1037.52 793.104 1039.08 793.608 1041 793.608C1043.97 793.608 1046.47 792.72 1048.49 790.944C1050.5 789.12 1051.51 786.336 1051.51 782.592V779.136L1046.25 779.352ZM1086.38 758.688C1090.84 758.688 1094.42 760.344 1097.1 763.656C1099.84 766.968 1101.21 771.96 1101.21 778.632C1101.21 783 1100.58 786.696 1099.34 789.72C1098.09 792.696 1096.34 794.952 1094.08 796.488C1091.87 797.976 1089.28 798.72 1086.3 798.72C1084.43 798.72 1082.78 798.456 1081.34 797.928C1079.94 797.4 1078.74 796.728 1077.74 795.912C1076.73 795.048 1075.86 794.112 1075.14 793.104H1074.71C1074.81 793.92 1074.9 794.952 1075 796.2C1075.1 797.448 1075.14 798.528 1075.14 799.44V815.28H1068.88V759.408H1073.99L1074.86 764.664H1075.14C1075.86 763.56 1076.73 762.552 1077.74 761.64C1078.74 760.728 1079.94 760.008 1081.34 759.48C1082.78 758.952 1084.46 758.688 1086.38 758.688ZM1085.15 764.016C1082.75 764.016 1080.81 764.52 1079.32 765.528C1077.88 766.488 1076.82 767.952 1076.15 769.92C1075.48 771.888 1075.14 774.384 1075.14 777.408V778.632C1075.14 781.8 1075.43 784.488 1076.01 786.696C1076.63 788.904 1077.69 790.584 1079.18 791.736C1080.66 792.888 1082.7 793.464 1085.3 793.464C1087.46 793.464 1089.23 792.816 1090.62 791.52C1092.02 790.224 1093.05 788.472 1093.72 786.264C1094.39 784.008 1094.73 781.44 1094.73 778.56C1094.73 774.144 1093.94 770.616 1092.35 767.976C1090.82 765.336 1088.42 764.016 1085.15 764.016Z" fill="#01284E"/>
<g filter="url(#filter1_f_930_763)">
<circle cx="435" cy="1156" r="10.6129" stroke="#005B71" stroke-opacity="0.8" stroke-width="2"/>
</g>
<g filter="url(#filter2_f_930_763)">
<circle cx="434.613" cy="1155.61" r="16.4194" stroke="#005B71" stroke-opacity="0.6" stroke-width="2"/>
</g>
<g filter="url(#filter3_f_930_763)">
<circle cx="435" cy="1156" r="23" stroke="#005B71" stroke-opacity="0.4" stroke-width="2"/>
</g>
<path d="M436.542 1149.81L435.991 1155.09L441.276 1153.61L441.662 1156.14L436.597 1156.55L439.872 1160.9L437.505 1162.19L435.165 1157.38L433.046 1162.19L430.596 1160.9L433.817 1156.55L428.807 1156.14L429.192 1153.61L434.422 1155.09L433.844 1149.81H436.542Z" fill="#005B71"/>
<path d="M418.048 1218.53C418.048 1219.29 417.862 1219.95 417.49 1220.49C417.118 1221.03 416.584 1221.45 415.888 1221.75C415.192 1222.04 414.364 1222.18 413.404 1222.18C412.936 1222.18 412.486 1222.15 412.054 1222.09C411.622 1222.04 411.22 1221.97 410.848 1221.87C410.476 1221.78 410.146 1221.66 409.858 1221.51V1219.68C410.338 1219.89 410.902 1220.09 411.55 1220.27C412.198 1220.44 412.858 1220.52 413.53 1220.52C414.106 1220.52 414.586 1220.45 414.97 1220.29C415.354 1220.13 415.642 1219.92 415.834 1219.64C416.026 1219.37 416.122 1219.04 416.122 1218.67C416.122 1218.27 416.02 1217.94 415.816 1217.68C415.624 1217.4 415.318 1217.15 414.898 1216.92C414.49 1216.68 413.938 1216.43 413.242 1216.17C412.762 1215.99 412.324 1215.79 411.928 1215.57C411.544 1215.35 411.202 1215.08 410.902 1214.78C410.614 1214.48 410.392 1214.13 410.236 1213.74C410.08 1213.34 410.002 1212.88 410.002 1212.35C410.002 1211.64 410.176 1211.04 410.524 1210.53C410.884 1210.03 411.376 1209.65 412 1209.38C412.624 1209.11 413.35 1208.97 414.178 1208.97C414.874 1208.97 415.516 1209.04 416.104 1209.18C416.704 1209.32 417.274 1209.5 417.814 1209.74L417.202 1211.34C416.71 1211.14 416.212 1210.97 415.708 1210.84C415.204 1210.71 414.676 1210.64 414.124 1210.64C413.644 1210.64 413.242 1210.71 412.918 1210.86C412.594 1211 412.348 1211.2 412.18 1211.45C412.024 1211.7 411.946 1212 411.946 1212.33C411.946 1212.73 412.036 1213.06 412.216 1213.32C412.396 1213.59 412.684 1213.83 413.08 1214.06C413.476 1214.28 413.998 1214.52 414.646 1214.78C415.366 1215.06 415.978 1215.36 416.482 1215.68C416.998 1216.01 417.388 1216.4 417.652 1216.85C417.916 1217.3 418.048 1217.85 418.048 1218.53ZM424.884 1222H422.94V1210.82H419.088V1209.15H428.736V1210.82H424.884V1222ZM437.451 1222L436.083 1218.29H431.115L429.747 1222H427.731L432.609 1209.09H434.625L439.485 1222H437.451ZM434.247 1212.98C434.211 1212.85 434.145 1212.65 434.049 1212.39C433.965 1212.11 433.881 1211.84 433.797 1211.56C433.713 1211.27 433.647 1211.04 433.599 1210.86C433.539 1211.1 433.467 1211.36 433.383 1211.65C433.311 1211.93 433.239 1212.18 433.167 1212.42C433.095 1212.65 433.035 1212.84 432.987 1212.98L431.691 1216.6H435.543L434.247 1212.98ZM444.819 1209.15C445.923 1209.15 446.829 1209.29 447.537 1209.56C448.245 1209.84 448.773 1210.25 449.121 1210.8C449.469 1211.34 449.643 1212.03 449.643 1212.86C449.643 1213.52 449.517 1214.07 449.265 1214.53C449.025 1214.97 448.713 1215.34 448.329 1215.63C447.945 1215.9 447.543 1216.13 447.123 1216.29L450.723 1222H448.491L445.395 1216.8H443.163V1222H441.219V1209.15H444.819ZM444.693 1210.8H443.163V1215.18H444.783C445.443 1215.18 445.983 1215.09 446.403 1214.93C446.835 1214.76 447.147 1214.51 447.339 1214.17C447.543 1213.83 447.645 1213.42 447.645 1212.93C447.645 1212.41 447.537 1212 447.321 1211.7C447.117 1211.39 446.793 1211.16 446.349 1211.02C445.917 1210.88 445.365 1210.8 444.693 1210.8ZM456.929 1222H454.985V1210.82H451.133V1209.15H460.781V1210.82H456.929V1222Z" fill="#01284E"/>
<path d="M410.509 1248.84C410.509 1249.95 410.369 1250.95 410.089 1251.86C409.822 1252.75 409.409 1253.53 408.849 1254.18C408.302 1254.83 407.602 1255.33 406.749 1255.66L410.189 1259.4H406.789L404.129 1256.2C404.075 1256.2 404.015 1256.2 403.949 1256.2C403.895 1256.2 403.842 1256.2 403.789 1256.2C402.642 1256.2 401.642 1256.03 400.789 1255.68C399.949 1255.32 399.255 1254.82 398.709 1254.18C398.162 1253.53 397.749 1252.75 397.469 1251.84C397.202 1250.93 397.069 1249.93 397.069 1248.82C397.069 1247.34 397.309 1246.05 397.789 1244.96C398.282 1243.87 399.022 1243.02 400.009 1242.42C401.009 1241.81 402.275 1241.5 403.809 1241.5C405.315 1241.5 406.562 1241.81 407.549 1242.42C408.535 1243.02 409.275 1243.87 409.769 1244.98C410.262 1246.07 410.509 1247.36 410.509 1248.84ZM399.769 1248.84C399.769 1249.92 399.909 1250.85 400.189 1251.62C400.482 1252.39 400.922 1252.99 401.509 1253.4C402.109 1253.81 402.869 1254.02 403.789 1254.02C404.735 1254.02 405.502 1253.81 406.089 1253.4C406.675 1252.99 407.109 1252.39 407.389 1251.62C407.669 1250.85 407.809 1249.92 407.809 1248.84C407.809 1247.23 407.495 1245.96 406.869 1245.04C406.242 1244.12 405.222 1243.66 403.809 1243.66C402.875 1243.66 402.109 1243.87 401.509 1244.28C400.922 1244.69 400.482 1245.29 400.189 1246.06C399.909 1246.83 399.769 1247.76 399.769 1248.84ZM419.509 1256H416.989V1247.1C416.989 1246.81 416.989 1246.51 416.989 1246.2C417.003 1245.89 417.016 1245.59 417.029 1245.28C417.043 1244.96 417.056 1244.67 417.069 1244.4C416.936 1244.53 416.769 1244.69 416.569 1244.88C416.369 1245.05 416.163 1245.23 415.949 1245.42L414.349 1246.7L413.089 1245.14L417.409 1241.72H419.509V1256ZM438.97 1256H429.19V1254.14L432.83 1250.46C433.55 1249.73 434.137 1249.1 434.59 1248.58C435.057 1248.05 435.397 1247.55 435.61 1247.1C435.837 1246.65 435.95 1246.15 435.95 1245.62C435.95 1244.97 435.763 1244.48 435.39 1244.16C435.017 1243.83 434.523 1243.66 433.91 1243.66C433.31 1243.66 432.75 1243.79 432.23 1244.04C431.71 1244.28 431.17 1244.63 430.61 1245.08L429.23 1243.42C429.63 1243.07 430.057 1242.76 430.51 1242.48C430.963 1242.19 431.477 1241.95 432.05 1241.78C432.623 1241.61 433.29 1241.52 434.05 1241.52C434.97 1241.52 435.757 1241.69 436.41 1242.02C437.077 1242.34 437.59 1242.79 437.95 1243.36C438.31 1243.93 438.49 1244.6 438.49 1245.36C438.49 1245.95 438.403 1246.49 438.23 1247C438.057 1247.49 437.803 1247.98 437.47 1248.46C437.137 1248.94 436.73 1249.43 436.25 1249.92C435.77 1250.41 435.23 1250.95 434.63 1251.52L432.37 1253.7V1253.82H438.97V1256ZM450.375 1248.84C450.375 1250 450.289 1251.03 450.115 1251.94C449.942 1252.85 449.655 1253.62 449.255 1254.26C448.869 1254.89 448.362 1255.37 447.735 1255.7C447.122 1256.03 446.369 1256.2 445.475 1256.2C444.355 1256.2 443.435 1255.91 442.715 1255.32C441.995 1254.73 441.462 1253.89 441.115 1252.8C440.769 1251.69 440.595 1250.37 440.595 1248.84C440.595 1247.31 440.755 1245.99 441.075 1244.9C441.395 1243.81 441.909 1242.97 442.615 1242.38C443.335 1241.79 444.289 1241.5 445.475 1241.5C446.595 1241.5 447.515 1241.79 448.235 1242.38C448.955 1242.95 449.489 1243.79 449.835 1244.9C450.195 1245.99 450.375 1247.31 450.375 1248.84ZM443.135 1248.86C443.135 1250.02 443.209 1250.99 443.355 1251.78C443.502 1252.55 443.742 1253.14 444.075 1253.54C444.422 1253.93 444.889 1254.12 445.475 1254.12C446.062 1254.12 446.522 1253.93 446.855 1253.54C447.202 1253.15 447.449 1252.57 447.595 1251.78C447.755 1250.99 447.835 1250.02 447.835 1248.86C447.835 1247.69 447.755 1246.71 447.595 1245.94C447.449 1245.15 447.202 1244.57 446.855 1244.18C446.522 1243.78 446.062 1243.58 445.475 1243.58C444.889 1243.58 444.422 1243.78 444.075 1244.18C443.742 1244.57 443.502 1245.15 443.355 1245.92C443.209 1246.69 443.135 1247.67 443.135 1248.86ZM461.861 1256H452.081V1254.14L455.721 1250.46C456.441 1249.73 457.027 1249.1 457.481 1248.58C457.947 1248.05 458.287 1247.55 458.501 1247.1C458.727 1246.65 458.841 1246.15 458.841 1245.62C458.841 1244.97 458.654 1244.48 458.281 1244.16C457.907 1243.83 457.414 1243.66 456.801 1243.66C456.201 1243.66 455.641 1243.79 455.121 1244.04C454.601 1244.28 454.061 1244.63 453.501 1245.08L452.121 1243.42C452.521 1243.07 452.947 1242.76 453.401 1242.48C453.854 1242.19 454.367 1241.95 454.941 1241.78C455.514 1241.61 456.181 1241.52 456.941 1241.52C457.861 1241.52 458.647 1241.69 459.301 1242.02C459.967 1242.34 460.481 1242.79 460.841 1243.36C461.201 1243.93 461.381 1244.6 461.381 1245.36C461.381 1245.95 461.294 1246.49 461.121 1247C460.947 1247.49 460.694 1247.98 460.361 1248.46C460.027 1248.94 459.621 1249.43 459.141 1249.92C458.661 1250.41 458.121 1250.95 457.521 1251.52L455.261 1253.7V1253.82H461.861V1256ZM473.306 1256H463.526V1254.14L467.166 1250.46C467.886 1249.73 468.473 1249.1 468.926 1248.58C469.393 1248.05 469.733 1247.55 469.946 1247.1C470.173 1246.65 470.286 1246.15 470.286 1245.62C470.286 1244.97 470.099 1244.48 469.726 1244.16C469.353 1243.83 468.859 1243.66 468.246 1243.66C467.646 1243.66 467.086 1243.79 466.566 1244.04C466.046 1244.28 465.506 1244.63 464.946 1245.08L463.566 1243.42C463.966 1243.07 464.393 1242.76 464.846 1242.48C465.299 1242.19 465.813 1241.95 466.386 1241.78C466.959 1241.61 467.626 1241.52 468.386 1241.52C469.306 1241.52 470.093 1241.69 470.746 1242.02C471.413 1242.34 471.926 1242.79 472.286 1243.36C472.646 1243.93 472.826 1244.6 472.826 1245.36C472.826 1245.95 472.739 1246.49 472.566 1247C472.393 1247.49 472.139 1247.98 471.806 1248.46C471.473 1248.94 471.066 1249.43 470.586 1249.92C470.106 1250.41 469.566 1250.95 468.966 1251.52L466.706 1253.7V1253.82H473.306V1256Z" fill="#005B71"/>
<g filter="url(#filter4_f_930_763)">
<circle cx="785" cy="1156" r="10.6129" stroke="#005B71" stroke-opacity="0.8" stroke-width="2"/>
</g>
<g filter="url(#filter5_f_930_763)">
<circle cx="784.613" cy="1155.61" r="16.4194" stroke="#005B71" stroke-opacity="0.6" stroke-width="2"/>
</g>
<g filter="url(#filter6_f_930_763)">
<circle cx="785" cy="1156" r="23" stroke="#005B71" stroke-opacity="0.4" stroke-width="2"/>
</g>
<path d="M786.542 1149.81L785.991 1155.09L791.276 1153.61L791.662 1156.14L786.597 1156.55L789.872 1160.9L787.505 1162.19L785.165 1157.38L783.046 1162.19L780.596 1160.9L783.817 1156.55L778.807 1156.14L779.192 1153.61L784.422 1155.09L783.844 1149.81H786.542Z" fill="#005B71"/>
<path d="M738.106 1222L734.218 1211.07H734.146C734.158 1211.31 734.176 1211.64 734.2 1212.05C734.224 1212.45 734.242 1212.89 734.254 1213.36C734.266 1213.83 734.272 1214.29 734.272 1214.75V1222H732.508V1209.15H735.28L738.97 1219.46H739.042L742.84 1209.15H745.612V1222H743.722V1214.64C743.722 1214.22 743.728 1213.79 743.74 1213.34C743.764 1212.89 743.782 1212.46 743.794 1212.06C743.818 1211.67 743.836 1211.34 743.848 1211.09H743.776L739.78 1222H738.106ZM758.391 1209.15L753.855 1222H751.839L747.321 1209.15H749.319L752.073 1217.21C752.181 1217.5 752.283 1217.81 752.379 1218.15C752.475 1218.47 752.565 1218.8 752.649 1219.12C752.733 1219.44 752.799 1219.75 752.847 1220.04C752.907 1219.75 752.973 1219.44 753.045 1219.12C753.129 1218.8 753.219 1218.47 753.315 1218.13C753.423 1217.79 753.525 1217.48 753.621 1217.19L756.375 1209.15H758.391ZM763.706 1209.15C765.386 1209.15 766.61 1209.49 767.378 1210.17C768.146 1210.85 768.53 1211.79 768.53 1213C768.53 1213.54 768.44 1214.06 768.26 1214.55C768.092 1215.04 767.81 1215.48 767.414 1215.88C767.018 1216.26 766.49 1216.57 765.83 1216.8C765.182 1217.01 764.384 1217.12 763.436 1217.12H762.05V1222H760.106V1209.15H763.706ZM763.562 1210.79H762.05V1215.48H763.22C763.952 1215.48 764.564 1215.41 765.056 1215.25C765.548 1215.08 765.914 1214.82 766.154 1214.48C766.406 1214.12 766.532 1213.65 766.532 1213.07C766.532 1212.3 766.292 1211.73 765.812 1211.36C765.344 1210.98 764.594 1210.79 763.562 1210.79ZM779.565 1209.15C780.657 1209.15 781.569 1209.25 782.301 1209.45C783.045 1209.66 783.603 1210 783.975 1210.48C784.359 1210.95 784.551 1211.57 784.551 1212.35C784.551 1212.86 784.461 1213.31 784.281 1213.7C784.101 1214.09 783.837 1214.41 783.489 1214.67C783.153 1214.93 782.733 1215.09 782.229 1215.18V1215.27C782.745 1215.35 783.207 1215.51 783.615 1215.74C784.023 1215.95 784.347 1216.27 784.587 1216.69C784.827 1217.11 784.947 1217.66 784.947 1218.33C784.947 1219.11 784.761 1219.77 784.389 1220.33C784.029 1220.87 783.507 1221.28 782.823 1221.57C782.151 1221.86 781.347 1222 780.411 1222H775.803V1209.15H779.565ZM779.889 1214.51C780.897 1214.51 781.587 1214.35 781.959 1214.03C782.343 1213.7 782.535 1213.22 782.535 1212.59C782.535 1211.94 782.307 1211.48 781.851 1211.2C781.395 1210.92 780.669 1210.79 779.673 1210.79H777.747V1214.51H779.889ZM777.747 1216.1V1220.38H780.105C781.149 1220.38 781.875 1220.18 782.283 1219.77C782.691 1219.36 782.895 1218.82 782.895 1218.15C782.895 1217.74 782.805 1217.38 782.625 1217.07C782.445 1216.76 782.139 1216.52 781.707 1216.35C781.287 1216.18 780.711 1216.1 779.979 1216.1H777.747ZM794.851 1222H787.615V1209.15H794.851V1210.8H789.559V1214.48H794.527V1216.11H789.559V1220.33H794.851V1222ZM801.955 1222H800.011V1210.82H796.159V1209.15H805.807V1210.82H801.955V1222ZM814.522 1222L813.154 1218.29H808.186L806.818 1222H804.802L809.68 1209.09H811.696L816.556 1222H814.522ZM811.318 1212.98C811.282 1212.85 811.216 1212.65 811.12 1212.39C811.036 1212.11 810.952 1211.84 810.868 1211.56C810.784 1211.27 810.718 1211.04 810.67 1210.86C810.61 1211.1 810.538 1211.36 810.454 1211.65C810.382 1211.93 810.31 1212.18 810.238 1212.42C810.166 1212.65 810.106 1212.84 810.058 1212.98L808.762 1216.6H812.614L811.318 1212.98ZM826.763 1208.95C827.423 1208.95 827.993 1209.06 828.473 1209.29C828.965 1209.51 829.343 1209.82 829.607 1210.23C829.883 1210.64 830.021 1211.14 830.021 1211.74C830.021 1212.51 829.775 1213.16 829.283 1213.7C828.791 1214.24 828.179 1214.73 827.447 1215.16L830.633 1218.24C830.921 1217.85 831.161 1217.43 831.353 1216.96C831.545 1216.48 831.707 1215.97 831.839 1215.43H833.783C833.603 1216.17 833.357 1216.89 833.045 1217.59C832.745 1218.27 832.355 1218.89 831.875 1219.44L834.503 1222H832.019L830.615 1220.65C830.327 1220.88 830.033 1221.09 829.733 1221.28C829.433 1221.47 829.109 1221.63 828.761 1221.77C828.425 1221.89 828.059 1221.98 827.663 1222.05C827.267 1222.14 826.835 1222.18 826.367 1222.18C825.503 1222.18 824.753 1222.04 824.117 1221.77C823.481 1221.48 822.989 1221.07 822.641 1220.54C822.305 1220 822.137 1219.36 822.137 1218.62C822.137 1218 822.239 1217.48 822.443 1217.03C822.659 1216.59 822.965 1216.2 823.361 1215.86C823.769 1215.51 824.243 1215.18 824.783 1214.87C824.519 1214.57 824.273 1214.27 824.045 1213.95C823.829 1213.63 823.649 1213.29 823.505 1212.95C823.373 1212.6 823.307 1212.22 823.307 1211.81C823.307 1211.21 823.445 1210.7 823.721 1210.28C824.009 1209.85 824.411 1209.52 824.927 1209.29C825.455 1209.06 826.067 1208.95 826.763 1208.95ZM825.917 1216.04C825.545 1216.27 825.227 1216.5 824.963 1216.74C824.711 1216.97 824.507 1217.23 824.351 1217.52C824.207 1217.79 824.135 1218.12 824.135 1218.51C824.135 1219.12 824.345 1219.61 824.765 1219.98C825.197 1220.34 825.761 1220.52 826.457 1220.52C827.117 1220.52 827.687 1220.42 828.167 1220.22C828.659 1220.01 829.079 1219.76 829.427 1219.46L825.917 1216.04ZM826.709 1210.48C826.265 1210.48 825.893 1210.59 825.593 1210.82C825.293 1211.05 825.143 1211.39 825.143 1211.85C825.143 1212.24 825.245 1212.62 825.449 1212.96C825.653 1213.3 825.941 1213.67 826.313 1214.06C826.961 1213.69 827.435 1213.34 827.735 1213C828.035 1212.65 828.185 1212.26 828.185 1211.81C828.185 1211.4 828.047 1211.08 827.771 1210.84C827.495 1210.6 827.141 1210.48 826.709 1210.48ZM721.038 1244V1231.15H722.982V1242.33H728.472V1244H721.038ZM738.699 1244L737.331 1240.29H732.363L730.995 1244H728.979L733.857 1231.09H735.873L740.733 1244H738.699ZM735.495 1234.98C735.459 1234.85 735.393 1234.65 735.297 1234.39C735.213 1234.11 735.129 1233.84 735.045 1233.56C734.961 1233.27 734.895 1233.04 734.847 1232.86C734.787 1233.1 734.715 1233.36 734.631 1233.65C734.559 1233.93 734.487 1234.18 734.415 1234.42C734.343 1234.65 734.283 1234.84 734.235 1234.98L732.939 1238.6H736.791L735.495 1234.98ZM753.014 1244H750.656L744.158 1233.61H744.086C744.098 1233.85 744.11 1234.11 744.122 1234.39C744.146 1234.66 744.164 1234.96 744.176 1235.27C744.188 1235.57 744.2 1235.88 744.212 1236.21C744.224 1236.52 744.23 1236.84 744.23 1237.16V1244H742.466V1231.15H744.806L751.286 1241.48H751.34C751.328 1241.3 751.316 1241.08 751.304 1240.81C751.292 1240.54 751.28 1240.24 751.268 1239.93C751.268 1239.62 751.262 1239.3 751.25 1238.98C751.238 1238.65 751.226 1238.35 751.214 1238.06V1231.15H753.014V1244ZM766.844 1237.45C766.844 1238.89 766.574 1240.09 766.034 1241.07C765.494 1242.04 764.714 1242.77 763.694 1243.26C762.686 1243.75 761.468 1244 760.04 1244H756.44V1231.15H760.418C761.726 1231.15 762.86 1231.39 763.82 1231.87C764.78 1232.35 765.524 1233.06 766.052 1233.99C766.58 1234.92 766.844 1236.07 766.844 1237.45ZM764.81 1237.5C764.81 1236.42 764.636 1235.53 764.288 1234.84C763.94 1234.14 763.424 1233.63 762.74 1233.29C762.068 1232.95 761.252 1232.79 760.292 1232.79H758.384V1242.36H759.95C761.57 1242.36 762.782 1241.95 763.586 1241.14C764.402 1240.32 764.81 1239.11 764.81 1237.5ZM773.602 1244H768.616V1242.88L770.146 1242.43V1232.73L768.616 1232.26V1231.15H773.602V1232.26L772.09 1232.73V1242.43L773.602 1242.88V1244ZM786.553 1244H784.195L777.697 1233.61H777.625C777.637 1233.85 777.649 1234.11 777.661 1234.39C777.685 1234.66 777.703 1234.96 777.715 1235.27C777.727 1235.57 777.739 1235.88 777.751 1236.21C777.763 1236.52 777.769 1236.84 777.769 1237.16V1244H776.005V1231.15H778.345L784.825 1241.48H784.879C784.867 1241.3 784.855 1241.08 784.843 1240.81C784.831 1240.54 784.819 1240.24 784.807 1239.93C784.807 1239.62 784.801 1239.3 784.789 1238.98C784.777 1238.65 784.765 1238.35 784.753 1238.06V1231.15H786.553V1244ZM795.344 1237.09H799.988V1243.5C799.304 1243.72 798.602 1243.89 797.882 1244C797.174 1244.12 796.364 1244.18 795.452 1244.18C794.144 1244.18 793.034 1243.92 792.122 1243.39C791.222 1242.86 790.532 1242.1 790.052 1241.12C789.584 1240.14 789.35 1238.95 789.35 1237.57C789.35 1236.23 789.614 1235.07 790.142 1234.08C790.67 1233.1 791.426 1232.34 792.41 1231.8C793.406 1231.24 794.612 1230.97 796.028 1230.97C796.736 1230.97 797.414 1231.04 798.062 1231.18C798.71 1231.32 799.31 1231.5 799.862 1231.74L799.16 1233.36C798.716 1233.16 798.218 1232.99 797.666 1232.86C797.126 1232.71 796.556 1232.64 795.956 1232.64C795.008 1232.64 794.186 1232.85 793.49 1233.25C792.806 1233.65 792.278 1234.22 791.906 1234.96C791.546 1235.7 791.366 1236.57 791.366 1237.59C791.366 1238.55 791.516 1239.4 791.816 1240.15C792.116 1240.89 792.59 1241.47 793.238 1241.89C793.886 1242.31 794.732 1242.52 795.776 1242.52C796.124 1242.52 796.43 1242.51 796.694 1242.49C796.958 1242.45 797.198 1242.42 797.414 1242.38C797.642 1242.33 797.858 1242.29 798.062 1242.25V1238.76H795.344V1237.09ZM811.333 1231.15C813.013 1231.15 814.237 1231.49 815.005 1232.17C815.773 1232.85 816.157 1233.79 816.157 1235C816.157 1235.54 816.067 1236.06 815.887 1236.55C815.719 1237.04 815.437 1237.48 815.041 1237.88C814.645 1238.26 814.117 1238.57 813.457 1238.8C812.809 1239.01 812.011 1239.12 811.063 1239.12H809.677V1244H807.733V1231.15H811.333ZM811.189 1232.79H809.677V1237.48H810.847C811.579 1237.48 812.191 1237.41 812.683 1237.25C813.175 1237.08 813.541 1236.82 813.781 1236.48C814.033 1236.12 814.159 1235.65 814.159 1235.07C814.159 1234.3 813.919 1233.73 813.439 1233.36C812.971 1232.98 812.221 1232.79 811.189 1232.79ZM825.868 1244L824.5 1240.29H819.532L818.164 1244H816.148L821.026 1231.09H823.042L827.902 1244H825.868ZM822.664 1234.98C822.628 1234.85 822.562 1234.65 822.466 1234.39C822.382 1234.11 822.298 1233.84 822.214 1233.56C822.13 1233.27 822.064 1233.04 822.016 1232.86C821.956 1233.1 821.884 1233.36 821.8 1233.65C821.728 1233.93 821.656 1234.18 821.584 1234.42C821.512 1234.65 821.452 1234.84 821.404 1234.98L820.108 1238.6H823.96L822.664 1234.98ZM834.648 1237.09H839.292V1243.5C838.608 1243.72 837.906 1243.89 837.186 1244C836.478 1244.12 835.668 1244.18 834.756 1244.18C833.448 1244.18 832.338 1243.92 831.426 1243.39C830.526 1242.86 829.836 1242.1 829.356 1241.12C828.888 1240.14 828.654 1238.95 828.654 1237.57C828.654 1236.23 828.918 1235.07 829.446 1234.08C829.974 1233.1 830.73 1232.34 831.714 1231.8C832.71 1231.24 833.916 1230.97 835.332 1230.97C836.04 1230.97 836.718 1231.04 837.366 1231.18C838.014 1231.32 838.614 1231.5 839.166 1231.74L838.464 1233.36C838.02 1233.16 837.522 1232.99 836.97 1232.86C836.43 1232.71 835.86 1232.64 835.26 1232.64C834.312 1232.64 833.49 1232.85 832.794 1233.25C832.11 1233.65 831.582 1234.22 831.21 1234.96C830.85 1235.7 830.67 1236.57 830.67 1237.59C830.67 1238.55 830.82 1239.4 831.12 1240.15C831.42 1240.89 831.894 1241.47 832.542 1241.89C833.19 1242.31 834.036 1242.52 835.08 1242.52C835.428 1242.52 835.734 1242.51 835.998 1242.49C836.262 1242.45 836.502 1242.42 836.718 1242.38C836.946 1242.33 837.162 1242.29 837.366 1242.25V1238.76H834.648V1237.09ZM849.598 1244H842.362V1231.15H849.598V1232.8H844.306V1236.48H849.274V1238.11H844.306V1242.33H849.598V1244Z" fill="#01284E"/>
<path d="M760.509 1270.84C760.509 1271.95 760.369 1272.95 760.089 1273.86C759.822 1274.75 759.409 1275.53 758.849 1276.18C758.302 1276.83 757.602 1277.33 756.749 1277.66L760.189 1281.4H756.789L754.129 1278.2C754.075 1278.2 754.015 1278.2 753.949 1278.2C753.895 1278.2 753.842 1278.2 753.789 1278.2C752.642 1278.2 751.642 1278.03 750.789 1277.68C749.949 1277.32 749.255 1276.82 748.709 1276.18C748.162 1275.53 747.749 1274.75 747.469 1273.84C747.202 1272.93 747.069 1271.93 747.069 1270.82C747.069 1269.34 747.309 1268.05 747.789 1266.96C748.282 1265.87 749.022 1265.02 750.009 1264.42C751.009 1263.81 752.275 1263.5 753.809 1263.5C755.315 1263.5 756.562 1263.81 757.549 1264.42C758.535 1265.02 759.275 1265.87 759.769 1266.98C760.262 1268.07 760.509 1269.36 760.509 1270.84ZM749.769 1270.84C749.769 1271.92 749.909 1272.85 750.189 1273.62C750.482 1274.39 750.922 1274.99 751.509 1275.4C752.109 1275.81 752.869 1276.02 753.789 1276.02C754.735 1276.02 755.502 1275.81 756.089 1275.4C756.675 1274.99 757.109 1274.39 757.389 1273.62C757.669 1272.85 757.809 1271.92 757.809 1270.84C757.809 1269.23 757.495 1267.96 756.869 1267.04C756.242 1266.12 755.222 1265.66 753.809 1265.66C752.875 1265.66 752.109 1265.87 751.509 1266.28C750.922 1266.69 750.482 1267.29 750.189 1268.06C749.909 1268.83 749.769 1269.76 749.769 1270.84ZM771.769 1266.98C771.769 1267.62 771.636 1268.18 771.369 1268.66C771.116 1269.14 770.763 1269.53 770.309 1269.84C769.856 1270.13 769.329 1270.35 768.729 1270.48V1270.54C769.876 1270.67 770.743 1271.03 771.329 1271.6C771.916 1272.17 772.209 1272.93 772.209 1273.88C772.209 1274.71 772.009 1275.45 771.609 1276.1C771.209 1276.75 770.589 1277.27 769.749 1277.64C768.923 1278.01 767.856 1278.2 766.549 1278.2C765.776 1278.2 765.056 1278.13 764.389 1278C763.723 1277.88 763.096 1277.69 762.509 1277.42V1275.2C763.109 1275.51 763.749 1275.74 764.429 1275.9C765.109 1276.06 765.749 1276.14 766.349 1276.14C767.509 1276.14 768.329 1275.93 768.809 1275.52C769.289 1275.09 769.529 1274.51 769.529 1273.76C769.529 1273.28 769.409 1272.89 769.169 1272.58C768.929 1272.27 768.536 1272.05 767.989 1271.9C767.456 1271.74 766.756 1271.66 765.889 1271.66H764.689V1269.64H765.909C766.749 1269.64 767.409 1269.55 767.889 1269.36C768.383 1269.17 768.729 1268.91 768.929 1268.58C769.143 1268.25 769.249 1267.86 769.249 1267.42C769.249 1266.85 769.063 1266.4 768.689 1266.08C768.316 1265.76 767.756 1265.6 767.009 1265.6C766.529 1265.6 766.096 1265.65 765.709 1265.76C765.323 1265.87 764.969 1266.01 764.649 1266.18C764.329 1266.34 764.029 1266.51 763.749 1266.7L762.549 1264.96C762.909 1264.69 763.316 1264.45 763.769 1264.24C764.223 1264.01 764.729 1263.84 765.289 1263.72C765.849 1263.59 766.463 1263.52 767.129 1263.52C768.609 1263.52 769.749 1263.83 770.549 1264.46C771.363 1265.07 771.769 1265.91 771.769 1266.98ZM788.97 1278H779.19V1276.14L782.83 1272.46C783.55 1271.73 784.137 1271.1 784.59 1270.58C785.057 1270.05 785.397 1269.55 785.61 1269.1C785.837 1268.65 785.95 1268.15 785.95 1267.62C785.95 1266.97 785.763 1266.48 785.39 1266.16C785.017 1265.83 784.523 1265.66 783.91 1265.66C783.31 1265.66 782.75 1265.79 782.23 1266.04C781.71 1266.28 781.17 1266.63 780.61 1267.08L779.23 1265.42C779.63 1265.07 780.057 1264.76 780.51 1264.48C780.963 1264.19 781.477 1263.95 782.05 1263.78C782.623 1263.61 783.29 1263.52 784.05 1263.52C784.97 1263.52 785.757 1263.69 786.41 1264.02C787.077 1264.34 787.59 1264.79 787.95 1265.36C788.31 1265.93 788.49 1266.6 788.49 1267.36C788.49 1267.95 788.403 1268.49 788.23 1269C788.057 1269.49 787.803 1269.98 787.47 1270.46C787.137 1270.94 786.73 1271.43 786.25 1271.92C785.77 1272.41 785.23 1272.95 784.63 1273.52L782.37 1275.7V1275.82H788.97V1278ZM800.375 1270.84C800.375 1272 800.289 1273.03 800.115 1273.94C799.942 1274.85 799.655 1275.62 799.255 1276.26C798.869 1276.89 798.362 1277.37 797.735 1277.7C797.122 1278.03 796.369 1278.2 795.475 1278.2C794.355 1278.2 793.435 1277.91 792.715 1277.32C791.995 1276.73 791.462 1275.89 791.115 1274.8C790.769 1273.69 790.595 1272.37 790.595 1270.84C790.595 1269.31 790.755 1267.99 791.075 1266.9C791.395 1265.81 791.909 1264.97 792.615 1264.38C793.335 1263.79 794.289 1263.5 795.475 1263.5C796.595 1263.5 797.515 1263.79 798.235 1264.38C798.955 1264.95 799.489 1265.79 799.835 1266.9C800.195 1267.99 800.375 1269.31 800.375 1270.84ZM793.135 1270.86C793.135 1272.02 793.209 1272.99 793.355 1273.78C793.502 1274.55 793.742 1275.14 794.075 1275.54C794.422 1275.93 794.889 1276.12 795.475 1276.12C796.062 1276.12 796.522 1275.93 796.855 1275.54C797.202 1275.15 797.449 1274.57 797.595 1273.78C797.755 1272.99 797.835 1272.02 797.835 1270.86C797.835 1269.69 797.755 1268.71 797.595 1267.94C797.449 1267.15 797.202 1266.57 796.855 1266.18C796.522 1265.78 796.062 1265.58 795.475 1265.58C794.889 1265.58 794.422 1265.78 794.075 1266.18C793.742 1266.57 793.502 1267.15 793.355 1267.92C793.209 1268.69 793.135 1269.67 793.135 1270.86ZM811.861 1278H802.081V1276.14L805.721 1272.46C806.441 1271.73 807.027 1271.1 807.481 1270.58C807.947 1270.05 808.287 1269.55 808.501 1269.1C808.727 1268.65 808.841 1268.15 808.841 1267.62C808.841 1266.97 808.654 1266.48 808.281 1266.16C807.907 1265.83 807.414 1265.66 806.801 1265.66C806.201 1265.66 805.641 1265.79 805.121 1266.04C804.601 1266.28 804.061 1266.63 803.501 1267.08L802.121 1265.42C802.521 1265.07 802.947 1264.76 803.401 1264.48C803.854 1264.19 804.367 1263.95 804.941 1263.78C805.514 1263.61 806.181 1263.52 806.941 1263.52C807.861 1263.52 808.647 1263.69 809.301 1264.02C809.967 1264.34 810.481 1264.79 810.841 1265.36C811.201 1265.93 811.381 1266.6 811.381 1267.36C811.381 1267.95 811.294 1268.49 811.121 1269C810.947 1269.49 810.694 1269.98 810.361 1270.46C810.027 1270.94 809.621 1271.43 809.141 1271.92C808.661 1272.41 808.121 1272.95 807.521 1273.52L805.261 1275.7V1275.82H811.861V1278ZM822.746 1266.98C822.746 1267.62 822.613 1268.18 822.346 1268.66C822.093 1269.14 821.739 1269.53 821.286 1269.84C820.833 1270.13 820.306 1270.35 819.706 1270.48V1270.54C820.853 1270.67 821.719 1271.03 822.306 1271.6C822.893 1272.17 823.186 1272.93 823.186 1273.88C823.186 1274.71 822.986 1275.45 822.586 1276.1C822.186 1276.75 821.566 1277.27 820.726 1277.64C819.899 1278.01 818.833 1278.2 817.526 1278.2C816.753 1278.2 816.033 1278.13 815.366 1278C814.699 1277.88 814.073 1277.69 813.486 1277.42V1275.2C814.086 1275.51 814.726 1275.74 815.406 1275.9C816.086 1276.06 816.726 1276.14 817.326 1276.14C818.486 1276.14 819.306 1275.93 819.786 1275.52C820.266 1275.09 820.506 1274.51 820.506 1273.76C820.506 1273.28 820.386 1272.89 820.146 1272.58C819.906 1272.27 819.513 1272.05 818.966 1271.9C818.433 1271.74 817.733 1271.66 816.866 1271.66H815.666V1269.64H816.886C817.726 1269.64 818.386 1269.55 818.866 1269.36C819.359 1269.17 819.706 1268.91 819.906 1268.58C820.119 1268.25 820.226 1267.86 820.226 1267.42C820.226 1266.85 820.039 1266.4 819.666 1266.08C819.293 1265.76 818.733 1265.6 817.986 1265.6C817.506 1265.6 817.073 1265.65 816.686 1265.76C816.299 1265.87 815.946 1266.01 815.626 1266.18C815.306 1266.34 815.006 1266.51 814.726 1266.7L813.526 1264.96C813.886 1264.69 814.293 1264.45 814.746 1264.24C815.199 1264.01 815.706 1263.84 816.266 1263.72C816.826 1263.59 817.439 1263.52 818.106 1263.52C819.586 1263.52 820.726 1263.83 821.526 1264.46C822.339 1265.07 822.746 1265.91 822.746 1266.98Z" fill="#005B71"/>
<g filter="url(#filter7_f_930_763)">
<circle cx="1135" cy="1156" r="10.6129" stroke="#0088A9" stroke-opacity="0.8" stroke-width="2"/>
</g>
<g filter="url(#filter8_f_930_763)">
<circle cx="1134.61" cy="1155.61" r="16.4194" stroke="#0088A9" stroke-opacity="0.6" stroke-width="2"/>
</g>
<g filter="url(#filter9_f_930_763)">
<circle cx="1135" cy="1156" r="23" stroke="#0088A9" stroke-opacity="0.4" stroke-width="2"/>
</g>
<path d="M1136.54 1149.81L1135.99 1155.09L1141.28 1153.61L1141.66 1156.14L1136.6 1156.55L1139.87 1160.9L1137.51 1162.19L1135.17 1157.38L1133.05 1162.19L1130.6 1160.9L1133.82 1156.55L1128.81 1156.14L1129.19 1153.61L1134.42 1155.09L1133.84 1149.81H1136.54Z" fill="#0088A9"/>
<path d="M1087.19 1218.53C1087.19 1219.29 1087 1219.95 1086.63 1220.49C1086.26 1221.03 1085.73 1221.45 1085.03 1221.75C1084.33 1222.04 1083.51 1222.18 1082.55 1222.18C1082.08 1222.18 1081.63 1222.15 1081.2 1222.09C1080.76 1222.04 1080.36 1221.97 1079.99 1221.87C1079.62 1221.78 1079.29 1221.66 1079 1221.51V1219.68C1079.48 1219.89 1080.04 1220.09 1080.69 1220.27C1081.34 1220.44 1082 1220.52 1082.67 1220.52C1083.25 1220.52 1083.73 1220.45 1084.11 1220.29C1084.5 1220.13 1084.78 1219.92 1084.98 1219.64C1085.17 1219.37 1085.26 1219.04 1085.26 1218.67C1085.26 1218.27 1085.16 1217.94 1084.96 1217.68C1084.77 1217.4 1084.46 1217.15 1084.04 1216.92C1083.63 1216.68 1083.08 1216.43 1082.38 1216.17C1081.9 1215.99 1081.47 1215.79 1081.07 1215.57C1080.69 1215.35 1080.34 1215.08 1080.04 1214.78C1079.76 1214.48 1079.53 1214.13 1079.38 1213.74C1079.22 1213.34 1079.14 1212.88 1079.14 1212.35C1079.14 1211.64 1079.32 1211.04 1079.67 1210.53C1080.03 1210.03 1080.52 1209.65 1081.14 1209.38C1081.77 1209.11 1082.49 1208.97 1083.32 1208.97C1084.02 1208.97 1084.66 1209.04 1085.25 1209.18C1085.85 1209.32 1086.42 1209.5 1086.96 1209.74L1086.34 1211.34C1085.85 1211.14 1085.35 1210.97 1084.85 1210.84C1084.35 1210.71 1083.82 1210.64 1083.27 1210.64C1082.79 1210.64 1082.38 1210.71 1082.06 1210.86C1081.74 1211 1081.49 1211.2 1081.32 1211.45C1081.17 1211.7 1081.09 1212 1081.09 1212.33C1081.09 1212.73 1081.18 1213.06 1081.36 1213.32C1081.54 1213.59 1081.83 1213.83 1082.22 1214.06C1082.62 1214.28 1083.14 1214.52 1083.79 1214.78C1084.51 1215.06 1085.12 1215.36 1085.62 1215.68C1086.14 1216.01 1086.53 1216.4 1086.79 1216.85C1087.06 1217.3 1087.19 1217.85 1087.19 1218.53ZM1096.94 1222H1089.71V1209.15H1096.94V1210.8H1091.65V1214.48H1096.62V1216.11H1091.65V1220.33H1096.94V1222ZM1106.96 1222H1099.73V1209.15H1106.96V1210.8H1101.67V1214.48H1106.64V1216.11H1101.67V1220.33H1106.96V1222ZM1120.15 1215.45C1120.15 1216.89 1119.88 1218.09 1119.34 1219.07C1118.8 1220.04 1118.02 1220.77 1117 1221.26C1115.99 1221.75 1114.77 1222 1113.35 1222H1109.75V1209.15H1113.72C1115.03 1209.15 1116.17 1209.39 1117.13 1209.87C1118.09 1210.35 1118.83 1211.06 1119.36 1211.99C1119.89 1212.92 1120.15 1214.07 1120.15 1215.45ZM1118.12 1215.5C1118.12 1214.42 1117.94 1213.53 1117.59 1212.84C1117.25 1212.14 1116.73 1211.63 1116.05 1211.29C1115.37 1210.95 1114.56 1210.79 1113.6 1210.79H1111.69V1220.36H1113.26C1114.88 1220.36 1116.09 1219.95 1116.89 1219.14C1117.71 1218.32 1118.12 1217.11 1118.12 1215.5ZM1131.22 1209.15C1132.33 1209.15 1133.23 1209.29 1133.94 1209.56C1134.65 1209.84 1135.18 1210.25 1135.52 1210.8C1135.87 1211.34 1136.05 1212.03 1136.05 1212.86C1136.05 1213.52 1135.92 1214.07 1135.67 1214.53C1135.43 1214.97 1135.12 1215.34 1134.73 1215.63C1134.35 1215.9 1133.95 1216.13 1133.53 1216.29L1137.13 1222H1134.89L1131.8 1216.8H1129.57V1222H1127.62V1209.15H1131.22ZM1131.1 1210.8H1129.57V1215.18H1131.19C1131.85 1215.18 1132.39 1215.09 1132.81 1214.93C1133.24 1214.76 1133.55 1214.51 1133.74 1214.17C1133.95 1213.83 1134.05 1213.42 1134.05 1212.93C1134.05 1212.41 1133.94 1212 1133.72 1211.7C1133.52 1211.39 1133.2 1211.16 1132.75 1211.02C1132.32 1210.88 1131.77 1210.8 1131.1 1210.8ZM1150.35 1215.56C1150.35 1216.55 1150.23 1217.46 1149.97 1218.27C1149.73 1219.08 1149.36 1219.77 1148.86 1220.36C1148.37 1220.95 1147.74 1221.4 1146.99 1221.71C1146.24 1222.02 1145.37 1222.18 1144.38 1222.18C1143.36 1222.18 1142.47 1222.02 1141.71 1221.71C1140.97 1221.39 1140.34 1220.94 1139.84 1220.36C1139.35 1219.77 1138.98 1219.07 1138.74 1218.26C1138.5 1217.44 1138.38 1216.53 1138.38 1215.54C1138.38 1214.22 1138.6 1213.07 1139.03 1212.08C1139.46 1211.1 1140.12 1210.33 1141.01 1209.78C1141.91 1209.23 1143.04 1208.95 1144.39 1208.95C1145.71 1208.95 1146.81 1209.23 1147.69 1209.78C1148.58 1210.32 1149.24 1211.09 1149.69 1212.08C1150.13 1213.07 1150.35 1214.22 1150.35 1215.56ZM1140.43 1215.56C1140.43 1216.59 1140.57 1217.48 1140.85 1218.22C1141.12 1218.95 1141.56 1219.52 1142.14 1219.93C1142.73 1220.33 1143.48 1220.52 1144.38 1220.52C1145.29 1220.52 1146.03 1220.33 1146.61 1219.93C1147.18 1219.52 1147.61 1218.95 1147.89 1218.22C1148.16 1217.48 1148.3 1216.59 1148.3 1215.56C1148.3 1214.01 1147.99 1212.8 1147.36 1211.94C1146.75 1211.06 1145.76 1210.62 1144.39 1210.62C1143.48 1210.62 1142.73 1210.82 1142.14 1211.22C1141.56 1211.61 1141.12 1212.18 1140.85 1212.91C1140.57 1213.64 1140.43 1214.52 1140.43 1215.56ZM1163.12 1217.46C1163.12 1218.35 1162.93 1219.16 1162.56 1219.88C1162.2 1220.58 1161.64 1221.15 1160.89 1221.57C1160.13 1221.98 1159.18 1222.18 1158.02 1222.18C1156.39 1222.18 1155.15 1221.75 1154.3 1220.88C1153.46 1220.01 1153.04 1218.86 1153.04 1217.43V1209.15H1154.98V1217.34C1154.98 1218.39 1155.24 1219.19 1155.76 1219.73C1156.27 1220.26 1157.06 1220.52 1158.11 1220.52C1158.83 1220.52 1159.42 1220.39 1159.88 1220.13C1160.33 1219.86 1160.66 1219.5 1160.87 1219.03C1161.08 1218.55 1161.19 1217.98 1161.19 1217.32V1209.15H1163.12V1217.46ZM1176.98 1222H1174.62L1168.13 1211.61H1168.05C1168.07 1211.85 1168.08 1212.11 1168.09 1212.39C1168.11 1212.66 1168.13 1212.96 1168.14 1213.27C1168.16 1213.57 1168.17 1213.88 1168.18 1214.21C1168.19 1214.52 1168.2 1214.84 1168.2 1215.16V1222H1166.43V1209.15H1168.77L1175.25 1219.48H1175.31C1175.3 1219.3 1175.28 1219.08 1175.27 1218.81C1175.26 1218.54 1175.25 1218.24 1175.24 1217.93C1175.24 1217.62 1175.23 1217.3 1175.22 1216.98C1175.21 1216.65 1175.19 1216.35 1175.18 1216.06V1209.15H1176.98V1222ZM1190.81 1215.45C1190.81 1216.89 1190.54 1218.09 1190 1219.07C1189.46 1220.04 1188.68 1220.77 1187.66 1221.26C1186.66 1221.75 1185.44 1222 1184.01 1222H1180.41V1209.15H1184.39C1185.7 1209.15 1186.83 1209.39 1187.79 1209.87C1188.75 1210.35 1189.49 1211.06 1190.02 1211.99C1190.55 1212.92 1190.81 1214.07 1190.81 1215.45ZM1188.78 1215.5C1188.78 1214.42 1188.61 1213.53 1188.26 1212.84C1187.91 1212.14 1187.39 1211.63 1186.71 1211.29C1186.04 1210.95 1185.22 1210.79 1184.26 1210.79H1182.35V1220.36H1183.92C1185.54 1220.36 1186.75 1219.95 1187.56 1219.14C1188.37 1218.32 1188.78 1217.11 1188.78 1215.5Z" fill="#01284E"/>
<g filter="url(#filter10_f_930_763)">
<circle cx="1485" cy="1156" r="10.6129" stroke="#0088A9" stroke-opacity="0.8" stroke-width="2"/>
</g>
<g filter="url(#filter11_f_930_763)">
<circle cx="1484.61" cy="1155.61" r="16.4194" stroke="#0088A9" stroke-opacity="0.6" stroke-width="2"/>
</g>
<g filter="url(#filter12_f_930_763)">
<circle cx="1485" cy="1156" r="23" stroke="#0088A9" stroke-opacity="0.4" stroke-width="2"/>
</g>
<path d="M1486.54 1149.81L1485.99 1155.09L1491.28 1153.61L1491.66 1156.14L1486.6 1156.55L1489.87 1160.9L1487.51 1162.19L1485.17 1157.38L1483.05 1162.19L1480.6 1160.9L1483.82 1156.55L1478.81 1156.14L1479.19 1153.61L1484.42 1155.09L1483.84 1149.81H1486.54Z" fill="#0088A9"/>
<path d="M1471.09 1222H1469.2V1213.47C1469.2 1213.17 1469.2 1212.89 1469.2 1212.64C1469.22 1212.38 1469.23 1212.12 1469.24 1211.88C1469.25 1211.63 1469.26 1211.39 1469.28 1211.16C1469.12 1211.32 1468.96 1211.47 1468.79 1211.61C1468.62 1211.76 1468.43 1211.93 1468.21 1212.12L1466.81 1213.25L1465.84 1212.03L1469.51 1209.15H1471.09V1222ZM1484.19 1215.56C1484.19 1216.6 1484.1 1217.53 1483.93 1218.35C1483.78 1219.16 1483.53 1219.86 1483.18 1220.43C1482.84 1221 1482.39 1221.43 1481.83 1221.73C1481.28 1222.03 1480.61 1222.18 1479.83 1222.18C1478.85 1222.18 1478.04 1221.92 1477.4 1221.39C1476.76 1220.86 1476.29 1220.1 1475.98 1219.12C1475.67 1218.12 1475.51 1216.94 1475.51 1215.56C1475.51 1214.16 1475.65 1212.98 1475.92 1211.99C1476.21 1211.01 1476.67 1210.26 1477.31 1209.74C1477.95 1209.21 1478.79 1208.95 1479.83 1208.95C1480.81 1208.95 1481.62 1209.21 1482.26 1209.74C1482.91 1210.26 1483.39 1211.01 1483.7 1211.99C1484.02 1212.98 1484.19 1214.16 1484.19 1215.56ZM1477.42 1215.56C1477.42 1216.67 1477.5 1217.6 1477.65 1218.35C1477.81 1219.09 1478.06 1219.65 1478.41 1220.02C1478.77 1220.39 1479.24 1220.58 1479.83 1220.58C1480.42 1220.58 1480.89 1220.4 1481.23 1220.04C1481.59 1219.67 1481.85 1219.11 1482.01 1218.36C1482.18 1217.61 1482.26 1216.67 1482.26 1215.56C1482.26 1214.44 1482.18 1213.52 1482.01 1212.78C1481.85 1212.04 1481.59 1211.48 1481.23 1211.11C1480.89 1210.74 1480.42 1210.55 1479.83 1210.55C1479.24 1210.55 1478.77 1210.74 1478.41 1211.11C1478.06 1211.48 1477.81 1212.04 1477.65 1212.78C1477.5 1213.52 1477.42 1214.44 1477.42 1215.56ZM1494.49 1215.56C1494.49 1216.6 1494.4 1217.53 1494.23 1218.35C1494.08 1219.16 1493.83 1219.86 1493.48 1220.43C1493.14 1221 1492.69 1221.43 1492.13 1221.73C1491.58 1222.03 1490.91 1222.18 1490.13 1222.18C1489.15 1222.18 1488.34 1221.92 1487.7 1221.39C1487.06 1220.86 1486.59 1220.1 1486.28 1219.12C1485.97 1218.12 1485.81 1216.94 1485.81 1215.56C1485.81 1214.16 1485.95 1212.98 1486.22 1211.99C1486.51 1211.01 1486.97 1210.26 1487.61 1209.74C1488.25 1209.21 1489.09 1208.95 1490.13 1208.95C1491.11 1208.95 1491.92 1209.21 1492.56 1209.74C1493.21 1210.26 1493.69 1211.01 1494 1211.99C1494.32 1212.98 1494.49 1214.16 1494.49 1215.56ZM1487.72 1215.56C1487.72 1216.67 1487.8 1217.6 1487.95 1218.35C1488.11 1219.09 1488.36 1219.65 1488.71 1220.02C1489.07 1220.39 1489.54 1220.58 1490.13 1220.58C1490.72 1220.58 1491.19 1220.4 1491.53 1220.04C1491.89 1219.67 1492.15 1219.11 1492.31 1218.36C1492.48 1217.61 1492.56 1216.67 1492.56 1215.56C1492.56 1214.44 1492.48 1213.52 1492.31 1212.78C1492.15 1212.04 1491.89 1211.48 1491.53 1211.11C1491.19 1210.74 1490.72 1210.55 1490.13 1210.55C1489.54 1210.55 1489.07 1210.74 1488.71 1211.11C1488.36 1211.48 1488.11 1212.04 1487.95 1212.78C1487.8 1213.52 1487.72 1214.44 1487.72 1215.56ZM1504.79 1215.56C1504.79 1216.6 1504.7 1217.53 1504.53 1218.35C1504.38 1219.16 1504.13 1219.86 1503.78 1220.43C1503.44 1221 1502.99 1221.43 1502.43 1221.73C1501.88 1222.03 1501.21 1222.18 1500.43 1222.18C1499.45 1222.18 1498.64 1221.92 1498 1221.39C1497.36 1220.86 1496.89 1220.1 1496.58 1219.12C1496.27 1218.12 1496.11 1216.94 1496.11 1215.56C1496.11 1214.16 1496.25 1212.98 1496.52 1211.99C1496.81 1211.01 1497.27 1210.26 1497.91 1209.74C1498.55 1209.21 1499.39 1208.95 1500.43 1208.95C1501.41 1208.95 1502.22 1209.21 1502.86 1209.74C1503.51 1210.26 1503.99 1211.01 1504.3 1211.99C1504.62 1212.98 1504.79 1214.16 1504.79 1215.56ZM1498.02 1215.56C1498.02 1216.67 1498.1 1217.6 1498.25 1218.35C1498.41 1219.09 1498.66 1219.65 1499.01 1220.02C1499.37 1220.39 1499.84 1220.58 1500.43 1220.58C1501.02 1220.58 1501.49 1220.4 1501.83 1220.04C1502.19 1219.67 1502.45 1219.11 1502.61 1218.36C1502.78 1217.61 1502.86 1216.67 1502.86 1215.56C1502.86 1214.44 1502.78 1213.52 1502.61 1212.78C1502.45 1212.04 1502.19 1211.48 1501.83 1211.11C1501.49 1210.74 1501.02 1210.55 1500.43 1210.55C1499.84 1210.55 1499.37 1210.74 1499.01 1211.11C1498.66 1211.48 1498.41 1212.04 1498.25 1212.78C1498.1 1213.52 1498.02 1214.44 1498.02 1215.56ZM1439.64 1231.15C1440.74 1231.15 1441.65 1231.25 1442.38 1231.45C1443.12 1231.66 1443.68 1232 1444.05 1232.48C1444.44 1232.95 1444.63 1233.57 1444.63 1234.35C1444.63 1234.86 1444.54 1235.31 1444.36 1235.7C1444.18 1236.09 1443.92 1236.41 1443.57 1236.67C1443.23 1236.93 1442.81 1237.09 1442.31 1237.18V1237.27C1442.82 1237.35 1443.29 1237.51 1443.69 1237.74C1444.1 1237.95 1444.43 1238.27 1444.67 1238.69C1444.91 1239.11 1445.03 1239.66 1445.03 1240.33C1445.03 1241.11 1444.84 1241.77 1444.47 1242.33C1444.11 1242.87 1443.59 1243.28 1442.9 1243.57C1442.23 1243.86 1441.43 1244 1440.49 1244H1435.88V1231.15H1439.64ZM1439.97 1236.51C1440.98 1236.51 1441.67 1236.35 1442.04 1236.03C1442.42 1235.7 1442.61 1235.22 1442.61 1234.59C1442.61 1233.94 1442.39 1233.48 1441.93 1233.2C1441.47 1232.92 1440.75 1232.79 1439.75 1232.79H1437.83V1236.51H1439.97ZM1437.83 1238.1V1242.38H1440.18C1441.23 1242.38 1441.95 1242.18 1442.36 1241.77C1442.77 1241.36 1442.97 1240.82 1442.97 1240.15C1442.97 1239.74 1442.88 1239.38 1442.7 1239.07C1442.52 1238.76 1442.22 1238.52 1441.79 1238.35C1441.37 1238.18 1440.79 1238.1 1440.06 1238.1H1437.83ZM1454.93 1244H1447.7V1231.15H1454.93V1232.8H1449.64V1236.48H1454.61V1238.11H1449.64V1242.33H1454.93V1244ZM1462.03 1244H1460.09V1232.82H1456.24V1231.15H1465.89V1232.82H1462.03V1244ZM1474.6 1244L1473.23 1240.29H1468.27L1466.9 1244H1464.88L1469.76 1231.09H1471.78L1476.64 1244H1474.6ZM1471.4 1234.98C1471.36 1234.85 1471.3 1234.65 1471.2 1234.39C1471.12 1234.11 1471.03 1233.84 1470.95 1233.56C1470.86 1233.27 1470.8 1233.04 1470.75 1232.86C1470.69 1233.1 1470.62 1233.36 1470.53 1233.65C1470.46 1233.93 1470.39 1234.18 1470.32 1234.42C1470.25 1234.65 1470.19 1234.84 1470.14 1234.98L1468.84 1238.6H1472.69L1471.4 1234.98ZM1493.02 1239.46C1493.02 1240.35 1492.83 1241.16 1492.46 1241.88C1492.1 1242.58 1491.54 1243.15 1490.78 1243.57C1490.03 1243.98 1489.07 1244.18 1487.92 1244.18C1486.29 1244.18 1485.05 1243.75 1484.2 1242.88C1483.36 1242.01 1482.94 1240.86 1482.94 1239.43V1231.15H1484.88V1239.34C1484.88 1240.39 1485.14 1241.19 1485.65 1241.73C1486.17 1242.26 1486.96 1242.52 1488.01 1242.52C1488.73 1242.52 1489.32 1242.39 1489.78 1242.13C1490.23 1241.86 1490.56 1241.5 1490.77 1241.03C1490.98 1240.55 1491.09 1239.98 1491.09 1239.32V1231.15H1493.02V1239.46ZM1503.71 1240.53C1503.71 1241.29 1503.53 1241.95 1503.16 1242.49C1502.78 1243.03 1502.25 1243.45 1501.55 1243.75C1500.86 1244.04 1500.03 1244.18 1499.07 1244.18C1498.6 1244.18 1498.15 1244.15 1497.72 1244.09C1497.29 1244.04 1496.89 1243.97 1496.51 1243.87C1496.14 1243.78 1495.81 1243.66 1495.52 1243.51V1241.68C1496 1241.89 1496.57 1242.09 1497.22 1242.27C1497.86 1242.44 1498.52 1242.52 1499.2 1242.52C1499.77 1242.52 1500.25 1242.45 1500.64 1242.29C1501.02 1242.13 1501.31 1241.92 1501.5 1241.64C1501.69 1241.37 1501.79 1241.04 1501.79 1240.67C1501.79 1240.27 1501.69 1239.94 1501.48 1239.68C1501.29 1239.4 1500.98 1239.15 1500.56 1238.92C1500.16 1238.68 1499.6 1238.43 1498.91 1238.17C1498.43 1237.99 1497.99 1237.79 1497.59 1237.57C1497.21 1237.35 1496.87 1237.08 1496.57 1236.78C1496.28 1236.48 1496.06 1236.13 1495.9 1235.74C1495.75 1235.34 1495.67 1234.88 1495.67 1234.35C1495.67 1233.64 1495.84 1233.04 1496.19 1232.53C1496.55 1232.03 1497.04 1231.65 1497.67 1231.38C1498.29 1231.11 1499.02 1230.97 1499.84 1230.97C1500.54 1230.97 1501.18 1231.04 1501.77 1231.18C1502.37 1231.32 1502.94 1231.5 1503.48 1231.74L1502.87 1233.34C1502.38 1233.14 1501.88 1232.97 1501.37 1232.84C1500.87 1232.71 1500.34 1232.64 1499.79 1232.64C1499.31 1232.64 1498.91 1232.71 1498.58 1232.86C1498.26 1233 1498.01 1233.2 1497.85 1233.45C1497.69 1233.7 1497.61 1234 1497.61 1234.33C1497.61 1234.73 1497.7 1235.06 1497.88 1235.32C1498.06 1235.59 1498.35 1235.83 1498.75 1236.06C1499.14 1236.28 1499.66 1236.52 1500.31 1236.78C1501.03 1237.06 1501.64 1237.36 1502.15 1237.68C1502.66 1238.01 1503.05 1238.4 1503.32 1238.85C1503.58 1239.3 1503.71 1239.85 1503.71 1240.53ZM1513.47 1244H1506.23V1231.15H1513.47V1232.8H1508.17V1236.48H1513.14V1238.11H1508.17V1242.33H1513.47V1244ZM1519.85 1231.15C1520.95 1231.15 1521.86 1231.29 1522.57 1231.56C1523.28 1231.84 1523.8 1232.25 1524.15 1232.8C1524.5 1233.34 1524.67 1234.03 1524.67 1234.86C1524.67 1235.52 1524.55 1236.07 1524.3 1236.53C1524.06 1236.97 1523.74 1237.34 1523.36 1237.63C1522.98 1237.9 1522.57 1238.13 1522.15 1238.29L1525.75 1244H1523.52L1520.43 1238.8H1518.19V1244H1516.25V1231.15H1519.85ZM1519.72 1232.8H1518.19V1237.18H1519.81C1520.47 1237.18 1521.01 1237.09 1521.43 1236.93C1521.87 1236.76 1522.18 1236.51 1522.37 1236.17C1522.57 1235.83 1522.68 1235.42 1522.68 1234.93C1522.68 1234.41 1522.57 1234 1522.35 1233.7C1522.15 1233.39 1521.82 1233.16 1521.38 1233.02C1520.95 1232.88 1520.4 1232.8 1519.72 1232.8ZM1535.02 1240.53C1535.02 1241.29 1534.83 1241.95 1534.46 1242.49C1534.09 1243.03 1533.56 1243.45 1532.86 1243.75C1532.16 1244.04 1531.34 1244.18 1530.38 1244.18C1529.91 1244.18 1529.46 1244.15 1529.03 1244.09C1528.59 1244.04 1528.19 1243.97 1527.82 1243.87C1527.45 1243.78 1527.12 1243.66 1526.83 1243.51V1241.68C1527.31 1241.89 1527.87 1242.09 1528.52 1242.27C1529.17 1242.44 1529.83 1242.52 1530.5 1242.52C1531.08 1242.52 1531.56 1242.45 1531.94 1242.29C1532.33 1242.13 1532.61 1241.92 1532.81 1241.64C1533 1241.37 1533.09 1241.04 1533.09 1240.67C1533.09 1240.27 1532.99 1239.94 1532.79 1239.68C1532.6 1239.4 1532.29 1239.15 1531.87 1238.92C1531.46 1238.68 1530.91 1238.43 1530.21 1238.17C1529.73 1237.99 1529.3 1237.79 1528.9 1237.57C1528.52 1237.35 1528.17 1237.08 1527.87 1236.78C1527.59 1236.48 1527.36 1236.13 1527.21 1235.74C1527.05 1235.34 1526.97 1234.88 1526.97 1234.35C1526.97 1233.64 1527.15 1233.04 1527.5 1232.53C1527.86 1232.03 1528.35 1231.65 1528.97 1231.38C1529.6 1231.11 1530.32 1230.97 1531.15 1230.97C1531.85 1230.97 1532.49 1231.04 1533.08 1231.18C1533.68 1231.32 1534.25 1231.5 1534.79 1231.74L1534.17 1233.34C1533.68 1233.14 1533.18 1232.97 1532.68 1232.84C1532.18 1232.71 1531.65 1232.64 1531.1 1232.64C1530.62 1232.64 1530.21 1232.71 1529.89 1232.86C1529.57 1233 1529.32 1233.2 1529.15 1233.45C1529 1233.7 1528.92 1234 1528.92 1234.33C1528.92 1234.73 1529.01 1235.06 1529.19 1235.32C1529.37 1235.59 1529.66 1235.83 1530.05 1236.06C1530.45 1236.28 1530.97 1236.52 1531.62 1236.78C1532.34 1237.06 1532.95 1237.36 1533.45 1237.68C1533.97 1238.01 1534.36 1238.4 1534.62 1238.85C1534.89 1239.3 1535.02 1239.85 1535.02 1240.53Z" fill="#01284E"/>
<path d="M585.509 874.84C585.509 875.947 585.369 876.953 585.089 877.86C584.822 878.753 584.409 879.527 583.849 880.18C583.302 880.833 582.602 881.327 581.749 881.66L585.189 885.4H581.789L579.129 882.2C579.075 882.2 579.015 882.2 578.949 882.2C578.895 882.2 578.842 882.2 578.789 882.2C577.642 882.2 576.642 882.027 575.789 881.68C574.949 881.32 574.255 880.82 573.709 880.18C573.162 879.527 572.749 878.747 572.469 877.84C572.202 876.933 572.069 875.927 572.069 874.82C572.069 873.34 572.309 872.053 572.789 870.96C573.282 869.867 574.022 869.02 575.009 868.42C576.009 867.807 577.275 867.5 578.809 867.5C580.315 867.5 581.562 867.807 582.549 868.42C583.535 869.02 584.275 869.873 584.769 870.98C585.262 872.073 585.509 873.36 585.509 874.84ZM574.769 874.84C574.769 875.92 574.909 876.847 575.189 877.62C575.482 878.393 575.922 878.987 576.509 879.4C577.109 879.813 577.869 880.02 578.789 880.02C579.735 880.02 580.502 879.813 581.089 879.4C581.675 878.987 582.109 878.393 582.389 877.62C582.669 876.847 582.809 875.92 582.809 874.84C582.809 873.227 582.495 871.96 581.869 871.04C581.242 870.12 580.222 869.66 578.809 869.66C577.875 869.66 577.109 869.867 576.509 870.28C575.922 870.693 575.482 871.287 575.189 872.06C574.909 872.833 574.769 873.76 574.769 874.84ZM596.769 870.98C596.769 871.62 596.636 872.18 596.369 872.66C596.116 873.14 595.763 873.533 595.309 873.84C594.856 874.133 594.329 874.347 593.729 874.48V874.54C594.876 874.673 595.743 875.027 596.329 875.6C596.916 876.173 597.209 876.933 597.209 877.88C597.209 878.707 597.009 879.447 596.609 880.1C596.209 880.753 595.589 881.267 594.749 881.64C593.923 882.013 592.856 882.2 591.549 882.2C590.776 882.2 590.056 882.133 589.389 882C588.723 881.88 588.096 881.687 587.509 881.42V879.2C588.109 879.507 588.749 879.74 589.429 879.9C590.109 880.06 590.749 880.14 591.349 880.14C592.509 880.14 593.329 879.933 593.809 879.52C594.289 879.093 594.529 878.507 594.529 877.76C594.529 877.28 594.409 876.887 594.169 876.58C593.929 876.273 593.536 876.047 592.989 875.9C592.456 875.74 591.756 875.66 590.889 875.66H589.689V873.64H590.909C591.749 873.64 592.409 873.547 592.889 873.36C593.383 873.173 593.729 872.913 593.929 872.58C594.143 872.247 594.249 871.86 594.249 871.42C594.249 870.847 594.063 870.4 593.689 870.08C593.316 869.76 592.756 869.6 592.009 869.6C591.529 869.6 591.096 869.653 590.709 869.76C590.323 869.867 589.969 870.007 589.649 870.18C589.329 870.34 589.029 870.513 588.749 870.7L587.549 868.96C587.909 868.693 588.316 868.453 588.769 868.24C589.223 868.013 589.729 867.84 590.289 867.72C590.849 867.587 591.463 867.52 592.129 867.52C593.609 867.52 594.749 867.833 595.549 868.46C596.363 869.073 596.769 869.913 596.769 870.98ZM613.97 882H604.19V880.14L607.83 876.46C608.55 875.727 609.137 875.1 609.59 874.58C610.057 874.047 610.397 873.553 610.61 873.1C610.837 872.647 610.95 872.153 610.95 871.62C610.95 870.967 610.763 870.48 610.39 870.16C610.017 869.827 609.523 869.66 608.91 869.66C608.31 869.66 607.75 869.787 607.23 870.04C606.71 870.28 606.17 870.627 605.61 871.08L604.23 869.42C604.63 869.073 605.057 868.76 605.51 868.48C605.963 868.187 606.477 867.953 607.05 867.78C607.623 867.607 608.29 867.52 609.05 867.52C609.97 867.52 610.757 867.687 611.41 868.02C612.077 868.34 612.59 868.787 612.95 869.36C613.31 869.933 613.49 870.6 613.49 871.36C613.49 871.947 613.403 872.493 613.23 873C613.057 873.493 612.803 873.98 612.47 874.46C612.137 874.94 611.73 875.427 611.25 875.92C610.77 876.413 610.23 876.947 609.63 877.52L607.37 879.7V879.82H613.97V882ZM625.375 874.84C625.375 876 625.289 877.033 625.115 877.94C624.942 878.847 624.655 879.62 624.255 880.26C623.869 880.887 623.362 881.367 622.735 881.7C622.122 882.033 621.369 882.2 620.475 882.2C619.355 882.2 618.435 881.907 617.715 881.32C616.995 880.733 616.462 879.893 616.115 878.8C615.769 877.693 615.595 876.373 615.595 874.84C615.595 873.307 615.755 871.993 616.075 870.9C616.395 869.807 616.909 868.967 617.615 868.38C618.335 867.793 619.289 867.5 620.475 867.5C621.595 867.5 622.515 867.793 623.235 868.38C623.955 868.953 624.489 869.793 624.835 870.9C625.195 871.993 625.375 873.307 625.375 874.84ZM618.135 874.86C618.135 876.02 618.209 876.993 618.355 877.78C618.502 878.553 618.742 879.14 619.075 879.54C619.422 879.927 619.889 880.12 620.475 880.12C621.062 880.12 621.522 879.927 621.855 879.54C622.202 879.153 622.449 878.567 622.595 877.78C622.755 876.993 622.835 876.02 622.835 874.86C622.835 873.687 622.755 872.713 622.595 871.94C622.449 871.153 622.202 870.567 621.855 870.18C621.522 869.78 621.062 869.58 620.475 869.58C619.889 869.58 619.422 869.78 619.075 870.18C618.742 870.567 618.502 871.147 618.355 871.92C618.209 872.693 618.135 873.673 618.135 874.86ZM636.861 882H627.081V880.14L630.721 876.46C631.441 875.727 632.027 875.1 632.481 874.58C632.947 874.047 633.287 873.553 633.501 873.1C633.727 872.647 633.841 872.153 633.841 871.62C633.841 870.967 633.654 870.48 633.281 870.16C632.907 869.827 632.414 869.66 631.801 869.66C631.201 869.66 630.641 869.787 630.121 870.04C629.601 870.28 629.061 870.627 628.501 871.08L627.121 869.42C627.521 869.073 627.947 868.76 628.401 868.48C628.854 868.187 629.367 867.953 629.941 867.78C630.514 867.607 631.181 867.52 631.941 867.52C632.861 867.52 633.647 867.687 634.301 868.02C634.967 868.34 635.481 868.787 635.841 869.36C636.201 869.933 636.381 870.6 636.381 871.36C636.381 871.947 636.294 872.493 636.121 873C635.947 873.493 635.694 873.98 635.361 874.46C635.027 874.94 634.621 875.427 634.141 875.92C633.661 876.413 633.121 876.947 632.521 877.52L630.261 879.7V879.82H636.861V882ZM648.306 882H638.526V880.14L642.166 876.46C642.886 875.727 643.473 875.1 643.926 874.58C644.393 874.047 644.733 873.553 644.946 873.1C645.173 872.647 645.286 872.153 645.286 871.62C645.286 870.967 645.099 870.48 644.726 870.16C644.353 869.827 643.859 869.66 643.246 869.66C642.646 869.66 642.086 869.787 641.566 870.04C641.046 870.28 640.506 870.627 639.946 871.08L638.566 869.42C638.966 869.073 639.393 868.76 639.846 868.48C640.299 868.187 640.813 867.953 641.386 867.78C641.959 867.607 642.626 867.52 643.386 867.52C644.306 867.52 645.093 867.687 645.746 868.02C646.413 868.34 646.926 868.787 647.286 869.36C647.646 869.933 647.826 870.6 647.826 871.36C647.826 871.947 647.739 872.493 647.566 873C647.393 873.493 647.139 873.98 646.806 874.46C646.473 874.94 646.066 875.427 645.586 875.92C645.106 876.413 644.566 876.947 643.966 877.52L641.706 879.7V879.82H648.306V882Z" fill="#005B71"/>
<path d="M566.815 914L562.927 903.074H562.855C562.867 903.314 562.885 903.638 562.909 904.046C562.933 904.454 562.951 904.892 562.963 905.36C562.975 905.828 562.981 906.29 562.981 906.746V914H561.217V901.148H563.989L567.679 911.462H567.751L571.549 901.148H574.321V914H572.431V906.638C572.431 906.218 572.437 905.786 572.449 905.342C572.473 904.886 572.491 904.46 572.503 904.064C572.527 903.668 572.545 903.344 572.557 903.092H572.485L568.489 914H566.815ZM587.1 901.148L582.564 914H580.548L576.03 901.148H578.028L580.782 909.212C580.89 909.5 580.992 909.812 581.088 910.148C581.184 910.472 581.274 910.796 581.358 911.12C581.442 911.444 581.508 911.75 581.556 912.038C581.616 911.75 581.682 911.444 581.754 911.12C581.838 910.796 581.928 910.466 582.024 910.13C582.132 909.794 582.234 909.482 582.33 909.194L585.084 901.148H587.1ZM592.414 901.148C594.094 901.148 595.318 901.49 596.086 902.174C596.854 902.846 597.238 903.788 597.238 905C597.238 905.54 597.148 906.056 596.968 906.548C596.8 907.04 596.518 907.484 596.122 907.88C595.726 908.264 595.198 908.57 594.538 908.798C593.89 909.014 593.092 909.122 592.144 909.122H590.758V914H588.814V901.148H592.414ZM592.27 902.786H590.758V907.484H591.928C592.66 907.484 593.272 907.406 593.764 907.25C594.256 907.082 594.622 906.824 594.862 906.476C595.114 906.116 595.24 905.648 595.24 905.072C595.24 904.304 595 903.734 594.52 903.362C594.052 902.978 593.302 902.786 592.27 902.786ZM612.522 914L611.154 910.292H606.186L604.818 914H602.802L607.68 901.094H609.696L614.556 914H612.522ZM609.318 904.982C609.282 904.85 609.216 904.652 609.12 904.388C609.036 904.112 608.952 903.836 608.868 903.56C608.784 903.272 608.718 903.038 608.67 902.858C608.61 903.098 608.538 903.362 608.454 903.65C608.382 903.926 608.31 904.184 608.238 904.424C608.166 904.652 608.106 904.838 608.058 904.982L606.762 908.6H610.614L609.318 904.982ZM616.289 914V901.148H618.233V912.326H623.723V914H616.289ZM629.539 901.148C631.219 901.148 632.443 901.49 633.211 902.174C633.979 902.846 634.363 903.788 634.363 905C634.363 905.54 634.273 906.056 634.093 906.548C633.925 907.04 633.643 907.484 633.247 907.88C632.851 908.264 632.323 908.57 631.663 908.798C631.015 909.014 630.217 909.122 629.269 909.122H627.883V914H625.939V901.148H629.539ZM629.395 902.786H627.883V907.484H629.053C629.785 907.484 630.397 907.406 630.889 907.25C631.381 907.082 631.747 906.824 631.987 906.476C632.239 906.116 632.365 905.648 632.365 905.072C632.365 904.304 632.125 903.734 631.645 903.362C631.177 902.978 630.427 902.786 629.395 902.786ZM646.987 914H645.043V908.132H638.905V914H636.961V901.148H638.905V906.476H645.043V901.148H646.987V914ZM658.436 914L657.068 910.292H652.1L650.732 914H648.716L653.594 901.094H655.61L660.47 914H658.436ZM655.232 904.982C655.196 904.85 655.13 904.652 655.034 904.388C654.95 904.112 654.866 903.836 654.782 903.56C654.698 903.272 654.632 903.038 654.584 902.858C654.524 903.098 654.452 903.362 654.368 903.65C654.296 903.926 654.224 904.184 654.152 904.424C654.08 904.652 654.02 904.838 653.972 904.982L652.676 908.6H656.528L655.232 904.982Z" fill="#01284E"/>
<g filter="url(#filter13_f_930_763)">
<circle cx="610" cy="966" r="10.6129" stroke="#005B71" stroke-opacity="0.8" stroke-width="2"/>
</g>
<g filter="url(#filter14_f_930_763)">
<circle cx="609.613" cy="965.613" r="16.4194" stroke="#005B71" stroke-opacity="0.6" stroke-width="2"/>
</g>
<g filter="url(#filter15_f_930_763)">
<circle cx="610" cy="966" r="23" stroke="#005B71" stroke-opacity="0.4" stroke-width="2"/>
</g>
<path d="M611.542 959.807L610.991 965.092L616.276 963.605L616.662 966.138L611.597 966.551L614.872 970.9L612.505 972.194L610.165 967.377L608.046 972.194L605.596 970.9L608.817 966.551L603.807 966.138L604.192 963.605L609.422 965.092L608.844 959.807H611.542Z" fill="#005B71"/>
<path d="M904.982 879.148C906.086 879.148 906.992 879.286 907.7 879.562C908.408 879.838 908.936 880.252 909.284 880.804C909.632 881.344 909.806 882.028 909.806 882.856C909.806 883.516 909.68 884.074 909.428 884.53C909.188 884.974 908.876 885.34 908.492 885.628C908.108 885.904 907.706 886.126 907.286 886.294L910.886 892H908.654L905.558 886.798H903.326V892H901.382V879.148H904.982ZM904.856 880.804H903.326V885.178H904.946C905.606 885.178 906.146 885.094 906.566 884.926C906.998 884.758 907.31 884.506 907.502 884.17C907.706 883.834 907.808 883.42 907.808 882.928C907.808 882.412 907.7 882.004 907.484 881.704C907.28 881.392 906.956 881.164 906.512 881.02C906.08 880.876 905.528 880.804 904.856 880.804ZM920.009 892H912.773V879.148H920.009V880.804H914.717V884.476H919.685V886.114H914.717V890.326H920.009V892ZM930.172 888.526C930.172 889.294 929.986 889.948 929.614 890.488C929.242 891.028 928.708 891.448 928.012 891.748C927.316 892.036 926.488 892.18 925.528 892.18C925.06 892.18 924.61 892.15 924.178 892.09C923.746 892.042 923.344 891.97 922.972 891.874C922.6 891.778 922.27 891.658 921.982 891.514V889.678C922.462 889.894 923.026 890.092 923.674 890.272C924.322 890.44 924.982 890.524 925.654 890.524C926.23 890.524 926.71 890.446 927.094 890.29C927.478 890.134 927.766 889.918 927.958 889.642C928.15 889.366 928.246 889.042 928.246 888.67C928.246 888.274 928.144 887.944 927.94 887.68C927.748 887.404 927.442 887.152 927.022 886.924C926.614 886.684 926.062 886.432 925.366 886.168C924.886 885.988 924.448 885.79 924.052 885.574C923.668 885.346 923.326 885.082 923.026 884.782C922.738 884.482 922.516 884.134 922.36 883.738C922.204 883.342 922.126 882.88 922.126 882.352C922.126 881.644 922.3 881.038 922.648 880.534C923.008 880.03 923.5 879.646 924.124 879.382C924.748 879.106 925.474 878.968 926.302 878.968C926.998 878.968 927.64 879.04 928.228 879.184C928.828 879.316 929.398 879.502 929.938 879.742L929.326 881.344C928.834 881.14 928.336 880.972 927.832 880.84C927.328 880.708 926.8 880.642 926.248 880.642C925.768 880.642 925.366 880.714 925.042 880.858C924.718 881.002 924.472 881.2 924.304 881.452C924.148 881.704 924.07 881.998 924.07 882.334C924.07 882.73 924.16 883.06 924.34 883.324C924.52 883.588 924.808 883.834 925.204 884.062C925.6 884.278 926.122 884.518 926.77 884.782C927.49 885.058 928.102 885.358 928.606 885.682C929.122 886.006 929.512 886.396 929.776 886.852C930.04 887.296 930.172 887.854 930.172 888.526ZM939.925 892H932.689V879.148H939.925V880.804H934.633V884.476H939.601V886.114H934.633V890.326H939.925V892ZM950.718 892L949.35 888.292H944.382L943.014 892H940.998L945.876 879.094H947.892L952.752 892H950.718ZM947.514 882.982C947.478 882.85 947.412 882.652 947.316 882.388C947.232 882.112 947.148 881.836 947.064 881.56C946.98 881.272 946.914 881.038 946.866 880.858C946.806 881.098 946.734 881.362 946.65 881.65C946.578 881.926 946.506 882.184 946.434 882.424C946.362 882.652 946.302 882.838 946.254 882.982L944.958 886.6H948.81L947.514 882.982ZM958.085 879.148C959.189 879.148 960.095 879.286 960.803 879.562C961.511 879.838 962.039 880.252 962.387 880.804C962.735 881.344 962.909 882.028 962.909 882.856C962.909 883.516 962.783 884.074 962.531 884.53C962.291 884.974 961.979 885.34 961.595 885.628C961.211 885.904 960.809 886.126 960.389 886.294L963.989 892H961.757L958.661 886.798H956.429V892H954.485V879.148H958.085ZM957.959 880.804H956.429V885.178H958.049C958.709 885.178 959.249 885.094 959.669 884.926C960.101 884.758 960.413 884.506 960.605 884.17C960.809 883.834 960.911 883.42 960.911 882.928C960.911 882.412 960.803 882.004 960.587 881.704C960.383 881.392 960.059 881.164 959.615 881.02C959.183 880.876 958.631 880.804 957.959 880.804ZM971.366 880.642C970.73 880.642 970.16 880.756 969.656 880.984C969.152 881.2 968.72 881.524 968.36 881.956C968.012 882.388 967.742 882.91 967.55 883.522C967.37 884.134 967.28 884.824 967.28 885.592C967.28 886.6 967.43 887.476 967.73 888.22C968.03 888.952 968.48 889.516 969.08 889.912C969.68 890.308 970.436 890.506 971.348 890.506C971.9 890.506 972.428 890.458 972.932 890.362C973.448 890.254 973.97 890.116 974.498 889.948V891.622C973.994 891.814 973.478 891.952 972.95 892.036C972.422 892.132 971.81 892.18 971.114 892.18C969.806 892.18 968.714 891.91 967.838 891.37C966.974 890.83 966.326 890.062 965.894 889.066C965.462 888.07 965.246 886.906 965.246 885.574C965.246 884.602 965.378 883.714 965.642 882.91C965.918 882.094 966.314 881.392 966.83 880.804C967.346 880.216 967.982 879.766 968.738 879.454C969.506 879.13 970.388 878.968 971.384 878.968C972.032 878.968 972.668 879.04 973.292 879.184C973.916 879.316 974.48 879.508 974.984 879.76L974.264 881.38C973.844 881.188 973.388 881.02 972.896 880.876C972.416 880.72 971.906 880.642 971.366 880.642ZM987.293 892H985.349V886.132H979.211V892H977.267V879.148H979.211V884.476H985.349V879.148H987.293V892ZM997.967 892H990.731V879.148H997.967V880.804H992.675V884.476H997.643V886.114H992.675V890.326H997.967V892ZM1004.35 879.148C1005.46 879.148 1006.36 879.286 1007.07 879.562C1007.78 879.838 1008.31 880.252 1008.65 880.804C1009 881.344 1009.18 882.028 1009.18 882.856C1009.18 883.516 1009.05 884.074 1008.8 884.53C1008.56 884.974 1008.25 885.34 1007.86 885.628C1007.48 885.904 1007.08 886.126 1006.66 886.294L1010.26 892H1008.02L1004.93 886.798H1002.7V892H1000.75V879.148H1004.35ZM1004.23 880.804H1002.7V885.178H1004.32C1004.98 885.178 1005.52 885.094 1005.94 884.926C1006.37 884.758 1006.68 884.506 1006.87 884.17C1007.08 883.834 1007.18 883.42 1007.18 882.928C1007.18 882.412 1007.07 882.004 1006.85 881.704C1006.65 881.392 1006.33 881.164 1005.88 881.02C1005.45 880.876 1004.9 880.804 1004.23 880.804ZM1019.52 888.526C1019.52 889.294 1019.34 889.948 1018.96 890.488C1018.59 891.028 1018.06 891.448 1017.36 891.748C1016.67 892.036 1015.84 892.18 1014.88 892.18C1014.41 892.18 1013.96 892.15 1013.53 892.09C1013.1 892.042 1012.69 891.97 1012.32 891.874C1011.95 891.778 1011.62 891.658 1011.33 891.514V889.678C1011.81 889.894 1012.38 890.092 1013.02 890.272C1013.67 890.44 1014.33 890.524 1015 890.524C1015.58 890.524 1016.06 890.446 1016.44 890.29C1016.83 890.134 1017.12 889.918 1017.31 889.642C1017.5 889.366 1017.6 889.042 1017.6 888.67C1017.6 888.274 1017.49 887.944 1017.29 887.68C1017.1 887.404 1016.79 887.152 1016.37 886.924C1015.96 886.684 1015.41 886.432 1014.72 886.168C1014.24 885.988 1013.8 885.79 1013.4 885.574C1013.02 885.346 1012.68 885.082 1012.38 884.782C1012.09 884.482 1011.87 884.134 1011.71 883.738C1011.55 883.342 1011.48 882.88 1011.48 882.352C1011.48 881.644 1011.65 881.038 1012 880.534C1012.36 880.03 1012.85 879.646 1013.47 879.382C1014.1 879.106 1014.82 878.968 1015.65 878.968C1016.35 878.968 1016.99 879.04 1017.58 879.184C1018.18 879.316 1018.75 879.502 1019.29 879.742L1018.68 881.344C1018.18 881.14 1017.69 880.972 1017.18 880.84C1016.68 880.708 1016.15 880.642 1015.6 880.642C1015.12 880.642 1014.72 880.714 1014.39 880.858C1014.07 881.002 1013.82 881.2 1013.65 881.452C1013.5 881.704 1013.42 881.998 1013.42 882.334C1013.42 882.73 1013.51 883.06 1013.69 883.324C1013.87 883.588 1014.16 883.834 1014.55 884.062C1014.95 884.278 1015.47 884.518 1016.12 884.782C1016.84 885.058 1017.45 885.358 1017.96 885.682C1018.47 886.006 1018.86 886.396 1019.13 886.852C1019.39 887.296 1019.52 887.854 1019.52 888.526ZM911.307 907.556C911.307 908.552 911.181 909.458 910.929 910.274C910.689 911.078 910.317 911.774 909.813 912.362C909.321 912.95 908.697 913.4 907.941 913.712C907.197 914.024 906.327 914.18 905.331 914.18C904.311 914.18 903.423 914.024 902.667 913.712C901.923 913.388 901.299 912.938 900.795 912.362C900.303 911.774 899.937 911.072 899.697 910.256C899.457 909.44 899.337 908.534 899.337 907.538C899.337 906.218 899.553 905.066 899.985 904.082C900.417 903.098 901.077 902.33 901.965 901.778C902.865 901.226 903.993 900.95 905.349 900.95C906.669 900.95 907.767 901.226 908.643 901.778C909.531 902.318 910.197 903.086 910.641 904.082C911.085 905.066 911.307 906.224 911.307 907.556ZM901.389 907.556C901.389 908.588 901.527 909.476 901.803 910.22C902.079 910.952 902.511 911.522 903.099 911.93C903.687 912.326 904.431 912.524 905.331 912.524C906.243 912.524 906.987 912.326 907.563 911.93C908.139 911.522 908.565 910.952 908.841 910.22C909.117 909.476 909.255 908.588 909.255 907.556C909.255 906.008 908.943 904.802 908.319 903.938C907.707 903.062 906.717 902.624 905.349 902.624C904.437 902.624 903.687 902.822 903.099 903.218C902.511 903.614 902.079 904.178 901.803 904.91C901.527 905.642 901.389 906.524 901.389 907.556ZM924.648 914H922.29L915.792 903.614H915.72C915.732 903.854 915.744 904.112 915.756 904.388C915.78 904.664 915.798 904.958 915.81 905.27C915.822 905.57 915.834 905.882 915.846 906.206C915.858 906.518 915.864 906.836 915.864 907.16V914H914.1V901.148H916.44L922.92 911.48H922.974C922.962 911.3 922.95 911.078 922.938 910.814C922.926 910.538 922.914 910.244 922.902 909.932C922.902 909.62 922.896 909.302 922.884 908.978C922.872 908.654 922.86 908.348 922.848 908.06V901.148H924.648V914ZM931.836 901.148C932.928 901.148 933.84 901.25 934.572 901.454C935.316 901.658 935.874 902 936.246 902.48C936.63 902.948 936.822 903.572 936.822 904.352C936.822 904.856 936.732 905.306 936.552 905.702C936.372 906.086 936.108 906.41 935.76 906.674C935.424 906.926 935.004 907.094 934.5 907.178V907.268C935.016 907.352 935.478 907.508 935.886 907.736C936.294 907.952 936.618 908.27 936.858 908.69C937.098 909.11 937.218 909.656 937.218 910.328C937.218 911.108 937.032 911.774 936.66 912.326C936.3 912.866 935.778 913.28 935.094 913.568C934.422 913.856 933.618 914 932.682 914H928.074V901.148H931.836ZM932.16 906.512C933.168 906.512 933.858 906.35 934.23 906.026C934.614 905.702 934.806 905.222 934.806 904.586C934.806 903.938 934.578 903.476 934.122 903.2C933.666 902.924 932.94 902.786 931.944 902.786H930.018V906.512H932.16ZM930.018 908.096V912.38H932.376C933.42 912.38 934.146 912.176 934.554 911.768C934.962 911.36 935.166 910.82 935.166 910.148C935.166 909.74 935.076 909.38 934.896 909.068C934.716 908.756 934.41 908.516 933.978 908.348C933.558 908.18 932.982 908.096 932.25 908.096H930.018ZM951.227 907.556C951.227 908.552 951.101 909.458 950.849 910.274C950.609 911.078 950.237 911.774 949.733 912.362C949.241 912.95 948.617 913.4 947.861 913.712C947.117 914.024 946.247 914.18 945.251 914.18C944.231 914.18 943.343 914.024 942.587 913.712C941.843 913.388 941.219 912.938 940.715 912.362C940.223 911.774 939.857 911.072 939.617 910.256C939.377 909.44 939.257 908.534 939.257 907.538C939.257 906.218 939.473 905.066 939.905 904.082C940.337 903.098 940.997 902.33 941.885 901.778C942.785 901.226 943.913 900.95 945.269 900.95C946.589 900.95 947.687 901.226 948.563 901.778C949.451 902.318 950.117 903.086 950.561 904.082C951.005 905.066 951.227 906.224 951.227 907.556ZM941.309 907.556C941.309 908.588 941.447 909.476 941.723 910.22C941.999 910.952 942.431 911.522 943.019 911.93C943.607 912.326 944.351 912.524 945.251 912.524C946.163 912.524 946.907 912.326 947.483 911.93C948.059 911.522 948.485 910.952 948.761 910.22C949.037 909.476 949.175 908.588 949.175 907.556C949.175 906.008 948.863 904.802 948.239 903.938C947.627 903.062 946.637 902.624 945.269 902.624C944.357 902.624 943.607 902.822 943.019 903.218C942.431 903.614 941.999 904.178 941.723 904.91C941.447 905.642 941.309 906.524 941.309 907.556ZM961.678 914L960.31 910.292H955.342L953.974 914H951.958L956.836 901.094H958.852L963.712 914H961.678ZM958.474 904.982C958.438 904.85 958.372 904.652 958.276 904.388C958.192 904.112 958.108 903.836 958.024 903.56C957.94 903.272 957.874 903.038 957.826 902.858C957.766 903.098 957.694 903.362 957.61 903.65C957.538 903.926 957.466 904.184 957.394 904.424C957.322 904.652 957.262 904.838 957.214 904.982L955.918 908.6H959.77L958.474 904.982ZM969.045 901.148C970.149 901.148 971.055 901.286 971.763 901.562C972.471 901.838 972.999 902.252 973.347 902.804C973.695 903.344 973.869 904.028 973.869 904.856C973.869 905.516 973.743 906.074 973.491 906.53C973.251 906.974 972.939 907.34 972.555 907.628C972.171 907.904 971.769 908.126 971.349 908.294L974.949 914H972.717L969.621 908.798H967.389V914H965.445V901.148H969.045ZM968.919 902.804H967.389V907.178H969.009C969.669 907.178 970.209 907.094 970.629 906.926C971.061 906.758 971.373 906.506 971.565 906.17C971.769 905.834 971.871 905.42 971.871 904.928C971.871 904.412 971.763 904.004 971.547 903.704C971.343 903.392 971.019 903.164 970.575 903.02C970.143 902.876 969.591 902.804 968.919 902.804ZM987.24 907.448C987.24 908.888 986.97 910.094 986.43 911.066C985.89 912.038 985.11 912.77 984.09 913.262C983.082 913.754 981.864 914 980.436 914H976.836V901.148H980.814C982.122 901.148 983.256 901.388 984.216 901.868C985.176 902.348 985.92 903.056 986.448 903.992C986.976 904.916 987.24 906.068 987.24 907.448ZM985.206 907.502C985.206 906.422 985.032 905.534 984.684 904.838C984.336 904.142 983.82 903.626 983.136 903.29C982.464 902.954 981.648 902.786 980.688 902.786H978.78V912.362H980.346C981.966 912.362 983.178 911.954 983.982 911.138C984.798 910.322 985.206 909.11 985.206 907.502ZM993.997 914H989.011V912.884L990.541 912.434V902.732L989.011 902.264V901.148H993.997V902.264L992.485 902.732V912.434L993.997 912.884V914ZM1006.95 914H1004.59L998.092 903.614H998.02C998.032 903.854 998.044 904.112 998.056 904.388C998.08 904.664 998.098 904.958 998.11 905.27C998.122 905.57 998.134 905.882 998.146 906.206C998.158 906.518 998.164 906.836 998.164 907.16V914H996.4V901.148H998.74L1005.22 911.48H1005.27C1005.26 911.3 1005.25 911.078 1005.24 910.814C1005.23 910.538 1005.21 910.244 1005.2 909.932C1005.2 909.62 1005.2 909.302 1005.18 908.978C1005.17 908.654 1005.16 908.348 1005.15 908.06V901.148H1006.95V914ZM1015.74 907.088H1020.38V913.496C1019.7 913.724 1019 913.892 1018.28 914C1017.57 914.12 1016.76 914.18 1015.85 914.18C1014.54 914.18 1013.43 913.916 1012.52 913.388C1011.62 912.86 1010.93 912.104 1010.45 911.12C1009.98 910.136 1009.75 908.954 1009.75 907.574C1009.75 906.23 1010.01 905.066 1010.54 904.082C1011.07 903.098 1011.82 902.336 1012.81 901.796C1013.8 901.244 1015.01 900.968 1016.42 900.968C1017.13 900.968 1017.81 901.04 1018.46 901.184C1019.11 901.316 1019.71 901.502 1020.26 901.742L1019.56 903.362C1019.11 903.158 1018.61 902.99 1018.06 902.858C1017.52 902.714 1016.95 902.642 1016.35 902.642C1015.4 902.642 1014.58 902.846 1013.89 903.254C1013.2 903.65 1012.67 904.22 1012.3 904.964C1011.94 905.696 1011.76 906.572 1011.76 907.592C1011.76 908.552 1011.91 909.404 1012.21 910.148C1012.51 910.892 1012.99 911.474 1013.63 911.894C1014.28 912.314 1015.13 912.524 1016.17 912.524C1016.52 912.524 1016.83 912.512 1017.09 912.488C1017.35 912.452 1017.59 912.416 1017.81 912.38C1018.04 912.332 1018.25 912.29 1018.46 912.254V908.762H1015.74V907.088Z" fill="#01284E"/>
<g filter="url(#filter16_f_930_763)">
<circle cx="960" cy="966" r="10.6129" stroke="#0088A9" stroke-opacity="0.8" stroke-width="2"/>
</g>
<g filter="url(#filter17_f_930_763)">
<circle cx="959.613" cy="965.613" r="16.4194" stroke="#0088A9" stroke-opacity="0.6" stroke-width="2"/>
</g>
<g filter="url(#filter18_f_930_763)">
<circle cx="960" cy="966" r="23" stroke="#0088A9" stroke-opacity="0.4" stroke-width="2"/>
</g>
<path d="M961.542 959.807L960.991 965.092L966.276 963.605L966.662 966.138L961.597 966.551L964.872 970.9L962.505 972.194L960.165 967.377L958.046 972.194L955.596 970.9L958.817 966.551L953.807 966.138L954.192 963.605L959.422 965.092L958.844 959.807H961.542Z" fill="#0088A9"/>
<path d="M1257.23 901.148C1258.91 901.148 1260.14 901.49 1260.9 902.174C1261.67 902.846 1262.06 903.788 1262.06 905C1262.06 905.54 1261.97 906.056 1261.79 906.548C1261.62 907.04 1261.34 907.484 1260.94 907.88C1260.54 908.264 1260.02 908.57 1259.36 908.798C1258.71 909.014 1257.91 909.122 1256.96 909.122H1255.58V914H1253.63V901.148H1257.23ZM1257.09 902.786H1255.58V907.484H1256.75C1257.48 907.484 1258.09 907.406 1258.58 907.25C1259.07 907.082 1259.44 906.824 1259.68 906.476C1259.93 906.116 1260.06 905.648 1260.06 905.072C1260.06 904.304 1259.82 903.734 1259.34 903.362C1258.87 902.978 1258.12 902.786 1257.09 902.786ZM1274.63 909.464C1274.63 910.352 1274.44 911.156 1274.07 911.876C1273.71 912.584 1273.15 913.148 1272.39 913.568C1271.64 913.976 1270.68 914.18 1269.53 914.18C1267.9 914.18 1266.66 913.748 1265.81 912.884C1264.97 912.008 1264.55 910.856 1264.55 909.428V901.148H1266.49V909.338C1266.49 910.394 1266.75 911.192 1267.26 911.732C1267.78 912.26 1268.57 912.524 1269.62 912.524C1270.34 912.524 1270.93 912.392 1271.39 912.128C1271.84 911.864 1272.17 911.498 1272.38 911.03C1272.59 910.55 1272.7 909.98 1272.7 909.32V901.148H1274.63V909.464ZM1281.7 901.148C1282.8 901.148 1283.71 901.25 1284.44 901.454C1285.18 901.658 1285.74 902 1286.11 902.48C1286.5 902.948 1286.69 903.572 1286.69 904.352C1286.69 904.856 1286.6 905.306 1286.42 905.702C1286.24 906.086 1285.98 906.41 1285.63 906.674C1285.29 906.926 1284.87 907.094 1284.37 907.178V907.268C1284.88 907.352 1285.35 907.508 1285.75 907.736C1286.16 907.952 1286.49 908.27 1286.73 908.69C1286.97 909.11 1287.09 909.656 1287.09 910.328C1287.09 911.108 1286.9 911.774 1286.53 912.326C1286.17 912.866 1285.65 913.28 1284.96 913.568C1284.29 913.856 1283.49 914 1282.55 914H1277.94V901.148H1281.7ZM1282.03 906.512C1283.04 906.512 1283.73 906.35 1284.1 906.026C1284.48 905.702 1284.67 905.222 1284.67 904.586C1284.67 903.938 1284.45 903.476 1283.99 903.2C1283.53 902.924 1282.81 902.786 1281.81 902.786H1279.89V906.512H1282.03ZM1279.89 908.096V912.38H1282.24C1283.29 912.38 1284.01 912.176 1284.42 911.768C1284.83 911.36 1285.03 910.82 1285.03 910.148C1285.03 909.74 1284.94 909.38 1284.76 909.068C1284.58 908.756 1284.28 908.516 1283.85 908.348C1283.43 908.18 1282.85 908.096 1282.12 908.096H1279.89ZM1289.75 914V901.148H1291.7V912.326H1297.19V914H1289.75ZM1306.64 914H1299.41V901.148H1306.64V902.804H1301.35V906.476H1306.32V908.114H1301.35V912.326H1306.64V914ZM1319.83 907.448C1319.83 908.888 1319.56 910.094 1319.02 911.066C1318.48 912.038 1317.7 912.77 1316.68 913.262C1315.67 913.754 1314.45 914 1313.02 914H1309.42V901.148H1313.4C1314.71 901.148 1315.84 901.388 1316.8 901.868C1317.76 902.348 1318.51 903.056 1319.04 903.992C1319.56 904.916 1319.83 906.068 1319.83 907.448ZM1317.79 907.502C1317.79 906.422 1317.62 905.534 1317.27 904.838C1316.92 904.142 1316.41 903.626 1315.72 903.29C1315.05 902.954 1314.24 902.786 1313.28 902.786H1311.37V912.362H1312.93C1314.55 912.362 1315.77 911.954 1316.57 911.138C1317.39 910.322 1317.79 909.11 1317.79 907.502ZM1331.06 901.148C1332.16 901.148 1333.07 901.25 1333.8 901.454C1334.54 901.658 1335.1 902 1335.47 902.48C1335.86 902.948 1336.05 903.572 1336.05 904.352C1336.05 904.856 1335.96 905.306 1335.78 905.702C1335.6 906.086 1335.34 906.41 1334.99 906.674C1334.65 906.926 1334.23 907.094 1333.73 907.178V907.268C1334.24 907.352 1334.71 907.508 1335.11 907.736C1335.52 907.952 1335.85 908.27 1336.09 908.69C1336.33 909.11 1336.45 909.656 1336.45 910.328C1336.45 911.108 1336.26 911.774 1335.89 912.326C1335.53 912.866 1335.01 913.28 1334.32 913.568C1333.65 913.856 1332.85 914 1331.91 914H1327.3V901.148H1331.06ZM1331.39 906.512C1332.4 906.512 1333.09 906.35 1333.46 906.026C1333.84 905.702 1334.03 905.222 1334.03 904.586C1334.03 903.938 1333.81 903.476 1333.35 903.2C1332.89 902.924 1332.17 902.786 1331.17 902.786H1329.25V906.512H1331.39ZM1329.25 908.096V912.38H1331.6C1332.65 912.38 1333.37 912.176 1333.78 911.768C1334.19 911.36 1334.39 910.82 1334.39 910.148C1334.39 909.74 1334.3 909.38 1334.12 909.068C1333.94 908.756 1333.64 908.516 1333.21 908.348C1332.79 908.18 1332.21 908.096 1331.48 908.096H1329.25ZM1346.35 914H1339.11V901.148H1346.35V902.804H1341.06V906.476H1346.03V908.114H1341.06V912.326H1346.35V914ZM1353.45 914H1351.51V902.822H1347.66V901.148H1357.31V902.822H1353.45V914ZM1366.02 914L1364.65 910.292H1359.68L1358.32 914H1356.3L1361.18 901.094H1363.19L1368.05 914H1366.02ZM1362.82 904.982C1362.78 904.85 1362.71 904.652 1362.62 904.388C1362.53 904.112 1362.45 903.836 1362.37 903.56C1362.28 903.272 1362.22 903.038 1362.17 902.858C1362.11 903.098 1362.04 903.362 1361.95 903.65C1361.88 903.926 1361.81 904.184 1361.74 904.424C1361.66 904.652 1361.6 904.838 1361.56 904.982L1360.26 908.6H1364.11L1362.82 904.982Z" fill="#01284E"/>
<g filter="url(#filter19_f_930_763)">
<circle cx="1310" cy="966" r="10.6129" stroke="#0088A9" stroke-opacity="0.8" stroke-width="2"/>
</g>
<g filter="url(#filter20_f_930_763)">
<circle cx="1309.61" cy="965.613" r="16.4194" stroke="#0088A9" stroke-opacity="0.6" stroke-width="2"/>
</g>
<g filter="url(#filter21_f_930_763)">
<circle cx="1310" cy="966" r="23" stroke="#0088A9" stroke-opacity="0.4" stroke-width="2"/>
</g>
<path d="M1311.54 959.807L1310.99 965.092L1316.28 963.605L1316.66 966.138L1311.6 966.551L1314.87 970.9L1312.51 972.194L1310.17 967.377L1308.05 972.194L1305.6 970.9L1308.82 966.551L1303.81 966.138L1304.19 963.605L1309.42 965.092L1308.84 959.807H1311.54Z" fill="#0088A9"/>
</g>
<defs>
<filter id="filter0_f_930_763" x="-60.834" y="994.104" width="2040.99" height="133.089" filterUnits="userSpaceOnUse" color-interpolation-filters="sRGB">
<feFlood flood-opacity="0" result="BackgroundImageFix"/>
<feBlend mode="normal" in="SourceGraphic" in2="BackgroundImageFix" result="shape"/>
<feGaussianBlur stdDeviation="15" result="effect1_foregroundBlur_930_763"/>
</filter>
<filter id="filter1_f_930_763" x="421.387" y="1142.39" width="27.2256" height="27.2256" filterUnits="userSpaceOnUse" color-interpolation-filters="sRGB">
<feFlood flood-opacity="0" result="BackgroundImageFix"/>
<feBlend mode="normal" in="SourceGraphic" in2="BackgroundImageFix" result="shape"/>
<feGaussianBlur stdDeviation="1" result="effect1_foregroundBlur_930_763"/>
</filter>
<filter id="filter2_f_930_763" x="414.193" y="1135.19" width="40.8389" height="40.8389" filterUnits="userSpaceOnUse" color-interpolation-filters="sRGB">
<feFlood flood-opacity="0" result="BackgroundImageFix"/>
<feBlend mode="normal" in="SourceGraphic" in2="BackgroundImageFix" result="shape"/>
<feGaussianBlur stdDeviation="1.5" result="effect1_foregroundBlur_930_763"/>
</filter>
<filter id="filter3_f_930_763" x="407" y="1128" width="56" height="56" filterUnits="userSpaceOnUse" color-interpolation-filters="sRGB">
<feFlood flood-opacity="0" result="BackgroundImageFix"/>
<feBlend mode="normal" in="SourceGraphic" in2="BackgroundImageFix" result="shape"/>
<feGaussianBlur stdDeviation="2" result="effect1_foregroundBlur_930_763"/>
</filter>
<filter id="filter4_f_930_763" x="771.387" y="1142.39" width="27.2256" height="27.2256" filterUnits="userSpaceOnUse" color-interpolation-filters="sRGB">
<feFlood flood-opacity="0" result="BackgroundImageFix"/>
<feBlend mode="normal" in="SourceGraphic" in2="BackgroundImageFix" result="shape"/>
<feGaussianBlur stdDeviation="1" result="effect1_foregroundBlur_930_763"/>
</filter>
<filter id="filter5_f_930_763" x="764.193" y="1135.19" width="40.8389" height="40.8389" filterUnits="userSpaceOnUse" color-interpolation-filters="sRGB">
<feFlood flood-opacity="0" result="BackgroundImageFix"/>
<feBlend mode="normal" in="SourceGraphic" in2="BackgroundImageFix" result="shape"/>
<feGaussianBlur stdDeviation="1.5" result="effect1_foregroundBlur_930_763"/>
</filter>
<filter id="filter6_f_930_763" x="757" y="1128" width="56" height="56" filterUnits="userSpaceOnUse" color-interpolation-filters="sRGB">
<feFlood flood-opacity="0" result="BackgroundImageFix"/>
<feBlend mode="normal" in="SourceGraphic" in2="BackgroundImageFix" result="shape"/>
<feGaussianBlur stdDeviation="2" result="effect1_foregroundBlur_930_763"/>
</filter>
<filter id="filter7_f_930_763" x="1121.39" y="1142.39" width="27.2256" height="27.2256" filterUnits="userSpaceOnUse" color-interpolation-filters="sRGB">
<feFlood flood-opacity="0" result="BackgroundImageFix"/>
<feBlend mode="normal" in="SourceGraphic" in2="BackgroundImageFix" result="shape"/>
<feGaussianBlur stdDeviation="1" result="effect1_foregroundBlur_930_763"/>
</filter>
<filter id="filter8_f_930_763" x="1114.19" y="1135.19" width="40.8389" height="40.8389" filterUnits="userSpaceOnUse" color-interpolation-filters="sRGB">
<feFlood flood-opacity="0" result="BackgroundImageFix"/>
<feBlend mode="normal" in="SourceGraphic" in2="BackgroundImageFix" result="shape"/>
<feGaussianBlur stdDeviation="1.5" result="effect1_foregroundBlur_930_763"/>
</filter>
<filter id="filter9_f_930_763" x="1107" y="1128" width="56" height="56" filterUnits="userSpaceOnUse" color-interpolation-filters="sRGB">
<feFlood flood-opacity="0" result="BackgroundImageFix"/>
<feBlend mode="normal" in="SourceGraphic" in2="BackgroundImageFix" result="shape"/>
<feGaussianBlur stdDeviation="2" result="effect1_foregroundBlur_930_763"/>
</filter>
<filter id="filter10_f_930_763" x="1471.39" y="1142.39" width="27.2256" height="27.2256" filterUnits="userSpaceOnUse" color-interpolation-filters="sRGB">
<feFlood flood-opacity="0" result="BackgroundImageFix"/>
<feBlend mode="normal" in="SourceGraphic" in2="BackgroundImageFix" result="shape"/>
<feGaussianBlur stdDeviation="1" result="effect1_foregroundBlur_930_763"/>
</filter>
<filter id="filter11_f_930_763" x="1464.19" y="1135.19" width="40.8389" height="40.8389" filterUnits="userSpaceOnUse" color-interpolation-filters="sRGB">
<feFlood flood-opacity="0" result="BackgroundImageFix"/>
<feBlend mode="normal" in="SourceGraphic" in2="BackgroundImageFix" result="shape"/>
<feGaussianBlur stdDeviation="1.5" result="effect1_foregroundBlur_930_763"/>
</filter>
<filter id="filter12_f_930_763" x="1457" y="1128" width="56" height="56" filterUnits="userSpaceOnUse" color-interpolation-filters="sRGB">
<feFlood flood-opacity="0" result="BackgroundImageFix"/>
<feBlend mode="normal" in="SourceGraphic" in2="BackgroundImageFix" result="shape"/>
<feGaussianBlur stdDeviation="2" result="effect1_foregroundBlur_930_763"/>
</filter>
<filter id="filter13_f_930_763" x="596.387" y="952.387" width="27.2256" height="27.2256" filterUnits="userSpaceOnUse" color-interpolation-filters="sRGB">
<feFlood flood-opacity="0" result="BackgroundImageFix"/>
<feBlend mode="normal" in="SourceGraphic" in2="BackgroundImageFix" result="shape"/>
<feGaussianBlur stdDeviation="1" result="effect1_foregroundBlur_930_763"/>
</filter>
<filter id="filter14_f_930_763" x="589.193" y="945.193" width="40.8389" height="40.8389" filterUnits="userSpaceOnUse" color-interpolation-filters="sRGB">
<feFlood flood-opacity="0" result="BackgroundImageFix"/>
<feBlend mode="normal" in="SourceGraphic" in2="BackgroundImageFix" result="shape"/>
<feGaussianBlur stdDeviation="1.5" result="effect1_foregroundBlur_930_763"/>
</filter>
<filter id="filter15_f_930_763" x="582" y="938" width="56" height="56" filterUnits="userSpaceOnUse" color-interpolation-filters="sRGB">
<feFlood flood-opacity="0" result="BackgroundImageFix"/>
<feBlend mode="normal" in="SourceGraphic" in2="BackgroundImageFix" result="shape"/>
<feGaussianBlur stdDeviation="2" result="effect1_foregroundBlur_930_763"/>
</filter>
<filter id="filter16_f_930_763" x="946.387" y="952.387" width="27.2256" height="27.2256" filterUnits="userSpaceOnUse" color-interpolation-filters="sRGB">
<feFlood flood-opacity="0" result="BackgroundImageFix"/>
<feBlend mode="normal" in="SourceGraphic" in2="BackgroundImageFix" result="shape"/>
<feGaussianBlur stdDeviation="1" result="effect1_foregroundBlur_930_763"/>
</filter>
<filter id="filter17_f_930_763" x="939.193" y="945.193" width="40.8389" height="40.8389" filterUnits="userSpaceOnUse" color-interpolation-filters="sRGB">
<feFlood flood-opacity="0" result="BackgroundImageFix"/>
<feBlend mode="normal" in="SourceGraphic" in2="BackgroundImageFix" result="shape"/>
<feGaussianBlur stdDeviation="1.5" result="effect1_foregroundBlur_930_763"/>
</filter>
<filter id="filter18_f_930_763" x="932" y="938" width="56" height="56" filterUnits="userSpaceOnUse" color-interpolation-filters="sRGB">
<feFlood flood-opacity="0" result="BackgroundImageFix"/>
<feBlend mode="normal" in="SourceGraphic" in2="BackgroundImageFix" result="shape"/>
<feGaussianBlur stdDeviation="2" result="effect1_foregroundBlur_930_763"/>
</filter>
<filter id="filter19_f_930_763" x="1296.39" y="952.387" width="27.2256" height="27.2256" filterUnits="userSpaceOnUse" color-interpolation-filters="sRGB">
<feFlood flood-opacity="0" result="BackgroundImageFix"/>
<feBlend mode="normal" in="SourceGraphic" in2="BackgroundImageFix" result="shape"/>
<feGaussianBlur stdDeviation="1" result="effect1_foregroundBlur_930_763"/>
</filter>
<filter id="filter20_f_930_763" x="1289.19" y="945.193" width="40.8389" height="40.8389" filterUnits="userSpaceOnUse" color-interpolation-filters="sRGB">
<feFlood flood-opacity="0" result="BackgroundImageFix"/>
<feBlend mode="normal" in="SourceGraphic" in2="BackgroundImageFix" result="shape"/>
<feGaussianBlur stdDeviation="1.5" result="effect1_foregroundBlur_930_763"/>
</filter>
<filter id="filter21_f_930_763" x="1282" y="938" width="56" height="56" filterUnits="userSpaceOnUse" color-interpolation-filters="sRGB">
<feFlood flood-opacity="0" result="BackgroundImageFix"/>
<feBlend mode="normal" in="SourceGraphic" in2="BackgroundImageFix" result="shape"/>
<feGaussianBlur stdDeviation="2" result="effect1_foregroundBlur_930_763"/>
</filter>
<linearGradient id="paint0_linear_930_763" x1="959.5" y1="830.098" x2="959.5" y2="643.965" gradientUnits="userSpaceOnUse">
<stop stop-color="#E6F5F8"/>
<stop offset="1" stop-color="#E6F5F8" stop-opacity="0"/>
</linearGradient>
<linearGradient id="paint1_linear_930_763" x1="881.25" y1="1207.52" x2="881.25" y2="1358.38" gradientUnits="userSpaceOnUse">
<stop stop-color="#BFE5EE"/>
<stop offset="1" stop-color="#BFE5EE" stop-opacity="0"/>
</linearGradient>
<linearGradient id="paint2_linear_930_763" x1="881.25" y1="1207.52" x2="881.25" y2="1358.38" gradientUnits="userSpaceOnUse">
<stop stop-color="#BFE5EE"/>
<stop offset="1" stop-color="#BFE5EE" stop-opacity="0"/>
</linearGradient>
<clipPath id="clip0_930_763">
<rect width="1920" height="2000" fill="white"/>
</clipPath>
</defs>
</svg>
