<svg width="760" height="2000" viewBox="0 0 760 2000" fill="none" xmlns="http://www.w3.org/2000/svg">
<g clip-path="url(#clip0_930_756)">
<path d="M0 -0.00012207V2000H760V-0.00012207H0Z" fill="#E6F5F8"/>
<path d="M370.249 773.555C357.886 793.15 343.875 810.771 343.875 834.656C343.875 885.372 388.749 905.582 388.749 949.778C388.749 1002.67 344.153 1023.68 344.153 1069.32C344.153 1114.97 388.749 1135.98 388.749 1188.87C388.749 1233.06 343.875 1257.68 343.875 1308.4C343.875 1359.11 388.749 1387.89 388.749 1432.61C388.749 1459.22 377.546 1476.41 366.335 1493.05" stroke="#0088A9" stroke-width="1.6875"/>
<g filter="url(#filter0_f_930_756)">
<path d="M376.249 773.555C363.886 793.15 349.875 810.771 349.875 834.656C349.875 885.372 394.749 905.582 394.749 949.778C394.749 1002.67 350.153 1023.68 350.153 1069.32C350.153 1114.97 394.749 1135.98 394.749 1188.87C394.749 1233.06 349.875 1257.68 349.875 1308.4C349.875 1359.11 394.749 1387.89 394.749 1432.61C394.749 1459.22 383.546 1476.41 372.335 1493.05" stroke="black" stroke-opacity="0.4" stroke-width="1.6875"/>
</g>
<path d="M368.714 773.176L371.251 774.778C369.59 777.401 367.911 779.98 366.248 782.533C355.561 798.942 345.543 814.324 345.377 834.156H342.377C342.544 813.363 353.113 797.165 363.794 780.793C365.444 778.264 367.096 775.731 368.714 773.176ZM345.376 835.156C345.522 859.758 356.422 877.036 367.562 893.833C367.97 894.449 368.379 895.063 368.787 895.678C379.474 911.761 390.085 927.732 390.247 949.277H387.247C387.085 928.654 376.935 913.369 366.147 897.126C365.786 896.582 365.424 896.037 365.062 895.491L364.645 895.767L365.062 895.491C353.912 878.678 342.523 860.737 342.376 835.156H345.376ZM388.749 951.277C388.095 951.277 387.54 950.86 387.334 950.277H390.164C389.958 950.86 389.402 951.277 388.749 951.277ZM371.785 773.932L369.248 772.331L369.781 771.486L372.318 773.086L371.785 773.932Z" fill="#005B71" stroke="#005B71"/>
<path d="M388.755 954.015C390.725 954.015 392.322 952.418 392.322 950.448C392.322 948.478 390.725 946.881 388.755 946.881C386.785 946.881 385.188 948.478 385.188 950.448C385.188 952.418 386.785 954.015 388.755 954.015Z" fill="#005B71" stroke="#005B71"/>
<path d="M241.958 808.111C241.958 809.107 241.832 810.013 241.58 810.829C241.34 811.633 240.968 812.329 240.464 812.917C239.972 813.505 239.342 813.949 238.574 814.249L241.67 817.615H238.61L236.216 814.735C236.168 814.735 236.114 814.735 236.054 814.735C236.006 814.735 235.958 814.735 235.91 814.735C234.878 814.735 233.978 814.579 233.21 814.267C232.454 813.943 231.83 813.493 231.338 812.917C230.846 812.329 230.474 811.627 230.222 810.811C229.982 809.995 229.862 809.089 229.862 808.093C229.862 806.761 230.078 805.603 230.51 804.619C230.954 803.635 231.62 802.873 232.508 802.333C233.408 801.781 234.548 801.505 235.928 801.505C237.284 801.505 238.406 801.781 239.294 802.333C240.182 802.873 240.848 803.641 241.292 804.637C241.736 805.621 241.958 806.779 241.958 808.111ZM232.292 808.111C232.292 809.083 232.418 809.917 232.67 810.613C232.934 811.309 233.33 811.843 233.858 812.215C234.398 812.587 235.082 812.773 235.91 812.773C236.762 812.773 237.452 812.587 237.98 812.215C238.508 811.843 238.898 811.309 239.15 810.613C239.402 809.917 239.528 809.083 239.528 808.111C239.528 806.659 239.246 805.519 238.682 804.691C238.118 803.863 237.2 803.449 235.928 803.449C235.088 803.449 234.398 803.635 233.858 804.007C233.33 804.379 232.934 804.913 232.67 805.609C232.418 806.305 232.292 807.139 232.292 808.111ZM252.093 804.637C252.093 805.213 251.973 805.717 251.733 806.149C251.505 806.581 251.187 806.935 250.779 807.211C250.371 807.475 249.897 807.667 249.357 807.787V807.841C250.389 807.961 251.169 808.279 251.697 808.795C252.225 809.311 252.489 809.995 252.489 810.847C252.489 811.591 252.309 812.257 251.949 812.845C251.589 813.433 251.031 813.895 250.275 814.231C249.531 814.567 248.571 814.735 247.395 814.735C246.699 814.735 246.051 814.675 245.451 814.555C244.851 814.447 244.287 814.273 243.759 814.033V812.035C244.299 812.311 244.875 812.521 245.487 812.665C246.099 812.809 246.675 812.881 247.215 812.881C248.259 812.881 248.997 812.695 249.429 812.323C249.861 811.939 250.077 811.411 250.077 810.739C250.077 810.307 249.969 809.953 249.753 809.677C249.537 809.401 249.183 809.197 248.691 809.065C248.211 808.921 247.581 808.849 246.801 808.849H245.721V807.031H246.819C247.575 807.031 248.169 806.947 248.601 806.779C249.045 806.611 249.357 806.377 249.537 806.077C249.729 805.777 249.825 805.429 249.825 805.033C249.825 804.517 249.657 804.115 249.321 803.827C248.985 803.539 248.481 803.395 247.809 803.395C247.377 803.395 246.987 803.443 246.639 803.539C246.291 803.635 245.973 803.761 245.685 803.917C245.397 804.061 245.127 804.217 244.875 804.385L243.795 802.819C244.119 802.579 244.485 802.363 244.893 802.171C245.301 801.967 245.757 801.811 246.261 801.703C246.765 801.583 247.317 801.523 247.917 801.523C249.249 801.523 250.275 801.805 250.995 802.369C251.727 802.921 252.093 803.677 252.093 804.637ZM267.573 814.555H258.771V812.881L262.047 809.569C262.695 808.909 263.223 808.345 263.631 807.877C264.051 807.397 264.357 806.953 264.549 806.545C264.753 806.137 264.855 805.693 264.855 805.213C264.855 804.625 264.687 804.187 264.351 803.899C264.015 803.599 263.571 803.449 263.019 803.449C262.479 803.449 261.975 803.563 261.507 803.791C261.039 804.007 260.553 804.319 260.049 804.727L258.807 803.233C259.167 802.921 259.551 802.639 259.959 802.387C260.367 802.123 260.829 801.913 261.345 801.757C261.861 801.601 262.461 801.523 263.145 801.523C263.973 801.523 264.681 801.673 265.269 801.973C265.869 802.261 266.331 802.663 266.655 803.179C266.979 803.695 267.141 804.295 267.141 804.979C267.141 805.507 267.063 805.999 266.907 806.455C266.751 806.899 266.523 807.337 266.223 807.769C265.923 808.201 265.557 808.639 265.125 809.083C264.693 809.527 264.207 810.007 263.667 810.523L261.633 812.485V812.593H267.573V814.555ZM277.838 808.111C277.838 809.155 277.76 810.085 277.604 810.901C277.448 811.717 277.19 812.413 276.83 812.989C276.482 813.553 276.026 813.985 275.462 814.285C274.91 814.585 274.232 814.735 273.428 814.735C272.42 814.735 271.592 814.471 270.944 813.943C270.296 813.415 269.816 812.659 269.504 811.675C269.192 810.679 269.036 809.491 269.036 808.111C269.036 806.731 269.18 805.549 269.468 804.565C269.756 803.581 270.218 802.825 270.854 802.297C271.502 801.769 272.36 801.505 273.428 801.505C274.436 801.505 275.264 801.769 275.912 802.297C276.56 802.813 277.04 803.569 277.352 804.565C277.676 805.549 277.838 806.731 277.838 808.111ZM271.322 808.129C271.322 809.173 271.388 810.049 271.52 810.757C271.652 811.453 271.868 811.981 272.168 812.341C272.48 812.689 272.9 812.863 273.428 812.863C273.956 812.863 274.37 812.689 274.67 812.341C274.982 811.993 275.204 811.465 275.336 810.757C275.48 810.049 275.552 809.173 275.552 808.129C275.552 807.073 275.48 806.197 275.336 805.501C275.204 804.793 274.982 804.265 274.67 803.917C274.37 803.557 273.956 803.377 273.428 803.377C272.9 803.377 272.48 803.557 272.168 803.917C271.868 804.265 271.652 804.787 271.52 805.483C271.388 806.179 271.322 807.061 271.322 808.129ZM288.175 814.555H279.373V812.881L282.649 809.569C283.297 808.909 283.825 808.345 284.233 807.877C284.653 807.397 284.959 806.953 285.151 806.545C285.355 806.137 285.457 805.693 285.457 805.213C285.457 804.625 285.289 804.187 284.953 803.899C284.617 803.599 284.173 803.449 283.621 803.449C283.081 803.449 282.577 803.563 282.109 803.791C281.641 804.007 281.155 804.319 280.651 804.727L279.409 803.233C279.769 802.921 280.153 802.639 280.561 802.387C280.969 802.123 281.431 801.913 281.947 801.757C282.463 801.601 283.063 801.523 283.747 801.523C284.575 801.523 285.283 801.673 285.871 801.973C286.471 802.261 286.933 802.663 287.257 803.179C287.581 803.695 287.743 804.295 287.743 804.979C287.743 805.507 287.665 805.999 287.509 806.455C287.353 806.899 287.125 807.337 286.825 807.769C286.525 808.201 286.159 808.639 285.727 809.083C285.295 809.527 284.809 810.007 284.269 810.523L282.235 812.485V812.593H288.175V814.555ZM298.475 814.555H289.673V812.881L292.949 809.569C293.597 808.909 294.125 808.345 294.533 807.877C294.953 807.397 295.259 806.953 295.451 806.545C295.655 806.137 295.757 805.693 295.757 805.213C295.757 804.625 295.589 804.187 295.253 803.899C294.917 803.599 294.473 803.449 293.921 803.449C293.381 803.449 292.877 803.563 292.409 803.791C291.941 804.007 291.455 804.319 290.951 804.727L289.709 803.233C290.069 802.921 290.453 802.639 290.861 802.387C291.269 802.123 291.731 801.913 292.247 801.757C292.763 801.601 293.363 801.523 294.047 801.523C294.875 801.523 295.583 801.673 296.171 801.973C296.771 802.261 297.233 802.663 297.557 803.179C297.881 803.695 298.043 804.295 298.043 804.979C298.043 805.507 297.965 805.999 297.809 806.455C297.653 806.899 297.425 807.337 297.125 807.769C296.825 808.201 296.459 808.639 296.027 809.083C295.595 809.527 295.109 810.007 294.569 810.523L292.535 812.485V812.593H298.475V814.555Z" fill="#005B71"/>
<path d="M225.613 846.555L222.157 836.843H222.093C222.104 837.056 222.12 837.344 222.141 837.707C222.163 838.069 222.179 838.459 222.189 838.875C222.2 839.291 222.205 839.701 222.205 840.107V846.555H220.637V835.131H223.101L226.381 844.299H226.445L229.821 835.131H232.285V846.555H230.605V840.011C230.605 839.637 230.611 839.253 230.621 838.859C230.643 838.453 230.659 838.075 230.669 837.723C230.691 837.371 230.707 837.083 230.717 836.859H230.653L227.101 846.555H225.613ZM243.645 835.131L239.613 846.555H237.821L233.805 835.131H235.581L238.029 842.299C238.125 842.555 238.215 842.832 238.301 843.131C238.386 843.419 238.466 843.707 238.541 843.995C238.615 844.283 238.674 844.555 238.717 844.811C238.77 844.555 238.829 844.283 238.893 843.995C238.967 843.707 239.047 843.413 239.133 843.115C239.229 842.816 239.319 842.539 239.405 842.283L241.853 835.131H243.645ZM248.368 835.131C249.862 835.131 250.95 835.435 251.632 836.043C252.315 836.64 252.656 837.477 252.656 838.555C252.656 839.035 252.576 839.493 252.416 839.931C252.267 840.368 252.016 840.763 251.664 841.115C251.312 841.456 250.843 841.728 250.256 841.931C249.68 842.123 248.971 842.219 248.128 842.219H246.896V846.555H245.168V835.131H248.368ZM248.24 836.587H246.896V840.763H247.936C248.587 840.763 249.131 840.693 249.568 840.555C250.006 840.405 250.331 840.176 250.544 839.867C250.768 839.547 250.88 839.131 250.88 838.619C250.88 837.936 250.667 837.429 250.24 837.099C249.824 836.757 249.158 836.587 248.24 836.587ZM266.242 846.555L265.026 843.259H260.61L259.394 846.555H257.602L261.938 835.083H263.73L268.05 846.555H266.242ZM263.394 838.539C263.362 838.421 263.303 838.245 263.218 838.011C263.143 837.765 263.068 837.52 262.994 837.275C262.919 837.019 262.86 836.811 262.818 836.651C262.764 836.864 262.7 837.099 262.626 837.355C262.562 837.6 262.498 837.829 262.434 838.043C262.37 838.245 262.316 838.411 262.274 838.539L261.122 841.755H264.546L263.394 838.539ZM269.59 846.555V835.131H271.318V845.067H276.198V846.555H269.59ZM281.368 835.131C282.862 835.131 283.95 835.435 284.632 836.043C285.315 836.64 285.656 837.477 285.656 838.555C285.656 839.035 285.576 839.493 285.416 839.931C285.267 840.368 285.016 840.763 284.664 841.115C284.312 841.456 283.843 841.728 283.256 841.931C282.68 842.123 281.971 842.219 281.128 842.219H279.896V846.555H278.168V835.131H281.368ZM281.24 836.587H279.896V840.763H280.936C281.587 840.763 282.131 840.693 282.568 840.555C283.006 840.405 283.331 840.176 283.544 839.867C283.768 839.547 283.88 839.131 283.88 838.619C283.88 837.936 283.667 837.429 283.24 837.099C282.824 836.757 282.158 836.587 281.24 836.587ZM296.877 846.555H295.149V841.339H289.693V846.555H287.965V835.131H289.693V839.867H295.149V835.131H296.877V846.555ZM307.054 846.555L305.838 843.259H301.422L300.206 846.555H298.414L302.75 835.083H304.542L308.862 846.555H307.054ZM304.206 838.539C304.174 838.421 304.115 838.245 304.03 838.011C303.955 837.765 303.881 837.52 303.806 837.275C303.731 837.019 303.673 836.811 303.63 836.651C303.577 836.864 303.513 837.099 303.438 837.355C303.374 837.6 303.31 837.829 303.246 838.043C303.182 838.245 303.129 838.411 303.086 838.539L301.934 841.755H305.358L304.206 838.539Z" fill="#01284E"/>
<g filter="url(#filter1_f_930_756)">
<circle cx="264" cy="876.055" r="5.96976" stroke="#005B71" stroke-opacity="0.8" stroke-width="1.125"/>
</g>
<g filter="url(#filter2_f_930_756)">
<circle cx="263.782" cy="875.836" r="9.23589" stroke="#005B71" stroke-opacity="0.6" stroke-width="1.125"/>
</g>
<g filter="url(#filter3_f_930_756)">
<circle cx="264" cy="876.055" r="12.9375" stroke="#005B71" stroke-opacity="0.4" stroke-width="1.125"/>
</g>
<path d="M264.868 872.571L264.558 875.544L267.531 874.708L267.748 876.133L264.899 876.365L266.741 878.811L265.41 879.539L264.093 876.829L262.901 879.539L261.523 878.811L263.335 876.365L260.517 876.133L260.733 874.708L263.675 875.544L263.35 872.571H264.868Z" fill="#005B71"/>
<path d="M400.458 715.111C400.458 716.107 400.332 717.013 400.08 717.829C399.84 718.633 399.468 719.329 398.964 719.917C398.472 720.505 397.842 720.949 397.074 721.249L400.17 724.615H397.11L394.716 721.735C394.668 721.735 394.614 721.735 394.554 721.735C394.506 721.735 394.458 721.735 394.41 721.735C393.378 721.735 392.478 721.579 391.71 721.267C390.954 720.943 390.33 720.493 389.838 719.917C389.346 719.329 388.974 718.627 388.722 717.811C388.482 716.995 388.362 716.089 388.362 715.093C388.362 713.761 388.578 712.603 389.01 711.619C389.454 710.635 390.12 709.873 391.008 709.333C391.908 708.781 393.048 708.505 394.428 708.505C395.784 708.505 396.906 708.781 397.794 709.333C398.682 709.873 399.348 710.641 399.792 711.637C400.236 712.621 400.458 713.779 400.458 715.111ZM390.792 715.111C390.792 716.083 390.918 716.917 391.17 717.613C391.434 718.309 391.83 718.843 392.358 719.215C392.898 719.587 393.582 719.773 394.41 719.773C395.262 719.773 395.952 719.587 396.48 719.215C397.008 718.843 397.398 718.309 397.65 717.613C397.902 716.917 398.028 716.083 398.028 715.111C398.028 713.659 397.746 712.519 397.182 711.691C396.618 710.863 395.7 710.449 394.428 710.449C393.588 710.449 392.898 710.635 392.358 711.007C391.83 711.379 391.434 711.913 391.17 712.609C390.918 713.305 390.792 714.139 390.792 715.111ZM408.559 721.555H406.291V713.545C406.291 713.281 406.291 713.011 406.291 712.735C406.303 712.459 406.315 712.183 406.327 711.907C406.339 711.619 406.351 711.355 406.363 711.115C406.243 711.235 406.093 711.379 405.913 711.547C405.733 711.703 405.547 711.865 405.355 712.033L403.915 713.185L402.781 711.781L406.669 708.703H408.559V721.555ZM426.073 721.555H417.271V719.881L420.547 716.569C421.195 715.909 421.723 715.345 422.131 714.877C422.551 714.397 422.857 713.953 423.049 713.545C423.253 713.137 423.355 712.693 423.355 712.213C423.355 711.625 423.187 711.187 422.851 710.899C422.515 710.599 422.071 710.449 421.519 710.449C420.979 710.449 420.475 710.563 420.007 710.791C419.539 711.007 419.053 711.319 418.549 711.727L417.307 710.233C417.667 709.921 418.051 709.639 418.459 709.387C418.867 709.123 419.329 708.913 419.845 708.757C420.361 708.601 420.961 708.523 421.645 708.523C422.473 708.523 423.181 708.673 423.769 708.973C424.369 709.261 424.831 709.663 425.155 710.179C425.479 710.695 425.641 711.295 425.641 711.979C425.641 712.507 425.563 712.999 425.407 713.455C425.251 713.899 425.023 714.337 424.723 714.769C424.423 715.201 424.057 715.639 423.625 716.083C423.193 716.527 422.707 717.007 422.167 717.523L420.133 719.485V719.593H426.073V721.555ZM436.338 715.111C436.338 716.155 436.26 717.085 436.104 717.901C435.948 718.717 435.69 719.413 435.33 719.989C434.982 720.553 434.526 720.985 433.962 721.285C433.41 721.585 432.732 721.735 431.928 721.735C430.92 721.735 430.092 721.471 429.444 720.943C428.796 720.415 428.316 719.659 428.004 718.675C427.692 717.679 427.536 716.491 427.536 715.111C427.536 713.731 427.68 712.549 427.968 711.565C428.256 710.581 428.718 709.825 429.354 709.297C430.002 708.769 430.86 708.505 431.928 708.505C432.936 708.505 433.764 708.769 434.412 709.297C435.06 709.813 435.54 710.569 435.852 711.565C436.176 712.549 436.338 713.731 436.338 715.111ZM429.822 715.129C429.822 716.173 429.888 717.049 430.02 717.757C430.152 718.453 430.368 718.981 430.668 719.341C430.98 719.689 431.4 719.863 431.928 719.863C432.456 719.863 432.87 719.689 433.17 719.341C433.482 718.993 433.704 718.465 433.836 717.757C433.98 717.049 434.052 716.173 434.052 715.129C434.052 714.073 433.98 713.197 433.836 712.501C433.704 711.793 433.482 711.265 433.17 710.917C432.87 710.557 432.456 710.377 431.928 710.377C431.4 710.377 430.98 710.557 430.668 710.917C430.368 711.265 430.152 711.787 430.02 712.483C429.888 713.179 429.822 714.061 429.822 715.129ZM446.675 721.555H437.873V719.881L441.149 716.569C441.797 715.909 442.325 715.345 442.733 714.877C443.153 714.397 443.459 713.953 443.651 713.545C443.855 713.137 443.957 712.693 443.957 712.213C443.957 711.625 443.789 711.187 443.453 710.899C443.117 710.599 442.673 710.449 442.121 710.449C441.581 710.449 441.077 710.563 440.609 710.791C440.141 711.007 439.655 711.319 439.151 711.727L437.909 710.233C438.269 709.921 438.653 709.639 439.061 709.387C439.469 709.123 439.931 708.913 440.447 708.757C440.963 708.601 441.563 708.523 442.247 708.523C443.075 708.523 443.783 708.673 444.371 708.973C444.971 709.261 445.433 709.663 445.757 710.179C446.081 710.695 446.243 711.295 446.243 711.979C446.243 712.507 446.165 712.999 446.009 713.455C445.853 713.899 445.625 714.337 445.325 714.769C445.025 715.201 444.659 715.639 444.227 716.083C443.795 716.527 443.309 717.007 442.769 717.523L440.735 719.485V719.593H446.675V721.555ZM456.975 721.555H448.173V719.881L451.449 716.569C452.097 715.909 452.625 715.345 453.033 714.877C453.453 714.397 453.759 713.953 453.951 713.545C454.155 713.137 454.257 712.693 454.257 712.213C454.257 711.625 454.089 711.187 453.753 710.899C453.417 710.599 452.973 710.449 452.421 710.449C451.881 710.449 451.377 710.563 450.909 710.791C450.441 711.007 449.955 711.319 449.451 711.727L448.209 710.233C448.569 709.921 448.953 709.639 449.361 709.387C449.769 709.123 450.231 708.913 450.747 708.757C451.263 708.601 451.863 708.523 452.547 708.523C453.375 708.523 454.083 708.673 454.671 708.973C455.271 709.261 455.733 709.663 456.057 710.179C456.381 710.695 456.543 711.295 456.543 711.979C456.543 712.507 456.465 712.999 456.309 713.455C456.153 713.899 455.925 714.337 455.625 714.769C455.325 715.201 454.959 715.639 454.527 716.083C454.095 716.527 453.609 717.007 453.069 717.523L451.035 719.485V719.593H456.975V721.555Z" fill="#005B71"/>
<path d="M407.432 749.467C407.432 750.149 407.266 750.731 406.936 751.211C406.605 751.691 406.13 752.064 405.512 752.331C404.893 752.587 404.157 752.715 403.304 752.715C402.888 752.715 402.488 752.688 402.104 752.635C401.72 752.592 401.362 752.528 401.032 752.443C400.701 752.357 400.408 752.251 400.152 752.123V750.491C400.578 750.683 401.08 750.859 401.656 751.019C402.232 751.168 402.818 751.243 403.416 751.243C403.928 751.243 404.354 751.173 404.696 751.035C405.037 750.896 405.293 750.704 405.464 750.459C405.634 750.213 405.72 749.925 405.72 749.595C405.72 749.243 405.629 748.949 405.448 748.715C405.277 748.469 405.005 748.245 404.632 748.043C404.269 747.829 403.778 747.605 403.16 747.371C402.733 747.211 402.344 747.035 401.992 746.843C401.65 746.64 401.346 746.405 401.08 746.139C400.824 745.872 400.626 745.563 400.488 745.211C400.349 744.859 400.28 744.448 400.28 743.979C400.28 743.349 400.434 742.811 400.744 742.363C401.064 741.915 401.501 741.573 402.056 741.339C402.61 741.093 403.256 740.971 403.992 740.971C404.61 740.971 405.181 741.035 405.704 741.163C406.237 741.28 406.744 741.445 407.224 741.659L406.68 743.083C406.242 742.901 405.8 742.752 405.352 742.635C404.904 742.517 404.434 742.459 403.944 742.459C403.517 742.459 403.16 742.523 402.872 742.651C402.584 742.779 402.365 742.955 402.216 743.179C402.077 743.403 402.008 743.664 402.008 743.963C402.008 744.315 402.088 744.608 402.248 744.843C402.408 745.077 402.664 745.296 403.016 745.499C403.368 745.691 403.832 745.904 404.408 746.139C405.048 746.384 405.592 746.651 406.04 746.939C406.498 747.227 406.845 747.573 407.08 747.979C407.314 748.373 407.432 748.869 407.432 749.467ZM413.508 752.555H411.78V742.619H408.356V741.131H416.932V742.619H413.508V752.555ZM424.679 752.555L423.463 749.259H419.047L417.831 752.555H416.039L420.375 741.083H422.167L426.487 752.555H424.679ZM421.831 744.539C421.799 744.421 421.74 744.245 421.655 744.011C421.58 743.765 421.506 743.52 421.431 743.275C421.356 743.019 421.298 742.811 421.255 742.651C421.202 742.864 421.138 743.099 421.063 743.355C420.999 743.6 420.935 743.829 420.871 744.043C420.807 744.245 420.754 744.411 420.711 744.539L419.559 747.755H422.983L421.831 744.539ZM431.228 741.131C432.209 741.131 433.014 741.253 433.644 741.499C434.273 741.744 434.742 742.112 435.052 742.603C435.361 743.083 435.516 743.691 435.516 744.427C435.516 745.013 435.404 745.509 435.18 745.915C434.966 746.309 434.689 746.635 434.348 746.891C434.006 747.136 433.649 747.333 433.276 747.483L436.476 752.555H434.492L431.74 747.931H429.756V752.555H428.028V741.131H431.228ZM431.116 742.603H429.756V746.491H431.196C431.782 746.491 432.262 746.416 432.636 746.267C433.02 746.117 433.297 745.893 433.468 745.595C433.649 745.296 433.74 744.928 433.74 744.491C433.74 744.032 433.644 743.669 433.452 743.403C433.27 743.125 432.982 742.923 432.588 742.795C432.204 742.667 431.713 742.603 431.116 742.603ZM441.993 752.555H440.265V742.619H436.841V741.131H445.417V742.619H441.993V752.555Z" fill="#01284E"/>
<g filter="url(#filter4_f_930_756)">
<circle cx="422.5" cy="781.055" r="5.96976" stroke="#005B71" stroke-opacity="0.8" stroke-width="1.125"/>
</g>
<g filter="url(#filter5_f_930_756)">
<circle cx="422.282" cy="780.836" r="9.23589" stroke="#005B71" stroke-opacity="0.6" stroke-width="1.125"/>
</g>
<g filter="url(#filter6_f_930_756)">
<circle cx="422.5" cy="781.055" r="12.9375" stroke="#005B71" stroke-opacity="0.4" stroke-width="1.125"/>
</g>
<path d="M423.368 777.571L423.058 780.544L426.031 779.708L426.248 781.133L423.399 781.365L425.241 783.811L423.91 784.539L422.593 781.829L421.401 784.539L420.023 783.811L421.835 781.365L419.017 781.133L419.233 779.708L422.175 780.544L421.85 777.571H423.368Z" fill="#005B71"/>
<path d="M215.595 1037.13C216.576 1037.13 217.382 1037.25 218.011 1037.5C218.64 1037.74 219.11 1038.11 219.419 1038.6C219.728 1039.08 219.883 1039.69 219.883 1040.43C219.883 1041.01 219.771 1041.51 219.547 1041.91C219.334 1042.31 219.056 1042.63 218.715 1042.89C218.374 1043.14 218.016 1043.33 217.643 1043.48L220.843 1048.55H218.859L216.107 1043.93H214.123V1048.55H212.395V1037.13H215.595ZM215.483 1038.6H214.123V1042.49H215.563C216.15 1042.49 216.63 1042.42 217.003 1042.27C217.387 1042.12 217.664 1041.89 217.835 1041.59C218.016 1041.3 218.107 1040.93 218.107 1040.49C218.107 1040.03 218.011 1039.67 217.819 1039.4C217.638 1039.13 217.35 1038.92 216.955 1038.79C216.571 1038.67 216.08 1038.6 215.483 1038.6ZM228.952 1048.55H222.52V1037.13H228.952V1038.6H224.248V1041.87H228.664V1043.32H224.248V1047.07H228.952V1048.55ZM237.986 1045.47C237.986 1046.15 237.821 1046.73 237.49 1047.21C237.16 1047.69 236.685 1048.06 236.066 1048.33C235.448 1048.59 234.712 1048.71 233.858 1048.71C233.442 1048.71 233.042 1048.69 232.658 1048.63C232.274 1048.59 231.917 1048.53 231.586 1048.44C231.256 1048.36 230.962 1048.25 230.706 1048.12V1046.49C231.133 1046.68 231.634 1046.86 232.21 1047.02C232.786 1047.17 233.373 1047.24 233.97 1047.24C234.482 1047.24 234.909 1047.17 235.25 1047.03C235.592 1046.9 235.848 1046.7 236.018 1046.46C236.189 1046.21 236.274 1045.93 236.274 1045.59C236.274 1045.24 236.184 1044.95 236.002 1044.71C235.832 1044.47 235.56 1044.25 235.186 1044.04C234.824 1043.83 234.333 1043.61 233.714 1043.37C233.288 1043.21 232.898 1043.03 232.546 1042.84C232.205 1042.64 231.901 1042.41 231.634 1042.14C231.378 1041.87 231.181 1041.56 231.042 1041.21C230.904 1040.86 230.834 1040.45 230.834 1039.98C230.834 1039.35 230.989 1038.81 231.298 1038.36C231.618 1037.91 232.056 1037.57 232.61 1037.34C233.165 1037.09 233.81 1036.97 234.546 1036.97C235.165 1036.97 235.736 1037.03 236.258 1037.16C236.792 1037.28 237.298 1037.45 237.778 1037.66L237.234 1039.08C236.797 1038.9 236.354 1038.75 235.906 1038.63C235.458 1038.52 234.989 1038.46 234.498 1038.46C234.072 1038.46 233.714 1038.52 233.426 1038.65C233.138 1038.78 232.92 1038.95 232.77 1039.18C232.632 1039.4 232.562 1039.66 232.562 1039.96C232.562 1040.31 232.642 1040.61 232.802 1040.84C232.962 1041.08 233.218 1041.3 233.57 1041.5C233.922 1041.69 234.386 1041.9 234.962 1042.14C235.602 1042.38 236.146 1042.65 236.594 1042.94C237.053 1043.23 237.4 1043.57 237.634 1043.98C237.869 1044.37 237.986 1044.87 237.986 1045.47ZM246.655 1048.55H240.223V1037.13H246.655V1038.6H241.951V1041.87H246.367V1043.32H241.951V1047.07H246.655V1048.55ZM256.249 1048.55L255.033 1045.26H250.617L249.401 1048.55H247.609L251.945 1037.08H253.737L258.057 1048.55H256.249ZM253.401 1040.54C253.369 1040.42 253.311 1040.25 253.225 1040.01C253.151 1039.77 253.076 1039.52 253.001 1039.27C252.927 1039.02 252.868 1038.81 252.825 1038.65C252.772 1038.86 252.708 1039.1 252.633 1039.35C252.569 1039.6 252.505 1039.83 252.441 1040.04C252.377 1040.25 252.324 1040.41 252.281 1040.54L251.129 1043.75H254.553L253.401 1040.54ZM262.798 1037.13C263.779 1037.13 264.585 1037.25 265.214 1037.5C265.843 1037.74 266.313 1038.11 266.622 1038.6C266.931 1039.08 267.086 1039.69 267.086 1040.43C267.086 1041.01 266.974 1041.51 266.75 1041.91C266.537 1042.31 266.259 1042.63 265.918 1042.89C265.577 1043.14 265.219 1043.33 264.846 1043.48L268.046 1048.55H266.062L263.31 1043.93H261.326V1048.55H259.598V1037.13H262.798ZM262.686 1038.6H261.326V1042.49H262.766C263.353 1042.49 263.833 1042.42 264.206 1042.27C264.59 1042.12 264.867 1041.89 265.038 1041.59C265.219 1041.3 265.31 1040.93 265.31 1040.49C265.31 1040.03 265.214 1039.67 265.022 1039.4C264.841 1039.13 264.553 1038.92 264.158 1038.79C263.774 1038.67 263.283 1038.6 262.686 1038.6ZM274.603 1038.46C274.038 1038.46 273.531 1038.56 273.083 1038.76C272.635 1038.95 272.251 1039.24 271.931 1039.63C271.622 1040.01 271.382 1040.47 271.211 1041.02C271.051 1041.56 270.971 1042.18 270.971 1042.86C270.971 1043.75 271.104 1044.53 271.371 1045.19C271.638 1045.85 272.038 1046.35 272.571 1046.7C273.104 1047.05 273.776 1047.23 274.587 1047.23C275.078 1047.23 275.547 1047.18 275.995 1047.1C276.454 1047 276.918 1046.88 277.387 1046.73V1048.22C276.939 1048.39 276.48 1048.51 276.011 1048.59C275.542 1048.67 274.998 1048.71 274.379 1048.71C273.216 1048.71 272.246 1048.47 271.467 1047.99C270.699 1047.51 270.123 1046.83 269.739 1045.95C269.355 1045.06 269.163 1044.03 269.163 1042.84C269.163 1041.98 269.28 1041.19 269.515 1040.47C269.76 1039.75 270.112 1039.13 270.571 1038.6C271.03 1038.08 271.595 1037.68 272.267 1037.4C272.95 1037.11 273.734 1036.97 274.619 1036.97C275.195 1036.97 275.76 1037.03 276.315 1037.16C276.87 1037.28 277.371 1037.45 277.819 1037.67L277.179 1039.11C276.806 1038.94 276.4 1038.79 275.963 1038.67C275.536 1038.53 275.083 1038.46 274.603 1038.46ZM288.76 1048.55H287.032V1043.34H281.576V1048.55H279.848V1037.13H281.576V1041.87H287.032V1037.13H288.76V1048.55ZM298.249 1048.55H291.817V1037.13H298.249V1038.6H293.545V1041.87H297.961V1043.32H293.545V1047.07H298.249V1048.55ZM303.923 1037.13C304.904 1037.13 305.71 1037.25 306.339 1037.5C306.968 1037.74 307.438 1038.11 307.747 1038.6C308.056 1039.08 308.211 1039.69 308.211 1040.43C308.211 1041.01 308.099 1041.51 307.875 1041.91C307.662 1042.31 307.384 1042.63 307.043 1042.89C306.702 1043.14 306.344 1043.33 305.971 1043.48L309.171 1048.55H307.187L304.435 1043.93H302.451V1048.55H300.723V1037.13H303.923ZM303.811 1038.6H302.451V1042.49H303.891C304.478 1042.49 304.958 1042.42 305.331 1042.27C305.715 1042.12 305.992 1041.89 306.163 1041.59C306.344 1041.3 306.435 1040.93 306.435 1040.49C306.435 1040.03 306.339 1039.67 306.147 1039.4C305.966 1039.13 305.678 1038.92 305.283 1038.79C304.899 1038.67 304.408 1038.6 303.811 1038.6ZM317.408 1045.47C317.408 1046.15 317.243 1046.73 316.912 1047.21C316.581 1047.69 316.107 1048.06 315.488 1048.33C314.869 1048.59 314.133 1048.71 313.28 1048.71C312.864 1048.71 312.464 1048.69 312.08 1048.63C311.696 1048.59 311.339 1048.53 311.008 1048.44C310.677 1048.36 310.384 1048.25 310.128 1048.12V1046.49C310.555 1046.68 311.056 1046.86 311.632 1047.02C312.208 1047.17 312.795 1047.24 313.392 1047.24C313.904 1047.24 314.331 1047.17 314.672 1047.03C315.013 1046.9 315.269 1046.7 315.44 1046.46C315.611 1046.21 315.696 1045.93 315.696 1045.59C315.696 1045.24 315.605 1044.95 315.424 1044.71C315.253 1044.47 314.981 1044.25 314.608 1044.04C314.245 1043.83 313.755 1043.61 313.136 1043.37C312.709 1043.21 312.32 1043.03 311.968 1042.84C311.627 1042.64 311.323 1042.41 311.056 1042.14C310.8 1041.87 310.603 1041.56 310.464 1041.21C310.325 1040.86 310.256 1040.45 310.256 1039.98C310.256 1039.35 310.411 1038.81 310.72 1038.36C311.04 1037.91 311.477 1037.57 312.032 1037.34C312.587 1037.09 313.232 1036.97 313.968 1036.97C314.587 1036.97 315.157 1037.03 315.68 1037.16C316.213 1037.28 316.72 1037.45 317.2 1037.66L316.656 1039.08C316.219 1038.9 315.776 1038.75 315.328 1038.63C314.88 1038.52 314.411 1038.46 313.92 1038.46C313.493 1038.46 313.136 1038.52 312.848 1038.65C312.56 1038.78 312.341 1038.95 312.192 1039.18C312.053 1039.4 311.984 1039.66 311.984 1039.96C311.984 1040.31 312.064 1040.61 312.224 1040.84C312.384 1041.08 312.64 1041.3 312.992 1041.5C313.344 1041.69 313.808 1041.9 314.384 1042.14C315.024 1042.38 315.568 1042.65 316.016 1042.94C316.475 1043.23 316.821 1043.57 317.056 1043.98C317.291 1044.37 317.408 1044.87 317.408 1045.47ZM221.217 1062.83C221.217 1063.71 221.105 1064.52 220.881 1065.24C220.668 1065.96 220.337 1066.58 219.889 1067.1C219.452 1067.62 218.897 1068.02 218.225 1068.3C217.564 1068.58 216.791 1068.71 215.905 1068.71C214.999 1068.71 214.209 1068.58 213.537 1068.3C212.876 1068.01 212.321 1067.61 211.873 1067.1C211.436 1066.58 211.111 1065.95 210.897 1065.23C210.684 1064.5 210.577 1063.7 210.577 1062.81C210.577 1061.64 210.769 1060.61 211.153 1059.74C211.537 1058.86 212.124 1058.18 212.913 1057.69C213.713 1057.2 214.716 1056.95 215.921 1056.95C217.095 1056.95 218.071 1057.2 218.849 1057.69C219.639 1058.17 220.231 1058.85 220.625 1059.74C221.02 1060.61 221.217 1061.64 221.217 1062.83ZM212.401 1062.83C212.401 1063.74 212.524 1064.53 212.769 1065.19C213.015 1065.85 213.399 1066.35 213.921 1066.71C214.444 1067.07 215.105 1067.24 215.905 1067.24C216.716 1067.24 217.377 1067.07 217.889 1066.71C218.401 1066.35 218.78 1065.85 219.025 1065.19C219.271 1064.53 219.393 1063.74 219.393 1062.83C219.393 1061.45 219.116 1060.38 218.561 1059.61C218.017 1058.83 217.137 1058.44 215.921 1058.44C215.111 1058.44 214.444 1058.62 213.921 1058.97C213.399 1059.32 213.015 1059.82 212.769 1060.47C212.524 1061.13 212.401 1061.91 212.401 1062.83ZM233.076 1068.55H230.98L225.204 1059.32H225.14C225.15 1059.54 225.161 1059.77 225.172 1060.01C225.193 1060.26 225.209 1060.52 225.22 1060.79C225.23 1061.06 225.241 1061.34 225.252 1061.63C225.262 1061.9 225.268 1062.19 225.268 1062.47V1068.55H223.7V1057.13H225.78L231.54 1066.31H231.588C231.577 1066.15 231.566 1065.96 231.556 1065.72C231.545 1065.48 231.534 1065.22 231.524 1064.94C231.524 1064.66 231.518 1064.38 231.508 1064.09C231.497 1063.8 231.486 1063.53 231.476 1063.27V1057.13H233.076V1068.55ZM239.466 1057.13C240.436 1057.13 241.247 1057.22 241.898 1057.4C242.559 1057.58 243.055 1057.89 243.386 1058.31C243.727 1058.73 243.898 1059.29 243.898 1059.98C243.898 1060.43 243.818 1060.83 243.658 1061.18C243.498 1061.52 243.263 1061.81 242.954 1062.04C242.655 1062.27 242.282 1062.42 241.834 1062.49V1062.57C242.292 1062.65 242.703 1062.78 243.066 1062.99C243.428 1063.18 243.716 1063.46 243.93 1063.83C244.143 1064.21 244.25 1064.69 244.25 1065.29C244.25 1065.98 244.084 1066.58 243.754 1067.07C243.434 1067.55 242.97 1067.91 242.362 1068.17C241.764 1068.43 241.05 1068.55 240.218 1068.55H236.122V1057.13H239.466ZM239.754 1061.9C240.65 1061.9 241.263 1061.75 241.594 1061.47C241.935 1061.18 242.106 1060.75 242.106 1060.19C242.106 1059.61 241.903 1059.2 241.498 1058.95C241.092 1058.71 240.447 1058.59 239.562 1058.59H237.85V1061.9H239.754ZM237.85 1063.31V1067.11H239.946C240.874 1067.11 241.519 1066.93 241.882 1066.57C242.244 1066.21 242.426 1065.73 242.426 1065.13C242.426 1064.77 242.346 1064.45 242.186 1064.17C242.026 1063.89 241.754 1063.68 241.37 1063.53C240.996 1063.38 240.484 1063.31 239.834 1063.31H237.85ZM256.702 1062.83C256.702 1063.71 256.59 1064.52 256.366 1065.24C256.152 1065.96 255.822 1066.58 255.374 1067.1C254.936 1067.62 254.382 1068.02 253.71 1068.3C253.048 1068.58 252.275 1068.71 251.39 1068.71C250.483 1068.71 249.694 1068.58 249.022 1068.3C248.36 1068.01 247.806 1067.61 247.358 1067.1C246.92 1066.58 246.595 1065.95 246.382 1065.23C246.168 1064.5 246.062 1063.7 246.062 1062.81C246.062 1061.64 246.254 1060.61 246.638 1059.74C247.022 1058.86 247.608 1058.18 248.398 1057.69C249.198 1057.2 250.2 1056.95 251.406 1056.95C252.579 1056.95 253.555 1057.2 254.334 1057.69C255.123 1058.17 255.715 1058.85 256.11 1059.74C256.504 1060.61 256.702 1061.64 256.702 1062.83ZM247.886 1062.83C247.886 1063.74 248.008 1064.53 248.254 1065.19C248.499 1065.85 248.883 1066.35 249.406 1066.71C249.928 1067.07 250.59 1067.24 251.39 1067.24C252.2 1067.24 252.862 1067.07 253.374 1066.71C253.886 1066.35 254.264 1065.85 254.51 1065.19C254.755 1064.53 254.878 1063.74 254.878 1062.83C254.878 1061.45 254.6 1060.38 254.046 1059.61C253.502 1058.83 252.622 1058.44 251.406 1058.44C250.595 1058.44 249.928 1058.62 249.406 1058.97C248.883 1059.32 248.499 1059.82 248.254 1060.47C248.008 1061.13 247.886 1061.91 247.886 1062.83ZM265.992 1068.55L264.776 1065.26H260.36L259.144 1068.55H257.352L261.688 1057.08H263.48L267.8 1068.55H265.992ZM263.144 1060.54C263.112 1060.42 263.053 1060.25 262.968 1060.01C262.893 1059.77 262.818 1059.52 262.744 1059.27C262.669 1059.02 262.61 1058.81 262.568 1058.65C262.514 1058.86 262.45 1059.1 262.376 1059.35C262.312 1059.6 262.248 1059.83 262.184 1060.04C262.12 1060.25 262.066 1060.41 262.024 1060.54L260.872 1063.75H264.296L263.144 1060.54ZM272.54 1057.13C273.522 1057.13 274.327 1057.25 274.956 1057.5C275.586 1057.74 276.055 1058.11 276.364 1058.6C276.674 1059.08 276.828 1059.69 276.828 1060.43C276.828 1061.01 276.716 1061.51 276.492 1061.91C276.279 1062.31 276.002 1062.63 275.66 1062.89C275.319 1063.14 274.962 1063.33 274.588 1063.48L277.788 1068.55H275.804L273.052 1063.93H271.068V1068.55H269.34V1057.13H272.54ZM272.428 1058.6H271.068V1062.49H272.508C273.095 1062.49 273.575 1062.42 273.948 1062.27C274.332 1062.12 274.61 1061.89 274.78 1061.59C274.962 1061.3 275.052 1060.93 275.052 1060.49C275.052 1060.03 274.956 1059.67 274.764 1059.4C274.583 1059.13 274.295 1058.92 273.9 1058.79C273.516 1058.67 273.026 1058.6 272.428 1058.6ZM288.713 1062.73C288.713 1064.01 288.473 1065.08 287.993 1065.95C287.513 1066.81 286.82 1067.46 285.913 1067.9C285.017 1068.34 283.935 1068.55 282.665 1068.55H279.465V1057.13H283.001C284.164 1057.13 285.172 1057.34 286.025 1057.77C286.879 1058.2 287.54 1058.83 288.009 1059.66C288.479 1060.48 288.713 1061.5 288.713 1062.73ZM286.905 1062.78C286.905 1061.82 286.751 1061.03 286.441 1060.41C286.132 1059.79 285.673 1059.33 285.065 1059.03C284.468 1058.74 283.743 1058.59 282.889 1058.59H281.193V1067.1H282.585C284.025 1067.1 285.103 1066.74 285.817 1066.01C286.543 1065.29 286.905 1064.21 286.905 1062.78ZM294.72 1068.55H290.288V1067.56L291.648 1067.16V1058.54L290.288 1058.12V1057.13H294.72V1058.12L293.376 1058.54V1067.16L294.72 1067.56V1068.55ZM306.232 1068.55H304.136L298.36 1059.32H298.296C298.307 1059.54 298.317 1059.77 298.328 1060.01C298.349 1060.26 298.365 1060.52 298.376 1060.79C298.387 1061.06 298.397 1061.34 298.408 1061.63C298.419 1061.9 298.424 1062.19 298.424 1062.47V1068.55H296.856V1057.13H298.936L304.696 1066.31H304.744C304.733 1066.15 304.723 1065.96 304.712 1065.72C304.701 1065.48 304.691 1065.22 304.68 1064.94C304.68 1064.66 304.675 1064.38 304.664 1064.09C304.653 1063.8 304.643 1063.53 304.632 1063.27V1057.13H306.232V1068.55ZM314.046 1062.41H318.174V1068.11C317.566 1068.31 316.942 1068.46 316.302 1068.55C315.672 1068.66 314.952 1068.71 314.142 1068.71C312.979 1068.71 311.992 1068.48 311.182 1068.01C310.382 1067.54 309.768 1066.87 309.342 1065.99C308.926 1065.12 308.718 1064.07 308.718 1062.84C308.718 1061.65 308.952 1060.61 309.422 1059.74C309.891 1058.86 310.563 1058.19 311.438 1057.71C312.323 1057.22 313.395 1056.97 314.654 1056.97C315.283 1056.97 315.886 1057.03 316.462 1057.16C317.038 1057.28 317.571 1057.45 318.062 1057.66L317.438 1059.1C317.043 1058.92 316.6 1058.77 316.11 1058.65C315.63 1058.52 315.123 1058.46 314.59 1058.46C313.747 1058.46 313.016 1058.64 312.398 1059C311.79 1059.35 311.32 1059.86 310.99 1060.52C310.67 1061.17 310.51 1061.95 310.51 1062.86C310.51 1063.71 310.643 1064.47 310.91 1065.13C311.176 1065.79 311.598 1066.31 312.174 1066.68C312.75 1067.06 313.502 1067.24 314.43 1067.24C314.739 1067.24 315.011 1067.23 315.246 1067.21C315.48 1067.18 315.694 1067.15 315.886 1067.11C316.088 1067.07 316.28 1067.03 316.462 1067V1063.9H314.046V1062.41Z" fill="#01284E"/>
<g filter="url(#filter7_f_930_756)">
<circle cx="264.5" cy="1098.05" r="5.96976" stroke="#0088A9" stroke-opacity="0.8" stroke-width="1.125"/>
</g>
<g filter="url(#filter8_f_930_756)">
<circle cx="264.282" cy="1097.84" r="9.23589" stroke="#0088A9" stroke-opacity="0.6" stroke-width="1.125"/>
</g>
<g filter="url(#filter9_f_930_756)">
<circle cx="264.5" cy="1098.05" r="12.9375" stroke="#0088A9" stroke-opacity="0.4" stroke-width="1.125"/>
</g>
<path d="M265.368 1094.57L265.058 1097.54L268.031 1096.71L268.248 1098.13L265.399 1098.36L267.241 1100.81L265.91 1101.54L264.593 1098.83L263.401 1101.54L262.023 1100.81L263.835 1098.36L261.017 1098.13L261.233 1096.71L264.175 1097.54L263.85 1094.57H265.368Z" fill="#0088A9"/>
<path d="M474.958 901.111C474.958 902.107 474.832 903.013 474.58 903.829C474.34 904.633 473.968 905.329 473.464 905.917C472.972 906.505 472.342 906.949 471.574 907.249L474.67 910.615H471.61L469.216 907.735C469.168 907.735 469.114 907.735 469.054 907.735C469.006 907.735 468.958 907.735 468.91 907.735C467.878 907.735 466.978 907.579 466.21 907.267C465.454 906.943 464.83 906.493 464.338 905.917C463.846 905.329 463.474 904.627 463.222 903.811C462.982 902.995 462.862 902.089 462.862 901.093C462.862 899.761 463.078 898.603 463.51 897.619C463.954 896.635 464.62 895.873 465.508 895.333C466.408 894.781 467.548 894.505 468.928 894.505C470.284 894.505 471.406 894.781 472.294 895.333C473.182 895.873 473.848 896.641 474.292 897.637C474.736 898.621 474.958 899.779 474.958 901.111ZM465.292 901.111C465.292 902.083 465.418 902.917 465.67 903.613C465.934 904.309 466.33 904.843 466.858 905.215C467.398 905.587 468.082 905.773 468.91 905.773C469.762 905.773 470.452 905.587 470.98 905.215C471.508 904.843 471.898 904.309 472.15 903.613C472.402 902.917 472.528 902.083 472.528 901.111C472.528 899.659 472.246 898.519 471.682 897.691C471.118 896.863 470.2 896.449 468.928 896.449C468.088 896.449 467.398 896.635 466.858 897.007C466.33 897.379 465.934 897.913 465.67 898.609C465.418 899.305 465.292 900.139 465.292 901.111ZM485.093 897.637C485.093 898.213 484.973 898.717 484.733 899.149C484.505 899.581 484.187 899.935 483.779 900.211C483.371 900.475 482.897 900.667 482.357 900.787V900.841C483.389 900.961 484.169 901.279 484.697 901.795C485.225 902.311 485.489 902.995 485.489 903.847C485.489 904.591 485.309 905.257 484.949 905.845C484.589 906.433 484.031 906.895 483.275 907.231C482.531 907.567 481.571 907.735 480.395 907.735C479.699 907.735 479.051 907.675 478.451 907.555C477.851 907.447 477.287 907.273 476.759 907.033V905.035C477.299 905.311 477.875 905.521 478.487 905.665C479.099 905.809 479.675 905.881 480.215 905.881C481.259 905.881 481.997 905.695 482.429 905.323C482.861 904.939 483.077 904.411 483.077 903.739C483.077 903.307 482.969 902.953 482.753 902.677C482.537 902.401 482.183 902.197 481.691 902.065C481.211 901.921 480.581 901.849 479.801 901.849H478.721V900.031H479.819C480.575 900.031 481.169 899.947 481.601 899.779C482.045 899.611 482.357 899.377 482.537 899.077C482.729 898.777 482.825 898.429 482.825 898.033C482.825 897.517 482.657 897.115 482.321 896.827C481.985 896.539 481.481 896.395 480.809 896.395C480.377 896.395 479.987 896.443 479.639 896.539C479.291 896.635 478.973 896.761 478.685 896.917C478.397 897.061 478.127 897.217 477.875 897.385L476.795 895.819C477.119 895.579 477.485 895.363 477.893 895.171C478.301 894.967 478.757 894.811 479.261 894.703C479.765 894.583 480.317 894.523 480.917 894.523C482.249 894.523 483.275 894.805 483.995 895.369C484.727 895.921 485.093 896.677 485.093 897.637ZM500.573 907.555H491.771V905.881L495.047 902.569C495.695 901.909 496.223 901.345 496.631 900.877C497.051 900.397 497.357 899.953 497.549 899.545C497.753 899.137 497.855 898.693 497.855 898.213C497.855 897.625 497.687 897.187 497.351 896.899C497.015 896.599 496.571 896.449 496.019 896.449C495.479 896.449 494.975 896.563 494.507 896.791C494.039 897.007 493.553 897.319 493.049 897.727L491.807 896.233C492.167 895.921 492.551 895.639 492.959 895.387C493.367 895.123 493.829 894.913 494.345 894.757C494.861 894.601 495.461 894.523 496.145 894.523C496.973 894.523 497.681 894.673 498.269 894.973C498.869 895.261 499.331 895.663 499.655 896.179C499.979 896.695 500.141 897.295 500.141 897.979C500.141 898.507 500.063 898.999 499.907 899.455C499.751 899.899 499.523 900.337 499.223 900.769C498.923 901.201 498.557 901.639 498.125 902.083C497.693 902.527 497.207 903.007 496.667 903.523L494.633 905.485V905.593H500.573V907.555ZM510.838 901.111C510.838 902.155 510.76 903.085 510.604 903.901C510.448 904.717 510.19 905.413 509.83 905.989C509.482 906.553 509.026 906.985 508.462 907.285C507.91 907.585 507.232 907.735 506.428 907.735C505.42 907.735 504.592 907.471 503.944 906.943C503.296 906.415 502.816 905.659 502.504 904.675C502.192 903.679 502.036 902.491 502.036 901.111C502.036 899.731 502.18 898.549 502.468 897.565C502.756 896.581 503.218 895.825 503.854 895.297C504.502 894.769 505.36 894.505 506.428 894.505C507.436 894.505 508.264 894.769 508.912 895.297C509.56 895.813 510.04 896.569 510.352 897.565C510.676 898.549 510.838 899.731 510.838 901.111ZM504.322 901.129C504.322 902.173 504.388 903.049 504.52 903.757C504.652 904.453 504.868 904.981 505.168 905.341C505.48 905.689 505.9 905.863 506.428 905.863C506.956 905.863 507.37 905.689 507.67 905.341C507.982 904.993 508.204 904.465 508.336 903.757C508.48 903.049 508.552 902.173 508.552 901.129C508.552 900.073 508.48 899.197 508.336 898.501C508.204 897.793 507.982 897.265 507.67 896.917C507.37 896.557 506.956 896.377 506.428 896.377C505.9 896.377 505.48 896.557 505.168 896.917C504.868 897.265 504.652 897.787 504.52 898.483C504.388 899.179 504.322 900.061 504.322 901.129ZM521.175 907.555H512.373V905.881L515.649 902.569C516.297 901.909 516.825 901.345 517.233 900.877C517.653 900.397 517.959 899.953 518.151 899.545C518.355 899.137 518.457 898.693 518.457 898.213C518.457 897.625 518.289 897.187 517.953 896.899C517.617 896.599 517.173 896.449 516.621 896.449C516.081 896.449 515.577 896.563 515.109 896.791C514.641 897.007 514.155 897.319 513.651 897.727L512.409 896.233C512.769 895.921 513.153 895.639 513.561 895.387C513.969 895.123 514.431 894.913 514.947 894.757C515.463 894.601 516.063 894.523 516.747 894.523C517.575 894.523 518.283 894.673 518.871 894.973C519.471 895.261 519.933 895.663 520.257 896.179C520.581 896.695 520.743 897.295 520.743 897.979C520.743 898.507 520.665 898.999 520.509 899.455C520.353 899.899 520.125 900.337 519.825 900.769C519.525 901.201 519.159 901.639 518.727 902.083C518.295 902.527 517.809 903.007 517.269 903.523L515.235 905.485V905.593H521.175V907.555ZM530.971 897.637C530.971 898.213 530.851 898.717 530.611 899.149C530.383 899.581 530.065 899.935 529.657 900.211C529.249 900.475 528.775 900.667 528.235 900.787V900.841C529.267 900.961 530.047 901.279 530.575 901.795C531.103 902.311 531.367 902.995 531.367 903.847C531.367 904.591 531.187 905.257 530.827 905.845C530.467 906.433 529.909 906.895 529.153 907.231C528.409 907.567 527.449 907.735 526.273 907.735C525.577 907.735 524.929 907.675 524.329 907.555C523.729 907.447 523.165 907.273 522.637 907.033V905.035C523.177 905.311 523.753 905.521 524.365 905.665C524.977 905.809 525.553 905.881 526.093 905.881C527.137 905.881 527.875 905.695 528.307 905.323C528.739 904.939 528.955 904.411 528.955 903.739C528.955 903.307 528.847 902.953 528.631 902.677C528.415 902.401 528.061 902.197 527.569 902.065C527.089 901.921 526.459 901.849 525.679 901.849H524.599V900.031H525.697C526.453 900.031 527.047 899.947 527.479 899.779C527.923 899.611 528.235 899.377 528.415 899.077C528.607 898.777 528.703 898.429 528.703 898.033C528.703 897.517 528.535 897.115 528.199 896.827C527.863 896.539 527.359 896.395 526.687 896.395C526.255 896.395 525.865 896.443 525.517 896.539C525.169 896.635 524.851 896.761 524.563 896.917C524.275 897.061 524.005 897.217 523.753 897.385L522.673 895.819C522.997 895.579 523.363 895.363 523.771 895.171C524.179 894.967 524.635 894.811 525.139 894.703C525.643 894.583 526.195 894.523 526.795 894.523C528.127 894.523 529.153 894.805 529.873 895.369C530.605 895.921 530.971 896.677 530.971 897.637Z" fill="#005B71"/>
<path d="M457.394 939.555L453.938 929.843H453.874C453.885 930.056 453.901 930.344 453.922 930.707C453.944 931.069 453.96 931.459 453.97 931.875C453.981 932.291 453.986 932.701 453.986 933.107V939.555H452.418V928.131H454.882L458.162 937.299H458.226L461.602 928.131H464.066V939.555H462.386V933.011C462.386 932.637 462.392 932.253 462.402 931.859C462.424 931.453 462.44 931.075 462.45 930.723C462.472 930.371 462.488 930.083 462.498 929.859H462.434L458.882 939.555H457.394ZM475.426 928.131L471.394 939.555H469.602L465.586 928.131H467.362L469.81 935.299C469.906 935.555 469.997 935.832 470.082 936.131C470.167 936.419 470.247 936.707 470.322 936.995C470.397 937.283 470.455 937.555 470.498 937.811C470.551 937.555 470.61 937.283 470.674 936.995C470.749 936.707 470.829 936.413 470.914 936.115C471.01 935.816 471.101 935.539 471.186 935.283L473.634 928.131H475.426ZM480.15 928.131C481.643 928.131 482.731 928.435 483.414 929.043C484.096 929.64 484.438 930.477 484.438 931.555C484.438 932.035 484.358 932.493 484.198 932.931C484.048 933.368 483.798 933.763 483.446 934.115C483.094 934.456 482.624 934.728 482.038 934.931C481.462 935.123 480.752 935.219 479.91 935.219H478.678V939.555H476.95V928.131H480.15ZM480.022 929.587H478.678V933.763H479.718C480.368 933.763 480.912 933.693 481.35 933.555C481.787 933.405 482.112 933.176 482.326 932.867C482.55 932.547 482.662 932.131 482.662 931.619C482.662 930.936 482.448 930.429 482.022 930.099C481.606 929.757 480.939 929.587 480.022 929.587ZM494.247 928.131C495.217 928.131 496.028 928.221 496.679 928.403C497.34 928.584 497.836 928.888 498.167 929.315C498.508 929.731 498.679 930.285 498.679 930.979C498.679 931.427 498.599 931.827 498.439 932.179C498.279 932.52 498.044 932.808 497.735 933.043C497.436 933.267 497.063 933.416 496.615 933.491V933.571C497.073 933.645 497.484 933.784 497.847 933.987C498.209 934.179 498.497 934.461 498.711 934.835C498.924 935.208 499.031 935.693 499.031 936.291C499.031 936.984 498.865 937.576 498.535 938.067C498.215 938.547 497.751 938.915 497.143 939.171C496.545 939.427 495.831 939.555 494.999 939.555H490.903V928.131H494.247ZM494.535 932.899C495.431 932.899 496.044 932.755 496.375 932.467C496.716 932.179 496.887 931.752 496.887 931.187C496.887 930.611 496.684 930.2 496.279 929.955C495.873 929.709 495.228 929.587 494.343 929.587H492.631V932.899H494.535ZM492.631 934.307V938.115H494.727C495.655 938.115 496.3 937.933 496.663 937.571C497.025 937.208 497.207 936.728 497.207 936.131C497.207 935.768 497.127 935.448 496.967 935.171C496.807 934.893 496.535 934.68 496.151 934.531C495.777 934.381 495.265 934.307 494.615 934.307H492.631ZM507.835 939.555H501.403V928.131H507.835V929.603H503.131V932.867H507.547V934.323H503.131V938.067H507.835V939.555ZM514.149 939.555H512.421V929.619H508.997V928.131H517.573V929.619H514.149V939.555ZM525.32 939.555L524.104 936.259H519.688L518.472 939.555H516.68L521.016 928.083H522.808L527.128 939.555H525.32ZM522.472 931.539C522.44 931.421 522.381 931.245 522.296 931.011C522.221 930.765 522.146 930.52 522.072 930.275C521.997 930.019 521.938 929.811 521.896 929.651C521.842 929.864 521.778 930.099 521.704 930.355C521.64 930.6 521.576 930.829 521.512 931.043C521.448 931.245 521.394 931.411 521.352 931.539L520.2 934.755H523.624L522.472 931.539ZM536.201 927.955C536.787 927.955 537.294 928.056 537.721 928.259C538.158 928.451 538.494 928.728 538.729 929.091C538.974 929.453 539.097 929.901 539.097 930.435C539.097 931.117 538.878 931.699 538.441 932.179C538.003 932.659 537.459 933.091 536.809 933.475L539.641 936.211C539.897 935.869 540.11 935.491 540.281 935.075C540.451 934.648 540.595 934.195 540.713 933.715H542.441C542.281 934.376 542.062 935.016 541.785 935.635C541.518 936.243 541.171 936.792 540.745 937.283L543.081 939.555H540.873L539.625 938.355C539.369 938.557 539.107 938.744 538.841 938.915C538.574 939.085 538.286 939.229 537.977 939.347C537.678 939.453 537.353 939.539 537.001 939.603C536.649 939.677 536.265 939.715 535.849 939.715C535.081 939.715 534.414 939.592 533.849 939.347C533.283 939.091 532.846 938.728 532.537 938.259C532.238 937.779 532.089 937.208 532.089 936.547C532.089 936.003 532.179 935.533 532.361 935.139C532.553 934.744 532.825 934.397 533.177 934.099C533.539 933.789 533.961 933.496 534.441 933.219C534.206 932.952 533.987 932.68 533.785 932.403C533.593 932.115 533.433 931.816 533.305 931.507C533.187 931.197 533.129 930.861 533.129 930.499C533.129 929.965 533.251 929.512 533.497 929.139C533.753 928.755 534.11 928.461 534.569 928.259C535.038 928.056 535.582 927.955 536.201 927.955ZM535.449 934.259C535.118 934.461 534.835 934.669 534.601 934.883C534.377 935.085 534.195 935.315 534.057 935.571C533.929 935.816 533.865 936.109 533.865 936.451C533.865 936.995 534.051 937.432 534.425 937.763C534.809 938.083 535.31 938.243 535.929 938.243C536.515 938.243 537.022 938.152 537.449 937.971C537.886 937.789 538.259 937.565 538.569 937.299L535.449 934.259ZM536.153 929.315C535.758 929.315 535.427 929.416 535.161 929.619C534.894 929.821 534.761 930.125 534.761 930.531C534.761 930.883 534.851 931.213 535.033 931.523C535.214 931.821 535.47 932.147 535.801 932.499C536.377 932.168 536.798 931.853 537.065 931.555C537.331 931.245 537.465 930.893 537.465 930.499C537.465 930.136 537.342 929.848 537.097 929.635C536.851 929.421 536.537 929.315 536.153 929.315ZM440.145 959.555V948.131H441.873V958.067H446.753V959.555H440.145ZM455.843 959.555L454.627 956.259H450.211L448.995 959.555H447.203L451.539 948.083H453.331L457.651 959.555H455.843ZM452.995 951.539C452.963 951.421 452.904 951.245 452.819 951.011C452.744 950.765 452.67 950.52 452.595 950.275C452.52 950.019 452.462 949.811 452.419 949.651C452.366 949.864 452.302 950.099 452.227 950.355C452.163 950.6 452.099 950.829 452.035 951.043C451.971 951.245 451.918 951.411 451.875 951.539L450.723 954.755H454.147L452.995 951.539ZM468.568 959.555H466.472L460.696 950.323H460.632C460.643 950.536 460.653 950.765 460.664 951.011C460.685 951.256 460.701 951.517 460.712 951.795C460.723 952.061 460.733 952.339 460.744 952.627C460.755 952.904 460.76 953.187 460.76 953.475V959.555H459.192V948.131H461.272L467.032 957.315H467.08C467.069 957.155 467.059 956.957 467.048 956.723C467.037 956.477 467.027 956.216 467.016 955.939C467.016 955.661 467.011 955.379 467 955.091C466.989 954.803 466.979 954.531 466.968 954.275V948.131H468.568V959.555ZM480.862 953.731C480.862 955.011 480.622 956.083 480.142 956.947C479.662 957.811 478.968 958.461 478.062 958.899C477.166 959.336 476.083 959.555 474.814 959.555H471.614V948.131H475.15C476.312 948.131 477.32 948.344 478.174 948.771C479.027 949.197 479.688 949.827 480.158 950.659C480.627 951.48 480.862 952.504 480.862 953.731ZM479.054 953.779C479.054 952.819 478.899 952.029 478.59 951.411C478.28 950.792 477.822 950.333 477.214 950.035C476.616 949.736 475.891 949.587 475.038 949.587H473.342V958.099H474.734C476.174 958.099 477.251 957.736 477.966 957.011C478.691 956.285 479.054 955.208 479.054 953.779ZM486.868 959.555H482.436V958.563L483.796 958.163V949.539L482.436 949.123V948.131H486.868V949.123L485.524 949.539V958.163L486.868 958.563V959.555ZM498.38 959.555H496.284L490.508 950.323H490.444C490.455 950.536 490.466 950.765 490.476 951.011C490.498 951.256 490.514 951.517 490.524 951.795C490.535 952.061 490.546 952.339 490.556 952.627C490.567 952.904 490.572 953.187 490.572 953.475V959.555H489.004V948.131H491.084L496.844 957.315H496.892C496.882 957.155 496.871 956.957 496.86 956.723C496.85 956.477 496.839 956.216 496.828 955.939C496.828 955.661 496.823 955.379 496.812 955.091C496.802 954.803 496.791 954.531 496.78 954.275V948.131H498.38V959.555ZM506.194 953.411H510.322V959.107C509.714 959.309 509.09 959.459 508.45 959.555C507.821 959.661 507.101 959.715 506.29 959.715C505.128 959.715 504.141 959.48 503.33 959.011C502.53 958.541 501.917 957.869 501.49 956.995C501.074 956.12 500.866 955.069 500.866 953.843C500.866 952.648 501.101 951.613 501.57 950.739C502.04 949.864 502.712 949.187 503.586 948.707C504.472 948.216 505.544 947.971 506.802 947.971C507.432 947.971 508.034 948.035 508.61 948.163C509.186 948.28 509.72 948.445 510.21 948.659L509.586 950.099C509.192 949.917 508.749 949.768 508.258 949.651C507.778 949.523 507.272 949.459 506.738 949.459C505.896 949.459 505.165 949.64 504.546 950.003C503.938 950.355 503.469 950.861 503.138 951.523C502.818 952.173 502.658 952.952 502.658 953.859C502.658 954.712 502.792 955.469 503.058 956.131C503.325 956.792 503.746 957.309 504.322 957.683C504.898 958.056 505.65 958.243 506.578 958.243C506.888 958.243 507.16 958.232 507.394 958.211C507.629 958.179 507.842 958.147 508.034 958.115C508.237 958.072 508.429 958.035 508.61 958.003V954.899H506.194V953.411ZM520.408 948.131C521.901 948.131 522.989 948.435 523.672 949.043C524.354 949.64 524.696 950.477 524.696 951.555C524.696 952.035 524.616 952.493 524.456 952.931C524.306 953.368 524.056 953.763 523.704 954.115C523.352 954.456 522.882 954.728 522.296 954.931C521.72 955.123 521.01 955.219 520.168 955.219H518.936V959.555H517.208V948.131H520.408ZM520.28 949.587H518.936V953.763H519.976C520.626 953.763 521.17 953.693 521.608 953.555C522.045 953.405 522.37 953.176 522.584 952.867C522.808 952.547 522.92 952.131 522.92 951.619C522.92 950.936 522.706 950.429 522.28 950.099C521.864 949.757 521.197 949.587 520.28 949.587ZM533.328 959.555L532.112 956.259H527.696L526.48 959.555H524.688L529.024 948.083H530.816L535.136 959.555H533.328ZM530.48 951.539C530.448 951.421 530.389 951.245 530.304 951.011C530.229 950.765 530.154 950.52 530.08 950.275C530.005 950.019 529.946 949.811 529.904 949.651C529.85 949.864 529.786 950.099 529.712 950.355C529.648 950.6 529.584 950.829 529.52 951.043C529.456 951.245 529.402 951.411 529.36 951.539L528.208 954.755H531.632L530.48 951.539ZM541.132 953.411H545.26V959.107C544.652 959.309 544.028 959.459 543.388 959.555C542.758 959.661 542.038 959.715 541.228 959.715C540.065 959.715 539.078 959.48 538.268 959.011C537.468 958.541 536.854 957.869 536.428 956.995C536.012 956.12 535.804 955.069 535.804 953.843C535.804 952.648 536.038 951.613 536.508 950.739C536.977 949.864 537.649 949.187 538.524 948.707C539.409 948.216 540.481 947.971 541.74 947.971C542.369 947.971 542.972 948.035 543.548 948.163C544.124 948.28 544.657 948.445 545.148 948.659L544.524 950.099C544.129 949.917 543.686 949.768 543.196 949.651C542.716 949.523 542.209 949.459 541.676 949.459C540.833 949.459 540.102 949.64 539.484 950.003C538.876 950.355 538.406 950.861 538.076 951.523C537.756 952.173 537.596 952.952 537.596 953.859C537.596 954.712 537.729 955.469 537.996 956.131C538.262 956.792 538.684 957.309 539.26 957.683C539.836 958.056 540.588 958.243 541.516 958.243C541.825 958.243 542.097 958.232 542.332 958.211C542.566 958.179 542.78 958.147 542.972 958.115C543.174 958.072 543.366 958.035 543.548 958.003V954.899H541.132V953.411ZM554.421 959.555H547.989V948.131H554.421V949.603H549.717V952.867H554.133V954.323H549.717V958.067H554.421V959.555Z" fill="#01284E"/>
<g filter="url(#filter10_f_930_756)">
<circle cx="497" cy="989.055" r="5.96976" stroke="#005B71" stroke-opacity="0.8" stroke-width="1.125"/>
</g>
<g filter="url(#filter11_f_930_756)">
<circle cx="496.782" cy="988.836" r="9.23589" stroke="#005B71" stroke-opacity="0.6" stroke-width="1.125"/>
</g>
<g filter="url(#filter12_f_930_756)">
<circle cx="497" cy="989.055" r="12.9375" stroke="#005B71" stroke-opacity="0.4" stroke-width="1.125"/>
</g>
<path d="M497.868 985.571L497.558 988.544L500.531 987.708L500.748 989.133L497.899 989.365L499.741 991.811L498.41 992.539L497.093 989.829L495.901 992.539L494.523 991.811L496.335 989.365L493.517 989.133L493.733 987.708L496.675 988.544L496.35 985.571H497.868Z" fill="#005B71"/>
<path d="M454.502 1158.47C454.502 1159.15 454.337 1159.73 454.006 1160.21C453.675 1160.69 453.201 1161.06 452.582 1161.33C451.963 1161.59 451.227 1161.71 450.374 1161.71C449.958 1161.71 449.558 1161.69 449.174 1161.63C448.79 1161.59 448.433 1161.53 448.102 1161.44C447.771 1161.36 447.478 1161.25 447.222 1161.12V1159.49C447.649 1159.68 448.15 1159.86 448.726 1160.02C449.302 1160.17 449.889 1160.24 450.486 1160.24C450.998 1160.24 451.425 1160.17 451.766 1160.03C452.107 1159.9 452.363 1159.7 452.534 1159.46C452.705 1159.21 452.79 1158.93 452.79 1158.59C452.79 1158.24 452.699 1157.95 452.518 1157.71C452.347 1157.47 452.075 1157.25 451.702 1157.04C451.339 1156.83 450.849 1156.61 450.23 1156.37C449.803 1156.21 449.414 1156.03 449.062 1155.84C448.721 1155.64 448.417 1155.41 448.15 1155.14C447.894 1154.87 447.697 1154.56 447.558 1154.21C447.419 1153.86 447.35 1153.45 447.35 1152.98C447.35 1152.35 447.505 1151.81 447.814 1151.36C448.134 1150.91 448.571 1150.57 449.126 1150.34C449.681 1150.09 450.326 1149.97 451.062 1149.97C451.681 1149.97 452.251 1150.03 452.774 1150.16C453.307 1150.28 453.814 1150.45 454.294 1150.66L453.75 1152.08C453.313 1151.9 452.87 1151.75 452.422 1151.63C451.974 1151.52 451.505 1151.46 451.014 1151.46C450.587 1151.46 450.23 1151.52 449.942 1151.65C449.654 1151.78 449.435 1151.95 449.286 1152.18C449.147 1152.4 449.078 1152.66 449.078 1152.96C449.078 1153.31 449.158 1153.61 449.318 1153.84C449.478 1154.08 449.734 1154.3 450.086 1154.5C450.438 1154.69 450.902 1154.9 451.478 1155.14C452.118 1155.38 452.662 1155.65 453.11 1155.94C453.569 1156.23 453.915 1156.57 454.15 1156.98C454.385 1157.37 454.502 1157.87 454.502 1158.47ZM463.171 1161.55H456.739V1150.13H463.171V1151.6H458.467V1154.87H462.883V1156.32H458.467V1160.07H463.171V1161.55ZM472.077 1161.55H465.645V1150.13H472.077V1151.6H467.373V1154.87H471.789V1156.32H467.373V1160.07H472.077V1161.55ZM483.799 1155.73C483.799 1157.01 483.559 1158.08 483.079 1158.95C482.599 1159.81 481.906 1160.46 480.999 1160.9C480.103 1161.34 479.021 1161.55 477.751 1161.55H474.551V1150.13H478.087C479.25 1150.13 480.258 1150.34 481.111 1150.77C481.965 1151.2 482.626 1151.83 483.095 1152.66C483.565 1153.48 483.799 1154.5 483.799 1155.73ZM481.991 1155.78C481.991 1154.82 481.837 1154.03 481.527 1153.41C481.218 1152.79 480.759 1152.33 480.151 1152.03C479.554 1151.74 478.829 1151.59 477.975 1151.59H476.279V1160.1H477.671C479.111 1160.1 480.189 1159.74 480.903 1159.01C481.629 1158.29 481.991 1157.21 481.991 1155.78ZM493.642 1150.13C494.623 1150.13 495.429 1150.25 496.058 1150.5C496.687 1150.74 497.157 1151.11 497.466 1151.6C497.775 1152.08 497.93 1152.69 497.93 1153.43C497.93 1154.01 497.818 1154.51 497.594 1154.91C497.381 1155.31 497.103 1155.63 496.762 1155.89C496.421 1156.14 496.063 1156.33 495.69 1156.48L498.89 1161.55H496.906L494.154 1156.93H492.17V1161.55H490.442V1150.13H493.642ZM493.53 1151.6H492.17V1155.49H493.61C494.197 1155.49 494.677 1155.42 495.05 1155.27C495.434 1155.12 495.711 1154.89 495.882 1154.59C496.063 1154.3 496.154 1153.93 496.154 1153.49C496.154 1153.03 496.058 1152.67 495.866 1152.4C495.685 1152.13 495.397 1151.92 495.002 1151.79C494.618 1151.67 494.127 1151.6 493.53 1151.6ZM510.647 1155.83C510.647 1156.71 510.535 1157.52 510.311 1158.24C510.098 1158.96 509.767 1159.58 509.319 1160.1C508.882 1160.62 508.327 1161.02 507.655 1161.3C506.994 1161.58 506.22 1161.71 505.335 1161.71C504.428 1161.71 503.639 1161.58 502.967 1161.3C502.306 1161.01 501.751 1160.61 501.303 1160.1C500.866 1159.58 500.54 1158.95 500.327 1158.23C500.114 1157.5 500.007 1156.7 500.007 1155.81C500.007 1154.64 500.199 1153.61 500.583 1152.74C500.967 1151.86 501.554 1151.18 502.343 1150.69C503.143 1150.2 504.146 1149.95 505.351 1149.95C506.524 1149.95 507.5 1150.2 508.279 1150.69C509.068 1151.17 509.66 1151.85 510.055 1152.74C510.45 1153.61 510.647 1154.64 510.647 1155.83ZM501.831 1155.83C501.831 1156.74 501.954 1157.53 502.199 1158.19C502.444 1158.85 502.828 1159.35 503.351 1159.71C503.874 1160.07 504.535 1160.24 505.335 1160.24C506.146 1160.24 506.807 1160.07 507.319 1159.71C507.831 1159.35 508.21 1158.85 508.455 1158.19C508.7 1157.53 508.823 1156.74 508.823 1155.83C508.823 1154.45 508.546 1153.38 507.991 1152.61C507.447 1151.83 506.567 1151.44 505.351 1151.44C504.54 1151.44 503.874 1151.62 503.351 1151.97C502.828 1152.32 502.444 1152.82 502.199 1153.47C501.954 1154.13 501.831 1154.91 501.831 1155.83ZM521.993 1157.52C521.993 1158.31 521.828 1159.03 521.497 1159.67C521.177 1160.3 520.681 1160.8 520.009 1161.17C519.337 1161.53 518.489 1161.71 517.465 1161.71C516.015 1161.71 514.911 1161.33 514.153 1160.56C513.407 1159.78 513.033 1158.76 513.033 1157.49V1150.13H514.761V1157.41C514.761 1158.35 514.991 1159.06 515.449 1159.54C515.908 1160.01 516.607 1160.24 517.545 1160.24C518.185 1160.24 518.708 1160.13 519.113 1159.89C519.519 1159.66 519.812 1159.33 519.993 1158.91C520.185 1158.49 520.281 1157.98 520.281 1157.39V1150.13H521.993V1157.52ZM534.318 1161.55H532.222L526.446 1152.32H526.382C526.393 1152.54 526.403 1152.77 526.414 1153.01C526.435 1153.26 526.451 1153.52 526.462 1153.79C526.473 1154.06 526.483 1154.34 526.494 1154.63C526.505 1154.9 526.51 1155.19 526.51 1155.47V1161.55H524.942V1150.13H527.022L532.782 1159.31H532.83C532.819 1159.15 532.809 1158.96 532.798 1158.72C532.787 1158.48 532.777 1158.22 532.766 1157.94C532.766 1157.66 532.761 1157.38 532.75 1157.09C532.739 1156.8 532.729 1156.53 532.718 1156.27V1150.13H534.318V1161.55ZM546.612 1155.73C546.612 1157.01 546.372 1158.08 545.892 1158.95C545.412 1159.81 544.718 1160.46 543.812 1160.9C542.916 1161.34 541.833 1161.55 540.564 1161.55H537.364V1150.13H540.9C542.062 1150.13 543.07 1150.34 543.924 1150.77C544.777 1151.2 545.438 1151.83 545.908 1152.66C546.377 1153.48 546.612 1154.5 546.612 1155.73ZM544.804 1155.78C544.804 1154.82 544.649 1154.03 544.34 1153.41C544.03 1152.79 543.572 1152.33 542.964 1152.03C542.366 1151.74 541.641 1151.59 540.788 1151.59H539.092V1160.1H540.484C541.924 1160.1 543.001 1159.74 543.716 1159.01C544.441 1158.29 544.804 1157.21 544.804 1155.78Z" fill="#01284E"/>
<g filter="url(#filter13_f_930_756)">
<circle cx="497" cy="1191.05" r="5.96976" stroke="#0088A9" stroke-opacity="0.8" stroke-width="1.125"/>
</g>
<g filter="url(#filter14_f_930_756)">
<circle cx="496.782" cy="1190.84" r="9.23589" stroke="#0088A9" stroke-opacity="0.6" stroke-width="1.125"/>
</g>
<g filter="url(#filter15_f_930_756)">
<circle cx="497" cy="1191.05" r="12.9375" stroke="#0088A9" stroke-opacity="0.4" stroke-width="1.125"/>
</g>
<path d="M497.868 1187.57L497.558 1190.54L500.531 1189.71L500.748 1191.13L497.899 1191.36L499.741 1193.81L498.41 1194.54L497.093 1191.83L495.901 1194.54L494.523 1193.81L496.335 1191.36L493.517 1191.13L493.733 1189.71L496.675 1190.54L496.35 1187.57H497.868Z" fill="#0088A9"/>
<path d="M484.64 1400H482.96V1392.42C482.96 1392.15 482.96 1391.9 482.96 1391.68C482.97 1391.45 482.981 1391.22 482.992 1391.01C483.002 1390.78 483.013 1390.57 483.024 1390.37C482.885 1390.51 482.741 1390.64 482.592 1390.77C482.442 1390.9 482.272 1391.05 482.08 1391.22L480.832 1392.22L479.968 1391.14L483.232 1388.58H484.64V1400ZM496.276 1394.27C496.276 1395.2 496.201 1396.03 496.052 1396.75C495.913 1397.48 495.689 1398.1 495.38 1398.61C495.081 1399.11 494.681 1399.49 494.18 1399.76C493.689 1400.03 493.097 1400.16 492.404 1400.16C491.529 1400.16 490.809 1399.93 490.244 1399.46C489.678 1398.99 489.257 1398.31 488.98 1397.44C488.702 1396.55 488.564 1395.5 488.564 1394.27C488.564 1393.03 488.686 1391.98 488.932 1391.1C489.188 1390.23 489.598 1389.56 490.164 1389.1C490.729 1388.63 491.476 1388.4 492.404 1388.4C493.278 1388.4 493.998 1388.63 494.564 1389.1C495.14 1389.56 495.566 1390.23 495.844 1391.1C496.132 1391.98 496.276 1393.03 496.276 1394.27ZM490.26 1394.27C490.26 1395.26 490.329 1396.09 490.468 1396.75C490.606 1397.41 490.83 1397.91 491.14 1398.24C491.46 1398.57 491.881 1398.74 492.404 1398.74C492.926 1398.74 493.342 1398.58 493.652 1398.26C493.972 1397.93 494.201 1397.43 494.34 1396.77C494.489 1396.1 494.564 1395.26 494.564 1394.27C494.564 1393.28 494.489 1392.46 494.34 1391.81C494.201 1391.15 493.972 1390.65 493.652 1390.32C493.342 1389.99 492.926 1389.82 492.404 1389.82C491.881 1389.82 491.46 1389.99 491.14 1390.32C490.83 1390.65 490.606 1391.15 490.468 1391.81C490.329 1392.46 490.26 1393.28 490.26 1394.27ZM505.432 1394.27C505.432 1395.2 505.357 1396.03 505.208 1396.75C505.069 1397.48 504.845 1398.1 504.536 1398.61C504.237 1399.11 503.837 1399.49 503.336 1399.76C502.845 1400.03 502.253 1400.16 501.56 1400.16C500.685 1400.16 499.965 1399.93 499.4 1399.46C498.835 1398.99 498.413 1398.31 498.136 1397.44C497.859 1396.55 497.72 1395.5 497.72 1394.27C497.72 1393.03 497.843 1391.98 498.088 1391.1C498.344 1390.23 498.755 1389.56 499.32 1389.1C499.885 1388.63 500.632 1388.4 501.56 1388.4C502.435 1388.4 503.155 1388.63 503.72 1389.1C504.296 1389.56 504.723 1390.23 505 1391.1C505.288 1391.98 505.432 1393.03 505.432 1394.27ZM499.416 1394.27C499.416 1395.26 499.485 1396.09 499.624 1396.75C499.763 1397.41 499.987 1397.91 500.296 1398.24C500.616 1398.57 501.037 1398.74 501.56 1398.74C502.083 1398.74 502.499 1398.58 502.808 1398.26C503.128 1397.93 503.357 1397.43 503.496 1396.77C503.645 1396.1 503.72 1395.26 503.72 1394.27C503.72 1393.28 503.645 1392.46 503.496 1391.81C503.357 1391.15 503.128 1390.65 502.808 1390.32C502.499 1389.99 502.083 1389.82 501.56 1389.82C501.037 1389.82 500.616 1389.99 500.296 1390.32C499.987 1390.65 499.763 1391.15 499.624 1391.81C499.485 1392.46 499.416 1393.28 499.416 1394.27ZM514.588 1394.27C514.588 1395.2 514.514 1396.03 514.364 1396.75C514.226 1397.48 514.002 1398.1 513.692 1398.61C513.394 1399.11 512.994 1399.49 512.492 1399.76C512.002 1400.03 511.41 1400.16 510.716 1400.16C509.842 1400.16 509.122 1399.93 508.556 1399.46C507.991 1398.99 507.57 1398.31 507.292 1397.44C507.015 1396.55 506.876 1395.5 506.876 1394.27C506.876 1393.03 506.999 1391.98 507.244 1391.1C507.5 1390.23 507.911 1389.56 508.476 1389.1C509.042 1388.63 509.788 1388.4 510.716 1388.4C511.591 1388.4 512.311 1388.63 512.876 1389.1C513.452 1389.56 513.879 1390.23 514.156 1391.1C514.444 1391.98 514.588 1393.03 514.588 1394.27ZM508.572 1394.27C508.572 1395.26 508.642 1396.09 508.78 1396.75C508.919 1397.41 509.143 1397.91 509.452 1398.24C509.772 1398.57 510.194 1398.74 510.716 1398.74C511.239 1398.74 511.655 1398.58 511.964 1398.26C512.284 1397.93 512.514 1397.43 512.652 1396.77C512.802 1396.1 512.876 1395.26 512.876 1394.27C512.876 1393.28 512.802 1392.46 512.652 1391.81C512.514 1391.15 512.284 1390.65 511.964 1390.32C511.655 1389.99 511.239 1389.82 510.716 1389.82C510.194 1389.82 509.772 1389.99 509.452 1390.32C509.143 1390.65 508.919 1391.15 508.78 1391.81C508.642 1392.46 508.572 1393.28 508.572 1394.27ZM456.684 1408.58C457.655 1408.58 458.466 1408.67 459.116 1408.85C459.778 1409.03 460.274 1409.33 460.604 1409.76C460.946 1410.18 461.116 1410.73 461.116 1411.42C461.116 1411.87 461.036 1412.27 460.876 1412.62C460.716 1412.97 460.482 1413.25 460.172 1413.49C459.874 1413.71 459.5 1413.86 459.052 1413.94V1414.02C459.511 1414.09 459.922 1414.23 460.284 1414.43C460.647 1414.62 460.935 1414.91 461.148 1415.28C461.362 1415.65 461.468 1416.14 461.468 1416.74C461.468 1417.43 461.303 1418.02 460.972 1418.51C460.652 1418.99 460.188 1419.36 459.58 1419.62C458.983 1419.87 458.268 1420 457.436 1420H453.34V1408.58H456.684ZM456.972 1413.34C457.868 1413.34 458.482 1413.2 458.812 1412.91C459.154 1412.62 459.324 1412.2 459.324 1411.63C459.324 1411.06 459.122 1410.65 458.716 1410.4C458.311 1410.15 457.666 1410.03 456.78 1410.03H455.068V1413.34H456.972ZM455.068 1414.75V1418.56H457.164C458.092 1418.56 458.738 1418.38 459.1 1418.02C459.463 1417.65 459.644 1417.17 459.644 1416.58C459.644 1416.21 459.564 1415.89 459.404 1415.62C459.244 1415.34 458.972 1415.13 458.588 1414.98C458.215 1414.83 457.703 1414.75 457.052 1414.75H455.068ZM470.272 1420H463.84V1408.58H470.272V1410.05H465.568V1413.31H469.984V1414.77H465.568V1418.51H470.272V1420ZM476.587 1420H474.859V1410.06H471.435V1408.58H480.011V1410.06H476.587V1420ZM487.757 1420L486.541 1416.7H482.125L480.909 1420H479.117L483.453 1408.53H485.245L489.565 1420H487.757ZM484.909 1411.98C484.877 1411.87 484.819 1411.69 484.733 1411.46C484.659 1411.21 484.584 1410.97 484.509 1410.72C484.435 1410.46 484.376 1410.26 484.333 1410.1C484.28 1410.31 484.216 1410.54 484.141 1410.8C484.077 1411.05 484.013 1411.27 483.949 1411.49C483.885 1411.69 483.832 1411.86 483.789 1411.98L482.637 1415.2H486.061L484.909 1411.98ZM504.126 1415.97C504.126 1416.76 503.961 1417.47 503.63 1418.11C503.31 1418.74 502.814 1419.24 502.142 1419.62C501.47 1419.98 500.622 1420.16 499.598 1420.16C498.148 1420.16 497.044 1419.78 496.286 1419.01C495.54 1418.23 495.166 1417.21 495.166 1415.94V1408.58H496.894V1415.86C496.894 1416.79 497.124 1417.5 497.582 1417.98C498.041 1418.45 498.74 1418.69 499.678 1418.69C500.318 1418.69 500.841 1418.57 501.246 1418.34C501.652 1418.1 501.945 1417.78 502.126 1417.36C502.318 1416.93 502.414 1416.43 502.414 1415.84V1408.58H504.126V1415.97ZM513.635 1416.91C513.635 1417.59 513.469 1418.18 513.139 1418.66C512.808 1419.14 512.333 1419.51 511.715 1419.78C511.096 1420.03 510.36 1420.16 509.507 1420.16C509.091 1420.16 508.691 1420.13 508.307 1420.08C507.923 1420.04 507.565 1419.97 507.235 1419.89C506.904 1419.8 506.611 1419.7 506.355 1419.57V1417.94C506.781 1418.13 507.283 1418.3 507.859 1418.46C508.435 1418.61 509.021 1418.69 509.619 1418.69C510.131 1418.69 510.557 1418.62 510.899 1418.48C511.24 1418.34 511.496 1418.15 511.667 1417.9C511.837 1417.66 511.923 1417.37 511.923 1417.04C511.923 1416.69 511.832 1416.39 511.651 1416.16C511.48 1415.91 511.208 1415.69 510.835 1415.49C510.472 1415.27 509.981 1415.05 509.363 1414.82C508.936 1414.66 508.547 1414.48 508.195 1414.29C507.853 1414.09 507.549 1413.85 507.283 1413.58C507.027 1413.32 506.829 1413.01 506.691 1412.66C506.552 1412.3 506.483 1411.89 506.483 1411.42C506.483 1410.79 506.637 1410.26 506.947 1409.81C507.267 1409.36 507.704 1409.02 508.259 1408.78C508.813 1408.54 509.459 1408.42 510.195 1408.42C510.813 1408.42 511.384 1408.48 511.907 1408.61C512.44 1408.73 512.947 1408.89 513.427 1409.1L512.883 1410.53C512.445 1410.35 512.003 1410.2 511.555 1410.08C511.107 1409.96 510.637 1409.9 510.147 1409.9C509.72 1409.9 509.363 1409.97 509.075 1410.1C508.787 1410.22 508.568 1410.4 508.419 1410.62C508.28 1410.85 508.211 1411.11 508.211 1411.41C508.211 1411.76 508.291 1412.05 508.451 1412.29C508.611 1412.52 508.867 1412.74 509.219 1412.94C509.571 1413.14 510.035 1413.35 510.611 1413.58C511.251 1413.83 511.795 1414.1 512.243 1414.38C512.701 1414.67 513.048 1415.02 513.283 1415.42C513.517 1415.82 513.635 1416.31 513.635 1416.91ZM522.304 1420H515.872V1408.58H522.304V1410.05H517.6V1413.31H522.016V1414.77H517.6V1418.51H522.304V1420ZM527.978 1408.58C528.959 1408.58 529.764 1408.7 530.394 1408.94C531.023 1409.19 531.492 1409.56 531.802 1410.05C532.111 1410.53 532.266 1411.14 532.266 1411.87C532.266 1412.46 532.154 1412.95 531.93 1413.36C531.716 1413.75 531.439 1414.08 531.098 1414.34C530.756 1414.58 530.399 1414.78 530.026 1414.93L533.226 1420H531.242L528.49 1415.38H526.506V1420H524.778V1408.58H527.978ZM527.866 1410.05H526.506V1413.94H527.946C528.532 1413.94 529.012 1413.86 529.386 1413.71C529.77 1413.56 530.047 1413.34 530.218 1413.04C530.399 1412.74 530.49 1412.37 530.49 1411.94C530.49 1411.48 530.394 1411.11 530.202 1410.85C530.02 1410.57 529.732 1410.37 529.338 1410.24C528.954 1410.11 528.463 1410.05 527.866 1410.05ZM541.463 1416.91C541.463 1417.59 541.297 1418.18 540.967 1418.66C540.636 1419.14 540.161 1419.51 539.543 1419.78C538.924 1420.03 538.188 1420.16 537.335 1420.16C536.919 1420.16 536.519 1420.13 536.135 1420.08C535.751 1420.04 535.393 1419.97 535.063 1419.89C534.732 1419.8 534.439 1419.7 534.183 1419.57V1417.94C534.609 1418.13 535.111 1418.3 535.687 1418.46C536.263 1418.61 536.849 1418.69 537.447 1418.69C537.959 1418.69 538.385 1418.62 538.727 1418.48C539.068 1418.34 539.324 1418.15 539.495 1417.9C539.665 1417.66 539.751 1417.37 539.751 1417.04C539.751 1416.69 539.66 1416.39 539.479 1416.16C539.308 1415.91 539.036 1415.69 538.663 1415.49C538.3 1415.27 537.809 1415.05 537.191 1414.82C536.764 1414.66 536.375 1414.48 536.023 1414.29C535.681 1414.09 535.377 1413.85 535.111 1413.58C534.855 1413.32 534.657 1413.01 534.519 1412.66C534.38 1412.3 534.311 1411.89 534.311 1411.42C534.311 1410.79 534.465 1410.26 534.775 1409.81C535.095 1409.36 535.532 1409.02 536.087 1408.78C536.641 1408.54 537.287 1408.42 538.023 1408.42C538.641 1408.42 539.212 1408.48 539.735 1408.61C540.268 1408.73 540.775 1408.89 541.255 1409.1L540.711 1410.53C540.273 1410.35 539.831 1410.2 539.383 1410.08C538.935 1409.96 538.465 1409.9 537.975 1409.9C537.548 1409.9 537.191 1409.97 536.903 1410.1C536.615 1410.22 536.396 1410.4 536.247 1410.62C536.108 1410.85 536.039 1411.11 536.039 1411.41C536.039 1411.76 536.119 1412.05 536.279 1412.29C536.439 1412.52 536.695 1412.74 537.047 1412.94C537.399 1413.14 537.863 1413.35 538.439 1413.58C539.079 1413.83 539.623 1414.1 540.071 1414.38C540.529 1414.67 540.876 1415.02 541.111 1415.42C541.345 1415.82 541.463 1416.31 541.463 1416.91Z" fill="#01284E"/>
<g filter="url(#filter16_f_930_756)">
<circle cx="497" cy="1449.5" r="5.96976" stroke="#0088A9" stroke-opacity="0.8" stroke-width="1.125"/>
</g>
<g filter="url(#filter17_f_930_756)">
<circle cx="496.782" cy="1449.28" r="9.23589" stroke="#0088A9" stroke-opacity="0.6" stroke-width="1.125"/>
</g>
<g filter="url(#filter18_f_930_756)">
<circle cx="497" cy="1449.5" r="12.9375" stroke="#0088A9" stroke-opacity="0.4" stroke-width="1.125"/>
</g>
<path d="M497.868 1446.02L497.558 1448.99L500.531 1448.15L500.748 1449.58L497.899 1449.81L499.741 1452.26L498.41 1452.98L497.093 1450.27L495.901 1452.98L494.523 1452.26L496.335 1449.81L493.517 1449.58L493.733 1448.15L496.675 1448.99L496.35 1446.02H497.868Z" fill="#0088A9"/>
<path d="M217.095 1263.13C218.588 1263.13 219.676 1263.43 220.359 1264.04C221.042 1264.64 221.383 1265.48 221.383 1266.55C221.383 1267.03 221.303 1267.49 221.143 1267.93C220.994 1268.37 220.743 1268.76 220.391 1269.11C220.039 1269.46 219.57 1269.73 218.983 1269.93C218.407 1270.12 217.698 1270.22 216.855 1270.22H215.623V1274.55H213.895V1263.13H217.095ZM216.967 1264.59H215.623V1268.76H216.663C217.314 1268.76 217.858 1268.69 218.295 1268.55C218.732 1268.41 219.058 1268.18 219.271 1267.87C219.495 1267.55 219.607 1267.13 219.607 1266.62C219.607 1265.94 219.394 1265.43 218.967 1265.1C218.551 1264.76 217.884 1264.59 216.967 1264.59ZM232.556 1270.52C232.556 1271.31 232.391 1272.03 232.06 1272.67C231.74 1273.3 231.244 1273.8 230.572 1274.17C229.9 1274.53 229.052 1274.71 228.028 1274.71C226.577 1274.71 225.473 1274.33 224.716 1273.56C223.969 1272.78 223.596 1271.76 223.596 1270.49V1263.13H225.324V1270.41C225.324 1271.35 225.553 1272.06 226.012 1272.54C226.471 1273.01 227.169 1273.24 228.108 1273.24C228.748 1273.24 229.271 1273.13 229.676 1272.89C230.081 1272.66 230.375 1272.33 230.556 1271.91C230.748 1271.49 230.844 1270.98 230.844 1270.39V1263.13H232.556V1270.52ZM238.848 1263.13C239.819 1263.13 240.63 1263.22 241.28 1263.4C241.942 1263.58 242.438 1263.89 242.768 1264.31C243.11 1264.73 243.28 1265.29 243.28 1265.98C243.28 1266.43 243.2 1266.83 243.04 1267.18C242.88 1267.52 242.646 1267.81 242.336 1268.04C242.038 1268.27 241.664 1268.42 241.216 1268.49V1268.57C241.675 1268.65 242.086 1268.78 242.448 1268.99C242.811 1269.18 243.099 1269.46 243.312 1269.83C243.526 1270.21 243.632 1270.69 243.632 1271.29C243.632 1271.98 243.467 1272.58 243.136 1273.07C242.816 1273.55 242.352 1273.91 241.744 1274.17C241.147 1274.43 240.432 1274.55 239.6 1274.55H235.504V1263.13H238.848ZM239.136 1267.9C240.032 1267.9 240.646 1267.75 240.976 1267.47C241.318 1267.18 241.488 1266.75 241.488 1266.19C241.488 1265.61 241.286 1265.2 240.88 1264.95C240.475 1264.71 239.83 1264.59 238.944 1264.59H237.232V1267.9H239.136ZM237.232 1269.31V1273.11H239.328C240.256 1273.11 240.902 1272.93 241.264 1272.57C241.627 1272.21 241.808 1271.73 241.808 1271.13C241.808 1270.77 241.728 1270.45 241.568 1270.17C241.408 1269.89 241.136 1269.68 240.752 1269.53C240.379 1269.38 239.867 1269.31 239.216 1269.31H237.232ZM246.004 1274.55V1263.13H247.732V1273.07H252.612V1274.55H246.004ZM261.015 1274.55H254.583V1263.13H261.015V1264.6H256.311V1267.87H260.727V1269.32H256.311V1273.07H261.015V1274.55ZM272.737 1268.73C272.737 1270.01 272.497 1271.08 272.017 1271.95C271.537 1272.81 270.843 1273.46 269.937 1273.9C269.041 1274.34 267.958 1274.55 266.689 1274.55H263.489V1263.13H267.025C268.187 1263.13 269.195 1263.34 270.049 1263.77C270.902 1264.2 271.563 1264.83 272.033 1265.66C272.502 1266.48 272.737 1267.5 272.737 1268.73ZM270.929 1268.78C270.929 1267.82 270.774 1267.03 270.465 1266.41C270.155 1265.79 269.697 1265.33 269.089 1265.03C268.491 1264.74 267.766 1264.59 266.913 1264.59H265.217V1273.1H266.609C268.049 1273.1 269.126 1272.74 269.841 1272.01C270.566 1271.29 270.929 1270.21 270.929 1268.78ZM282.723 1263.13C283.694 1263.13 284.505 1263.22 285.155 1263.4C285.817 1263.58 286.313 1263.89 286.643 1264.31C286.985 1264.73 287.155 1265.29 287.155 1265.98C287.155 1266.43 287.075 1266.83 286.915 1267.18C286.755 1267.52 286.521 1267.81 286.211 1268.04C285.913 1268.27 285.539 1268.42 285.091 1268.49V1268.57C285.55 1268.65 285.961 1268.78 286.323 1268.99C286.686 1269.18 286.974 1269.46 287.187 1269.83C287.401 1270.21 287.507 1270.69 287.507 1271.29C287.507 1271.98 287.342 1272.58 287.011 1273.07C286.691 1273.55 286.227 1273.91 285.619 1274.17C285.022 1274.43 284.307 1274.55 283.475 1274.55H279.379V1263.13H282.723ZM283.011 1267.9C283.907 1267.9 284.521 1267.75 284.851 1267.47C285.193 1267.18 285.363 1266.75 285.363 1266.19C285.363 1265.61 285.161 1265.2 284.755 1264.95C284.35 1264.71 283.705 1264.59 282.819 1264.59H281.107V1267.9H283.011ZM281.107 1269.31V1273.11H283.203C284.131 1273.11 284.777 1272.93 285.139 1272.57C285.502 1272.21 285.683 1271.73 285.683 1271.13C285.683 1270.77 285.603 1270.45 285.443 1270.17C285.283 1269.89 285.011 1269.68 284.627 1269.53C284.254 1269.38 283.742 1269.31 283.091 1269.31H281.107ZM296.311 1274.55H289.879V1263.13H296.311V1264.6H291.607V1267.87H296.023V1269.32H291.607V1273.07H296.311V1274.55ZM302.626 1274.55H300.898V1264.62H297.474V1263.13H306.05V1264.62H302.626V1274.55ZM313.796 1274.55L312.58 1271.26H308.164L306.948 1274.55H305.156L309.492 1263.08H311.284L315.604 1274.55H313.796ZM310.948 1266.54C310.916 1266.42 310.858 1266.25 310.772 1266.01C310.698 1265.77 310.623 1265.52 310.548 1265.27C310.474 1265.02 310.415 1264.81 310.372 1264.65C310.319 1264.86 310.255 1265.1 310.18 1265.35C310.116 1265.6 310.052 1265.83 309.988 1266.04C309.924 1266.25 309.871 1266.41 309.828 1266.54L308.676 1269.75H312.1L310.948 1266.54Z" fill="#01284E"/>
<g filter="url(#filter19_f_930_756)">
<circle cx="264" cy="1304.05" r="5.96976" stroke="#0088A9" stroke-opacity="0.8" stroke-width="1.125"/>
</g>
<g filter="url(#filter20_f_930_756)">
<circle cx="263.782" cy="1303.84" r="9.23589" stroke="#0088A9" stroke-opacity="0.6" stroke-width="1.125"/>
</g>
<g filter="url(#filter21_f_930_756)">
<circle cx="264" cy="1304.05" r="12.9375" stroke="#0088A9" stroke-opacity="0.4" stroke-width="1.125"/>
</g>
<path d="M264.868 1300.57L264.558 1303.54L267.531 1302.71L267.748 1304.13L264.899 1304.36L266.741 1306.81L265.41 1307.54L264.093 1304.83L262.901 1307.54L261.523 1306.81L263.335 1304.36L260.517 1304.13L260.733 1302.71L263.675 1303.54L263.35 1300.57H264.868Z" fill="#0088A9"/>
<path d="M300.658 620.012C303.01 620.012 304.942 620.334 306.454 620.978C307.994 621.594 309.128 622.532 309.856 623.792C310.612 625.052 310.99 626.634 310.99 628.538C310.99 630.134 310.71 631.464 310.15 632.528C309.618 633.592 308.918 634.446 308.05 635.09C307.21 635.706 306.314 636.196 305.362 636.56L313.174 650H308.806L302.002 637.61H296.584V650H292.846V620.012H300.658ZM300.448 623.288H296.584V634.418H300.616C302.128 634.418 303.36 634.208 304.312 633.788C305.292 633.34 306.006 632.696 306.454 631.856C306.902 631.016 307.126 629.966 307.126 628.706C307.126 627.39 306.888 626.34 306.412 625.556C305.936 624.772 305.194 624.198 304.186 623.834C303.206 623.47 301.96 623.288 300.448 623.288ZM335.556 638.702C335.556 640.578 335.318 642.244 334.842 643.7C334.394 645.128 333.736 646.346 332.868 647.354C332 648.362 330.95 649.132 329.718 649.664C328.486 650.168 327.114 650.42 325.602 650.42C324.202 650.42 322.9 650.168 321.696 649.664C320.52 649.132 319.484 648.362 318.588 647.354C317.72 646.346 317.048 645.128 316.572 643.7C316.096 642.244 315.858 640.578 315.858 638.702C315.858 636.21 316.25 634.11 317.034 632.402C317.846 630.666 318.994 629.35 320.478 628.454C321.962 627.53 323.712 627.068 325.728 627.068C327.66 627.068 329.354 627.53 330.81 628.454C332.294 629.35 333.456 630.666 334.296 632.402C335.136 634.11 335.556 636.21 335.556 638.702ZM319.638 638.702C319.638 640.466 319.848 642.006 320.268 643.322C320.688 644.61 321.346 645.604 322.242 646.304C323.138 647.004 324.286 647.354 325.686 647.354C327.086 647.354 328.234 647.004 329.13 646.304C330.026 645.604 330.684 644.61 331.104 643.322C331.552 642.006 331.776 640.466 331.776 638.702C331.776 636.91 331.552 635.384 331.104 634.124C330.684 632.864 330.026 631.898 329.13 631.226C328.234 630.526 327.072 630.176 325.644 630.176C323.544 630.176 322.018 630.932 321.066 632.444C320.114 633.956 319.638 636.042 319.638 638.702ZM349.093 627.11C351.669 627.11 353.587 627.712 354.847 628.916C356.135 630.12 356.779 632.038 356.779 634.67V650H354.133L353.419 646.808H353.251C352.635 647.62 352.005 648.306 351.361 648.866C350.745 649.398 350.017 649.79 349.177 650.042C348.365 650.294 347.357 650.42 346.153 650.42C344.893 650.42 343.759 650.182 342.751 649.706C341.743 649.23 340.945 648.502 340.357 647.522C339.769 646.514 339.475 645.254 339.475 643.742C339.475 641.502 340.301 639.78 341.953 638.576C343.605 637.344 346.153 636.672 349.597 636.56L353.167 636.434V635.09C353.167 633.214 352.789 631.912 352.033 631.184C351.305 630.456 350.255 630.092 348.883 630.092C347.791 630.092 346.741 630.274 345.733 630.638C344.753 630.974 343.815 631.366 342.919 631.814L341.785 629.042C342.737 628.51 343.843 628.062 345.103 627.698C346.363 627.306 347.693 627.11 349.093 627.11ZM350.101 639.122C347.525 639.234 345.733 639.682 344.725 640.466C343.745 641.25 343.255 642.356 343.255 643.784C343.255 645.044 343.605 645.968 344.305 646.556C345.005 647.144 345.915 647.438 347.035 647.438C348.771 647.438 350.227 646.92 351.403 645.884C352.579 644.82 353.167 643.196 353.167 641.012V638.996L350.101 639.122ZM370.775 650.42C368.171 650.42 366.071 649.454 364.475 647.522C362.907 645.562 362.123 642.65 362.123 638.786C362.123 634.922 362.921 632.01 364.517 630.05C366.113 628.062 368.213 627.068 370.817 627.068C371.909 627.068 372.861 627.222 373.673 627.53C374.485 627.81 375.185 628.202 375.773 628.706C376.389 629.21 376.907 629.77 377.327 630.386H377.579C377.551 630.022 377.495 629.49 377.411 628.79C377.355 628.062 377.327 627.488 377.327 627.068V618.08H380.981V650H378.041L377.495 646.976H377.327C376.907 647.62 376.389 648.208 375.773 648.74C375.185 649.244 374.471 649.65 373.631 649.958C372.819 650.266 371.867 650.42 370.775 650.42ZM371.447 647.354C373.631 647.354 375.157 646.71 376.025 645.422C376.921 644.106 377.369 642.132 377.369 639.5V638.828C377.369 636.028 376.949 633.886 376.109 632.402C375.269 630.89 373.701 630.134 371.405 630.134C369.557 630.134 368.171 630.932 367.247 632.528C366.351 634.096 365.903 636.21 365.903 638.87C365.903 641.558 366.351 643.644 367.247 645.128C368.171 646.612 369.571 647.354 371.447 647.354ZM411.016 627.068C413.424 627.068 415.216 627.726 416.392 629.042C417.568 630.33 418.156 632.43 418.156 635.342V650H414.544V635.51C414.544 633.746 414.194 632.416 413.494 631.52C412.822 630.624 411.758 630.176 410.302 630.176C408.286 630.176 406.844 630.806 405.976 632.066C405.136 633.326 404.716 635.16 404.716 637.568V650H401.062V635.51C401.062 634.334 400.908 633.354 400.6 632.57C400.292 631.758 399.83 631.156 399.214 630.764C398.598 630.372 397.8 630.176 396.82 630.176C395.42 630.176 394.314 630.498 393.502 631.142C392.69 631.758 392.116 632.668 391.78 633.872C391.444 635.076 391.276 636.56 391.276 638.324V650H387.622V627.488H390.562L391.108 630.554H391.318C391.766 629.77 392.312 629.126 392.956 628.622C393.6 628.09 394.314 627.698 395.098 627.446C395.882 627.194 396.694 627.068 397.534 627.068C399.158 627.068 400.516 627.376 401.608 627.992C402.7 628.608 403.498 629.56 404.002 630.848H404.254C404.954 629.56 405.906 628.608 407.11 627.992C408.342 627.376 409.644 627.068 411.016 627.068ZM432.765 627.11C435.341 627.11 437.259 627.712 438.519 628.916C439.807 630.12 440.451 632.038 440.451 634.67V650H437.805L437.091 646.808H436.923C436.307 647.62 435.677 648.306 435.033 648.866C434.417 649.398 433.689 649.79 432.849 650.042C432.037 650.294 431.029 650.42 429.825 650.42C428.565 650.42 427.431 650.182 426.423 649.706C425.415 649.23 424.617 648.502 424.029 647.522C423.441 646.514 423.147 645.254 423.147 643.742C423.147 641.502 423.973 639.78 425.625 638.576C427.277 637.344 429.825 636.672 433.269 636.56L436.839 636.434V635.09C436.839 633.214 436.461 631.912 435.705 631.184C434.977 630.456 433.927 630.092 432.555 630.092C431.463 630.092 430.413 630.274 429.405 630.638C428.425 630.974 427.487 631.366 426.591 631.814L425.457 629.042C426.409 628.51 427.515 628.062 428.775 627.698C430.035 627.306 431.365 627.11 432.765 627.11ZM433.773 639.122C431.197 639.234 429.405 639.682 428.397 640.466C427.417 641.25 426.927 642.356 426.927 643.784C426.927 645.044 427.277 645.968 427.977 646.556C428.677 647.144 429.587 647.438 430.707 647.438C432.443 647.438 433.899 646.92 435.075 645.884C436.251 644.82 436.839 643.196 436.839 641.012V638.996L433.773 639.122ZM457.177 627.068C459.781 627.068 461.867 628.034 463.435 629.966C465.031 631.898 465.829 634.81 465.829 638.702C465.829 641.25 465.465 643.406 464.737 645.17C464.009 646.906 462.987 648.222 461.671 649.118C460.383 649.986 458.871 650.42 457.135 650.42C456.043 650.42 455.077 650.266 454.237 649.958C453.425 649.65 452.725 649.258 452.137 648.782C451.549 648.278 451.045 647.732 450.625 647.144H450.373C450.429 647.62 450.485 648.222 450.541 648.95C450.597 649.678 450.625 650.308 450.625 650.84V660.08H446.971V627.488H449.953L450.457 630.554H450.625C451.045 629.91 451.549 629.322 452.137 628.79C452.725 628.258 453.425 627.838 454.237 627.53C455.077 627.222 456.057 627.068 457.177 627.068ZM456.463 630.176C455.063 630.176 453.929 630.47 453.061 631.058C452.221 631.618 451.605 632.472 451.213 633.62C450.821 634.768 450.625 636.224 450.625 637.988V638.702C450.625 640.55 450.793 642.118 451.129 643.406C451.493 644.694 452.109 645.674 452.977 646.346C453.845 647.018 455.035 647.354 456.547 647.354C457.807 647.354 458.843 646.976 459.655 646.22C460.467 645.464 461.069 644.442 461.461 643.154C461.853 641.838 462.049 640.34 462.049 638.66C462.049 636.084 461.587 634.026 460.663 632.486C459.767 630.946 458.367 630.176 456.463 630.176Z" fill="#01284E"/>
</g>
<defs>
<filter id="filter0_f_930_756" x="339.031" y="763.104" width="66.5615" height="740.422" filterUnits="userSpaceOnUse" color-interpolation-filters="sRGB">
<feFlood flood-opacity="0" result="BackgroundImageFix"/>
<feBlend mode="normal" in="SourceGraphic" in2="BackgroundImageFix" result="shape"/>
<feGaussianBlur stdDeviation="5" result="effect1_foregroundBlur_930_756"/>
</filter>
<filter id="filter1_f_930_756" x="256.343" y="868.397" width="15.3145" height="15.3145" filterUnits="userSpaceOnUse" color-interpolation-filters="sRGB">
<feFlood flood-opacity="0" result="BackgroundImageFix"/>
<feBlend mode="normal" in="SourceGraphic" in2="BackgroundImageFix" result="shape"/>
<feGaussianBlur stdDeviation="0.5625" result="effect1_foregroundBlur_930_756"/>
</filter>
<filter id="filter2_f_930_756" x="252.296" y="864.351" width="22.9717" height="22.9717" filterUnits="userSpaceOnUse" color-interpolation-filters="sRGB">
<feFlood flood-opacity="0" result="BackgroundImageFix"/>
<feBlend mode="normal" in="SourceGraphic" in2="BackgroundImageFix" result="shape"/>
<feGaussianBlur stdDeviation="0.84375" result="effect1_foregroundBlur_930_756"/>
</filter>
<filter id="filter3_f_930_756" x="248.25" y="860.305" width="31.5" height="31.5" filterUnits="userSpaceOnUse" color-interpolation-filters="sRGB">
<feFlood flood-opacity="0" result="BackgroundImageFix"/>
<feBlend mode="normal" in="SourceGraphic" in2="BackgroundImageFix" result="shape"/>
<feGaussianBlur stdDeviation="1.125" result="effect1_foregroundBlur_930_756"/>
</filter>
<filter id="filter4_f_930_756" x="414.843" y="773.397" width="15.3145" height="15.3145" filterUnits="userSpaceOnUse" color-interpolation-filters="sRGB">
<feFlood flood-opacity="0" result="BackgroundImageFix"/>
<feBlend mode="normal" in="SourceGraphic" in2="BackgroundImageFix" result="shape"/>
<feGaussianBlur stdDeviation="0.5625" result="effect1_foregroundBlur_930_756"/>
</filter>
<filter id="filter5_f_930_756" x="410.796" y="769.351" width="22.9717" height="22.9717" filterUnits="userSpaceOnUse" color-interpolation-filters="sRGB">
<feFlood flood-opacity="0" result="BackgroundImageFix"/>
<feBlend mode="normal" in="SourceGraphic" in2="BackgroundImageFix" result="shape"/>
<feGaussianBlur stdDeviation="0.84375" result="effect1_foregroundBlur_930_756"/>
</filter>
<filter id="filter6_f_930_756" x="406.75" y="765.305" width="31.5" height="31.5" filterUnits="userSpaceOnUse" color-interpolation-filters="sRGB">
<feFlood flood-opacity="0" result="BackgroundImageFix"/>
<feBlend mode="normal" in="SourceGraphic" in2="BackgroundImageFix" result="shape"/>
<feGaussianBlur stdDeviation="1.125" result="effect1_foregroundBlur_930_756"/>
</filter>
<filter id="filter7_f_930_756" x="256.843" y="1090.4" width="15.3145" height="15.3145" filterUnits="userSpaceOnUse" color-interpolation-filters="sRGB">
<feFlood flood-opacity="0" result="BackgroundImageFix"/>
<feBlend mode="normal" in="SourceGraphic" in2="BackgroundImageFix" result="shape"/>
<feGaussianBlur stdDeviation="0.5625" result="effect1_foregroundBlur_930_756"/>
</filter>
<filter id="filter8_f_930_756" x="252.796" y="1086.35" width="22.9717" height="22.9717" filterUnits="userSpaceOnUse" color-interpolation-filters="sRGB">
<feFlood flood-opacity="0" result="BackgroundImageFix"/>
<feBlend mode="normal" in="SourceGraphic" in2="BackgroundImageFix" result="shape"/>
<feGaussianBlur stdDeviation="0.84375" result="effect1_foregroundBlur_930_756"/>
</filter>
<filter id="filter9_f_930_756" x="248.75" y="1082.3" width="31.5" height="31.5" filterUnits="userSpaceOnUse" color-interpolation-filters="sRGB">
<feFlood flood-opacity="0" result="BackgroundImageFix"/>
<feBlend mode="normal" in="SourceGraphic" in2="BackgroundImageFix" result="shape"/>
<feGaussianBlur stdDeviation="1.125" result="effect1_foregroundBlur_930_756"/>
</filter>
<filter id="filter10_f_930_756" x="489.343" y="981.397" width="15.3145" height="15.3145" filterUnits="userSpaceOnUse" color-interpolation-filters="sRGB">
<feFlood flood-opacity="0" result="BackgroundImageFix"/>
<feBlend mode="normal" in="SourceGraphic" in2="BackgroundImageFix" result="shape"/>
<feGaussianBlur stdDeviation="0.5625" result="effect1_foregroundBlur_930_756"/>
</filter>
<filter id="filter11_f_930_756" x="485.296" y="977.351" width="22.9717" height="22.9717" filterUnits="userSpaceOnUse" color-interpolation-filters="sRGB">
<feFlood flood-opacity="0" result="BackgroundImageFix"/>
<feBlend mode="normal" in="SourceGraphic" in2="BackgroundImageFix" result="shape"/>
<feGaussianBlur stdDeviation="0.84375" result="effect1_foregroundBlur_930_756"/>
</filter>
<filter id="filter12_f_930_756" x="481.25" y="973.305" width="31.5" height="31.5" filterUnits="userSpaceOnUse" color-interpolation-filters="sRGB">
<feFlood flood-opacity="0" result="BackgroundImageFix"/>
<feBlend mode="normal" in="SourceGraphic" in2="BackgroundImageFix" result="shape"/>
<feGaussianBlur stdDeviation="1.125" result="effect1_foregroundBlur_930_756"/>
</filter>
<filter id="filter13_f_930_756" x="489.343" y="1183.4" width="15.3145" height="15.3145" filterUnits="userSpaceOnUse" color-interpolation-filters="sRGB">
<feFlood flood-opacity="0" result="BackgroundImageFix"/>
<feBlend mode="normal" in="SourceGraphic" in2="BackgroundImageFix" result="shape"/>
<feGaussianBlur stdDeviation="0.5625" result="effect1_foregroundBlur_930_756"/>
</filter>
<filter id="filter14_f_930_756" x="485.296" y="1179.35" width="22.9717" height="22.9717" filterUnits="userSpaceOnUse" color-interpolation-filters="sRGB">
<feFlood flood-opacity="0" result="BackgroundImageFix"/>
<feBlend mode="normal" in="SourceGraphic" in2="BackgroundImageFix" result="shape"/>
<feGaussianBlur stdDeviation="0.84375" result="effect1_foregroundBlur_930_756"/>
</filter>
<filter id="filter15_f_930_756" x="481.25" y="1175.3" width="31.5" height="31.5" filterUnits="userSpaceOnUse" color-interpolation-filters="sRGB">
<feFlood flood-opacity="0" result="BackgroundImageFix"/>
<feBlend mode="normal" in="SourceGraphic" in2="BackgroundImageFix" result="shape"/>
<feGaussianBlur stdDeviation="1.125" result="effect1_foregroundBlur_930_756"/>
</filter>
<filter id="filter16_f_930_756" x="489.343" y="1441.84" width="15.3145" height="15.3145" filterUnits="userSpaceOnUse" color-interpolation-filters="sRGB">
<feFlood flood-opacity="0" result="BackgroundImageFix"/>
<feBlend mode="normal" in="SourceGraphic" in2="BackgroundImageFix" result="shape"/>
<feGaussianBlur stdDeviation="0.5625" result="effect1_foregroundBlur_930_756"/>
</filter>
<filter id="filter17_f_930_756" x="485.296" y="1437.8" width="22.9717" height="22.9717" filterUnits="userSpaceOnUse" color-interpolation-filters="sRGB">
<feFlood flood-opacity="0" result="BackgroundImageFix"/>
<feBlend mode="normal" in="SourceGraphic" in2="BackgroundImageFix" result="shape"/>
<feGaussianBlur stdDeviation="0.84375" result="effect1_foregroundBlur_930_756"/>
</filter>
<filter id="filter18_f_930_756" x="481.25" y="1433.75" width="31.5" height="31.5" filterUnits="userSpaceOnUse" color-interpolation-filters="sRGB">
<feFlood flood-opacity="0" result="BackgroundImageFix"/>
<feBlend mode="normal" in="SourceGraphic" in2="BackgroundImageFix" result="shape"/>
<feGaussianBlur stdDeviation="1.125" result="effect1_foregroundBlur_930_756"/>
</filter>
<filter id="filter19_f_930_756" x="256.343" y="1296.4" width="15.3145" height="15.3145" filterUnits="userSpaceOnUse" color-interpolation-filters="sRGB">
<feFlood flood-opacity="0" result="BackgroundImageFix"/>
<feBlend mode="normal" in="SourceGraphic" in2="BackgroundImageFix" result="shape"/>
<feGaussianBlur stdDeviation="0.5625" result="effect1_foregroundBlur_930_756"/>
</filter>
<filter id="filter20_f_930_756" x="252.296" y="1292.35" width="22.9717" height="22.9717" filterUnits="userSpaceOnUse" color-interpolation-filters="sRGB">
<feFlood flood-opacity="0" result="BackgroundImageFix"/>
<feBlend mode="normal" in="SourceGraphic" in2="BackgroundImageFix" result="shape"/>
<feGaussianBlur stdDeviation="0.84375" result="effect1_foregroundBlur_930_756"/>
</filter>
<filter id="filter21_f_930_756" x="248.25" y="1288.3" width="31.5" height="31.5" filterUnits="userSpaceOnUse" color-interpolation-filters="sRGB">
<feFlood flood-opacity="0" result="BackgroundImageFix"/>
<feBlend mode="normal" in="SourceGraphic" in2="BackgroundImageFix" result="shape"/>
<feGaussianBlur stdDeviation="1.125" result="effect1_foregroundBlur_930_756"/>
</filter>
<clipPath id="clip0_930_756">
<rect width="760" height="2000" fill="white"/>
</clipPath>
</defs>
</svg>
