<svg width="28" height="28" viewBox="0 0 28 28" fill="none" xmlns="http://www.w3.org/2000/svg">
<g id="icon">
<path id="Vector" d="M2.86296 9.26279C3.19114 8.93471 3.63617 8.75041 4.10021 8.75041C4.56425 8.75041 5.00929 8.93471 5.33746 9.26279L14 17.9253L22.6625 9.26279C22.9925 8.94401 23.4346 8.76762 23.8934 8.77161C24.3523 8.77559 24.7912 8.95964 25.1156 9.2841C25.4401 9.60857 25.6242 10.0475 25.6281 10.5063C25.6321 10.9652 25.4557 11.4072 25.137 11.7373L15.2372 21.637C14.909 21.9651 14.464 22.1494 14 22.1494C13.5359 22.1494 13.0909 21.9651 12.7627 21.637L2.86296 11.7373C2.53489 11.4091 2.35059 10.9641 2.35059 10.5C2.35059 10.036 2.53489 9.59096 2.86296 9.26279Z" fill="#71717A"/>
</g>
</svg>
