<svg width="100" height="100" viewBox="0 0 100 100" fill="none" xmlns="http://www.w3.org/2000/svg">
<g clip-path="url(#clip0_2097_22642)">
<rect width="100" height="100" rx="50" fill="white"/>
<path d="M32.6323 40.1572C32.6323 22.9975 43.1762 18.7921 49.6953 18.751C56.2112 18.7921 66.7552 22.9975 66.7552 40.1572C66.9548 44.3215 65.4558 54.1921 57.8814 60.3786C57.6849 61.7657 57.7641 65.0169 59.6561 66.9189C62.0235 69.2981 69.7151 71.0833 72.0825 71.6773C74.4499 72.2713 82.1385 75.8385 83.3206 78.2176C84.5027 80.5968 84.7467 85.0961 83.3206 86.5431C81.5427 88.3473 75.6448 94.8497 49.6953 94.2747C23.7427 94.8497 17.8447 88.3473 16.0668 86.5431C14.4252 84.878 14.8847 80.5936 16.0668 78.2176C17.2489 75.8416 24.9407 72.2713 27.3081 71.6773C29.6754 71.0833 37.3639 69.2981 39.7313 66.9189C41.6329 65.0232 41.7025 61.7657 41.506 60.3786C33.9316 54.1921 32.4199 44.3247 32.6323 40.1572Z" fill="url(#paint0_linear_2097_22642)"/>
<path d="M49.7872 18.751C43.2777 18.751 32.6323 22.9153 32.6323 40.1572C32.4326 44.3215 33.9316 54.1921 41.506 60.3786C41.7025 61.7657 41.6233 65.0169 39.7313 66.9189C37.3639 69.2981 29.6723 71.0833 27.3081 71.6773C24.9438 72.2713 17.2489 75.8385 16.0668 78.2176C14.8847 80.5968 14.4252 84.878 16.0668 86.5431C17.8479 88.3504 23.7554 94.8655 49.7872 94.2715M49.6002 18.7573C56.1098 18.7573 66.7552 22.9216 66.7552 40.1635C66.9548 44.3278 65.4558 54.1984 57.8814 60.3849C57.6849 61.7719 57.7641 65.0232 59.6561 66.9253C62.0235 69.3044 69.7151 71.0896 72.0825 71.6836C74.4499 72.2776 82.1385 75.8448 83.3206 78.224C84.5027 80.6031 84.7467 85.1024 83.3206 86.5495C81.5395 88.3536 75.6321 94.8718 49.6002 94.2778" stroke="#005A70" stroke-width="0.631919"/>
<path d="M20.6006 68.6948L50.3911 76.0029L80.2514 68.4199V100.269L50.3911 108.066L20.6006 100.199V68.6948Z" fill="white"/>
<path d="M50.3911 108.063L20.6006 100.196V68.6948L50.3911 76.0029L80.2514 68.4199V100.269L50.3911 108.066V76.0061M27.7535 77.5353L43.0322 81.6428M27.7535 85.1184L43.0322 89.0837M57.6106 81.6365L72.8893 77.5986M57.6106 89.0837L72.8893 85.1184M27.7472 92.8847L43.0291 96.8531M57.6074 96.8531L72.8893 92.8847" stroke="#0087A8" stroke-width="0.631919" stroke-linecap="round" stroke-linejoin="round"/>
</g>
<rect x="0.625" y="0.625" width="98.75" height="98.75" rx="49.375" stroke="#C8C8CE" stroke-width="1.25"/>
<defs>
<linearGradient id="paint0_linear_2097_22642" x1="49.895" y1="18.7541" x2="49.6115" y2="94.221" gradientUnits="userSpaceOnUse">
<stop stop-color="white"/>
<stop offset="1" stop-color="#BFE5EE"/>
</linearGradient>
<clipPath id="clip0_2097_22642">
<rect width="100" height="100" rx="50" fill="white"/>
</clipPath>
</defs>
</svg>
