<svg width="101" height="100" viewBox="0 0 101 100" fill="none" xmlns="http://www.w3.org/2000/svg">
<g clip-path="url(#clip0_2091_22634)">
<rect x="0.625" width="100" height="100" rx="50" fill="white"/>
<path d="M34.5757 45.2306C34.5757 27.7866 45.2944 23.5115 51.9215 23.4697C58.5453 23.5115 69.264 27.7866 69.264 45.2306C69.467 49.464 67.9431 59.4981 60.2432 65.787C60.0434 67.1971 60.1239 70.5021 62.0473 72.4357C64.4539 74.8543 72.273 76.669 74.6796 77.2729C77.0863 77.8767 84.9022 81.503 86.1039 83.9216C87.3056 86.3402 87.5537 90.914 86.1039 92.3851C84.2965 94.2191 78.3009 100.829 51.9215 100.245C25.5389 100.829 19.5432 94.2191 17.7358 92.3851C16.067 90.6924 16.5341 86.337 17.7358 83.9216C18.9375 81.5063 26.7567 77.8767 29.1633 77.2729C31.5699 76.669 39.3858 74.8543 41.7924 72.4357C43.7255 70.5086 43.7963 67.1971 43.5965 65.787C35.8966 59.4981 34.3599 49.4672 34.5757 45.2306Z" fill="url(#paint0_linear_2091_22634)"/>
<path d="M52.0149 23.4697C45.3975 23.4697 34.5757 27.7031 34.5757 45.2306C34.3728 49.464 35.8966 59.4981 43.5965 65.787C43.7963 67.1971 43.7158 70.5021 41.7924 72.4357C39.3858 74.8543 31.5667 76.669 29.1633 77.2729C26.7599 77.8767 18.9375 81.503 17.7358 83.9216C16.5341 86.3402 16.067 90.6924 17.7358 92.3851C19.5464 94.2223 25.5518 100.845 52.0149 100.241M51.8248 23.4761C58.4422 23.4761 69.264 27.7095 69.264 45.237C69.467 49.4703 67.9431 59.5044 60.2432 65.7934C60.0434 67.2035 60.1239 70.5086 62.0473 72.4422C64.4539 74.8608 72.273 76.6755 74.6796 77.2793C77.0863 77.8832 84.9022 81.5095 86.1039 83.9281C87.3056 86.3467 87.5537 90.9204 86.1039 92.3915C84.2933 94.2255 78.288 100.852 51.8248 100.248" stroke="#005A70" stroke-width="0.642388"/>
<path d="M63.9223 99.986L72.6691 83.6466C73.9498 84.149 75.3058 84.4348 76.6811 84.4923C78.1519 84.5587 79.6232 84.3695 81.0291 83.9331C83.6084 83.1617 85.9001 81.6441 87.6134 79.5726C89.3267 77.5011 90.3844 74.9691 90.6524 72.2978C90.9204 69.6265 90.3866 66.9363 89.1186 64.5684C87.8506 62.2004 85.9057 60.2615 83.5305 58.9976C81.1553 57.7336 78.4568 57.2016 75.7775 57.469C73.0981 57.7363 70.5585 58.791 68.4809 60.4993C66.4032 62.2076 64.8811 64.4925 64.1076 67.0641C63.3341 69.6357 63.3441 72.3782 64.1363 74.9437C64.5554 76.3518 65.2168 77.6766 66.091 78.8587C66.905 79.9663 67.8981 80.931 69.0297 81.7135L60.2829 98.053L63.9223 99.986ZM79.8071 79.9576C77.7388 80.5765 75.5196 80.4619 73.5269 79.6333C71.5343 78.8048 69.8914 77.3133 68.8777 75.4129C67.8641 73.5125 67.5423 71.3204 67.9671 69.2096C68.392 67.0989 69.5372 65.2 71.208 63.8358C72.8788 62.4717 74.9718 61.7267 77.1311 61.7277C79.2903 61.7286 81.3823 62.4754 83.0511 63.8409C84.7199 65.2065 85.8623 67.1065 86.2841 69.2176C86.7059 71.3287 86.381 73.5205 85.3646 75.4201C84.7986 76.515 84.0133 77.4826 83.0574 78.263C82.1015 79.0435 80.9953 79.6202 79.8071 79.9576Z" fill="#0087A8"/>
<path d="M79.8062 79.9563C77.738 80.5752 75.5187 80.4606 73.5261 79.632C71.5335 78.8035 69.8906 77.3121 68.8769 75.4116C67.8632 73.5112 67.5415 71.3191 67.9663 69.2084C68.3912 67.0976 69.5364 65.1987 71.2072 63.8346C72.8779 62.4705 74.971 61.7254 77.1302 61.7264C79.2895 61.7273 81.3814 62.4741 83.0502 63.8397C84.719 65.2052 85.8615 67.1052 86.2833 69.2163C86.7051 71.3274 86.3802 73.5192 85.3637 75.4188C84.7977 76.5137 84.0125 77.4813 83.0566 78.2618C82.1007 79.0422 80.9945 79.6189 79.8062 79.9563Z" fill="white" fill-opacity="0.6"/>
</g>
<rect x="1.25" y="0.625" width="98.75" height="98.75" rx="49.375" stroke="#C8C8CE" stroke-width="1.25"/>
<defs>
<linearGradient id="paint0_linear_2091_22634" x1="52.1244" y1="23.4729" x2="51.8362" y2="100.19" gradientUnits="userSpaceOnUse">
<stop stop-color="white"/>
<stop offset="1" stop-color="#BFE5EE"/>
</linearGradient>
<clipPath id="clip0_2091_22634">
<rect x="0.625" width="100" height="100" rx="50" fill="white"/>
</clipPath>
</defs>
</svg>
