<svg width="101" height="100" viewBox="0 0 101 100" fill="none" xmlns="http://www.w3.org/2000/svg">
<g clip-path="url(#clip0_2091_22620)">
<rect x="0.375" width="100" height="100" rx="50" fill="white"/>
<path d="M33.8132 47.2091C33.8132 30.4806 44.0922 26.3809 50.4475 26.3408C56.7996 26.3809 67.0786 30.4806 67.0786 47.2091C67.2733 51.2688 65.8119 60.8913 58.4278 66.9224C58.2363 68.2746 58.3135 71.4441 60.158 73.2983C62.4659 75.6177 69.9642 77.358 72.2721 77.9371C74.58 78.5162 82.0754 81.9937 83.2278 84.3131C84.3802 86.6325 84.6181 91.0187 83.2278 92.4294C81.4946 94.1882 75.7448 100.527 50.4475 99.9666C25.147 100.527 19.3973 94.1882 17.664 92.4294C16.0637 90.8062 16.5116 86.6294 17.664 84.3131C18.8165 81.9968 26.3149 78.5162 28.6228 77.9371C30.9307 77.358 38.426 75.6177 40.7339 73.2983C42.5876 71.4502 42.6556 68.2746 42.464 66.9224C35.0799 60.8913 33.6062 51.2719 33.8132 47.2091Z" fill="url(#paint0_linear_2091_22620)"/>
<path d="M50.5371 99.6866C25.1594 100.266 19.4004 93.9143 17.664 92.1524C16.0637 90.5292 16.5116 86.3555 17.664 84.0361C18.8165 81.7167 26.318 78.2392 28.6228 77.6601C30.9276 77.081 38.426 75.3407 40.7339 73.0213C42.5784 71.1671 42.6556 67.9976 42.464 66.6454C35.0799 60.6143 33.6186 50.9918 33.8132 46.9321C33.8132 30.1235 44.3024 28.5049 50.6483 28.5049C56.9943 28.5049 67.0786 30.1296 67.0786 46.9383C67.2733 50.998 65.8119 60.6205 58.4278 66.6515C58.2363 68.0037 58.3135 71.1732 60.158 73.0275C62.4659 75.3469 69.9642 77.0872 72.2721 77.6663C74.58 78.2453 82.0754 81.7229 83.2278 84.0423C84.3802 86.3617 84.6181 90.7479 83.2278 92.1586C81.4915 93.9174 75.7325 100.272 50.3548 99.6927" stroke="#005A70" stroke-width="0.616039"/>
<path d="M73.7782 29.6873V17.7676L71.9585 18.3843V29.6873H73.7782Z" fill="#005B71"/>
<path d="M65.5255 22.9258L51.2686 27.7606C51.0047 27.8501 50.7187 27.8501 50.4548 27.7606L36.1979 22.9258V34.8831H36.2127L36.1807 35.0471C36.1807 36.4728 42.7549 39.6455 50.8534 39.6455C58.9519 39.6455 65.5094 36.4698 65.5094 35.0471L65.4762 34.8831H65.5267L65.5255 22.9258Z" fill="#4D6983"/>
<path d="M36.1968 20.5643L50.8618 25.537L65.5268 20.5643L71.9073 18.4003L73.1797 17.969L73.8498 17.7415L50.8618 10L27.8726 17.7415L36.1968 20.5643Z" fill="#4D6983"/>
<path d="M70.7148 32.4791V39.4385C70.7148 40.0087 70.9414 40.5556 71.3446 40.9588C71.7478 41.3621 72.2947 41.5886 72.865 41.5886C73.4353 41.5886 73.9822 41.3621 74.3854 40.9588C74.7886 40.5556 75.0152 40.0087 75.0152 39.4385V32.4791C75.0169 31.9137 74.7952 31.3705 74.3984 30.9678H71.3401C70.94 31.369 70.7151 31.9124 70.7148 32.4791Z" fill="#005B71"/>
<path d="M71.064 29.6865V30.971H71.3384H74.3992H74.6719V29.6865H73.7782H71.9585H71.064Z" fill="#0097BC"/>
</g>
<rect x="1" y="0.625" width="98.75" height="98.75" rx="49.375" stroke="#C8C8CE" stroke-width="1.25"/>
<defs>
<linearGradient id="paint0_linear_2091_22620" x1="50.6421" y1="26.3439" x2="50.3657" y2="99.9143" gradientUnits="userSpaceOnUse">
<stop stop-color="white"/>
<stop offset="1" stop-color="#BFE5EE"/>
</linearGradient>
<clipPath id="clip0_2091_22620">
<rect x="0.375" width="100" height="100" rx="50" fill="white"/>
</clipPath>
</defs>
</svg>
