<svg width="13" height="12" viewBox="0 0 13 12" fill="none" xmlns="http://www.w3.org/2000/svg">
<g id="teenyicons:play-solid">
<path id="Vector" d="M4.3322 1.67425C4.27238 1.63167 4.20201 1.60637 4.12877 1.60112C4.05554 1.59587 3.98227 1.61089 3.917 1.64451C3.85173 1.67814 3.79698 1.72908 3.75874 1.79176C3.72049 1.85444 3.70024 1.92643 3.7002 1.99985V9.99985C3.70024 10.0733 3.72049 10.1453 3.75874 10.2079C3.79698 10.2706 3.85173 10.3216 3.917 10.3552C3.98227 10.3888 4.05554 10.4038 4.12877 10.3986C4.20201 10.3933 4.27238 10.368 4.3322 10.3254L9.93219 6.32545C9.98405 6.28845 10.0263 6.2396 10.0555 6.18296C10.0846 6.12633 10.0998 6.06355 10.0998 5.99985C10.0998 5.93615 10.0846 5.87337 10.0555 5.81674C10.0263 5.7601 9.98405 5.71125 9.93219 5.67425L4.3322 1.67425Z" fill="#F3F3F3"/>
</g>
</svg>
