<svg width="1048" height="2000" viewBox="0 0 1048 2000" fill="none" xmlns="http://www.w3.org/2000/svg">
<g clip-path="url(#clip0_930_747)">
<path d="M1048 0H0V2000H1048V0Z" fill="#E6F5F8"/>
<path d="M577.569 1053.02C531.949 1053.02 510.949 1100.24 458.087 1100.24C413.915 1100.24 389.309 1052.73 338.62 1052.73C295.896 1052.73 277.632 1100.24 227.812 1100.24C189.433 1100.24 172.053 1078.76 89.5019 1078.76C60.857 1078.76 29.9706 1078.76 0 1080.98V700H1048V1079.11C980.338 1081.88 962.805 1100.24 927.327 1100.24C877.506 1100.24 854.837 1052.73 812.113 1052.73C761.423 1052.73 741.224 1100.24 697.052 1100.24C644.19 1100.24 623.19 1053.02 577.569 1053.02Z" fill="url(#paint0_linear_930_747)"/>
<g filter="url(#filter0_f_930_747)">
<path d="M1199 1096.24C1135.28 1078.53 1093.59 1074.76 1015.64 1074.76C933.085 1074.76 915.706 1096.24 877.327 1096.24C827.506 1096.24 804.837 1048.73 762.113 1048.73C711.423 1048.73 691.224 1096.24 647.052 1096.24C594.19 1096.24 573.19 1049.02 527.569 1049.02C481.949 1049.02 460.949 1096.24 408.087 1096.24C363.915 1096.24 339.309 1048.73 288.62 1048.73C245.896 1048.73 227.632 1096.24 177.812 1096.24C139.433 1096.24 122.053 1074.76 39.5019 1074.76C-21.5066 1074.76 -92.6831 1074.76 -143.523 1096.24" stroke="black" stroke-opacity="0.4" stroke-width="3"/>
</g>
<path d="M408.087 1100.24C460.949 1100.24 481.949 1053.02 527.569 1053.02C573.19 1053.02 594.19 1100.24 647.052 1100.24C691.224 1100.24 711.423 1052.73 762.113 1052.73C804.837 1052.73 827.506 1100.24 877.327 1100.24C912.805 1100.24 930.338 1081.89 998 1079.11V1300H-50V1080.98C-20.0294 1078.76 10.857 1078.76 39.5019 1078.76C122.053 1078.76 139.433 1100.24 177.812 1100.24C227.632 1100.24 245.896 1052.73 288.62 1052.73C339.309 1052.73 363.915 1100.24 408.087 1100.24Z" fill="url(#paint1_linear_930_747)"/>
<path d="M998 1079.11V1300H1051V1080C1048.2 1078 1014.5 1078.57 998 1079.11Z" fill="url(#paint2_linear_930_747)"/>
<path d="M1199 1100.24C1135.28 1082.53 1093.59 1078.76 1015.64 1078.76C933.085 1078.76 915.706 1100.24 877.327 1100.24C827.506 1100.24 804.837 1052.73 762.113 1052.73C711.423 1052.73 691.224 1100.24 647.052 1100.24C594.19 1100.24 573.19 1053.02 527.569 1053.02C481.949 1053.02 460.949 1100.24 408.087 1100.24C363.915 1100.24 339.309 1052.73 288.62 1052.73C245.896 1052.73 227.632 1100.24 177.812 1100.24C139.433 1100.24 122.053 1078.76 39.5019 1078.76C-21.5066 1078.76 -92.6831 1078.76 -143.523 1100.24" stroke="#0088A9" stroke-width="3"/>
<path d="M408.087 1100.24C363.915 1100.24 339.309 1052.73 288.62 1052.73C245.896 1052.73 227.632 1100.24 177.812 1100.24C139.433 1100.24 122.053 1078.76 39.5018 1078.76C-21.5066 1078.76 -92.6831 1078.76 -143.523 1100.24" stroke="#005B71" stroke-width="5" stroke-linecap="round"/>
<path d="M407.755 1104.01C409.725 1104.01 411.322 1102.42 411.322 1100.45C411.322 1098.48 409.725 1096.88 407.755 1096.88C405.785 1096.88 404.188 1098.48 404.188 1100.45C404.188 1102.42 405.785 1104.01 407.755 1104.01Z" fill="#005B71" stroke="#005B71"/>
<g filter="url(#filter1_f_930_747)">
<circle cx="179" cy="1155" r="10.6129" stroke="#005B71" stroke-opacity="0.8" stroke-width="2"/>
</g>
<g filter="url(#filter2_f_930_747)">
<circle cx="178.613" cy="1154.61" r="16.4194" stroke="#005B71" stroke-opacity="0.6" stroke-width="2"/>
</g>
<g filter="url(#filter3_f_930_747)">
<circle cx="179" cy="1155" r="23" stroke="#005B71" stroke-opacity="0.4" stroke-width="2"/>
</g>
<path d="M180.542 1148.81L179.991 1154.09L185.276 1152.61L185.662 1155.14L180.597 1155.55L183.872 1159.9L181.505 1161.19L179.165 1156.38L177.046 1161.19L174.596 1159.9L177.817 1155.55L172.807 1155.14L173.192 1152.61L178.422 1154.09L177.844 1148.81H180.542Z" fill="#005B71"/>
<path d="M163.932 1209.91C163.932 1210.59 163.766 1211.18 163.436 1211.66C163.105 1212.14 162.63 1212.51 162.012 1212.78C161.393 1213.03 160.657 1213.16 159.804 1213.16C159.388 1213.16 158.988 1213.13 158.604 1213.08C158.22 1213.04 157.862 1212.97 157.532 1212.89C157.201 1212.8 156.908 1212.7 156.652 1212.57V1210.94C157.078 1211.13 157.58 1211.3 158.156 1211.46C158.732 1211.61 159.318 1211.69 159.916 1211.69C160.428 1211.69 160.854 1211.62 161.196 1211.48C161.537 1211.34 161.793 1211.15 161.964 1210.9C162.134 1210.66 162.22 1210.37 162.22 1210.04C162.22 1209.69 162.129 1209.39 161.948 1209.16C161.777 1208.91 161.505 1208.69 161.132 1208.49C160.769 1208.27 160.278 1208.05 159.66 1207.82C159.233 1207.66 158.844 1207.48 158.492 1207.29C158.15 1207.09 157.846 1206.85 157.58 1206.58C157.324 1206.32 157.126 1206.01 156.988 1205.66C156.849 1205.3 156.78 1204.89 156.78 1204.42C156.78 1203.79 156.934 1203.26 157.244 1202.81C157.564 1202.36 158.001 1202.02 158.556 1201.78C159.11 1201.54 159.756 1201.42 160.492 1201.42C161.11 1201.42 161.681 1201.48 162.204 1201.61C162.737 1201.73 163.244 1201.89 163.724 1202.1L163.18 1203.53C162.742 1203.35 162.3 1203.2 161.852 1203.08C161.404 1202.96 160.934 1202.9 160.444 1202.9C160.017 1202.9 159.66 1202.97 159.372 1203.1C159.084 1203.22 158.865 1203.4 158.716 1203.62C158.577 1203.85 158.508 1204.11 158.508 1204.41C158.508 1204.76 158.588 1205.05 158.748 1205.29C158.908 1205.52 159.164 1205.74 159.516 1205.94C159.868 1206.14 160.332 1206.35 160.908 1206.58C161.548 1206.83 162.092 1207.1 162.54 1207.38C162.998 1207.67 163.345 1208.02 163.58 1208.42C163.814 1208.82 163.932 1209.31 163.932 1209.91ZM170.008 1213H168.28V1203.06H164.856V1201.58H173.432V1203.06H170.008V1213ZM181.179 1213L179.963 1209.7H175.547L174.331 1213H172.539L176.875 1201.53H178.667L182.987 1213H181.179ZM178.331 1204.98C178.299 1204.87 178.24 1204.69 178.155 1204.46C178.08 1204.21 178.006 1203.97 177.931 1203.72C177.856 1203.46 177.798 1203.26 177.755 1203.1C177.702 1203.31 177.638 1203.54 177.563 1203.8C177.499 1204.05 177.435 1204.27 177.371 1204.49C177.307 1204.69 177.254 1204.86 177.211 1204.98L176.059 1208.2H179.483L178.331 1204.98ZM187.728 1201.58C188.709 1201.58 189.514 1201.7 190.144 1201.94C190.773 1202.19 191.242 1202.56 191.552 1203.05C191.861 1203.53 192.016 1204.14 192.016 1204.87C192.016 1205.46 191.904 1205.95 191.68 1206.36C191.466 1206.75 191.189 1207.08 190.848 1207.34C190.506 1207.58 190.149 1207.78 189.776 1207.93L192.976 1213H190.992L188.24 1208.38H186.256V1213H184.528V1201.58H187.728ZM187.616 1203.05H186.256V1206.94H187.696C188.282 1206.94 188.762 1206.86 189.136 1206.71C189.52 1206.56 189.797 1206.34 189.968 1206.04C190.149 1205.74 190.24 1205.37 190.24 1204.94C190.24 1204.48 190.144 1204.11 189.952 1203.85C189.77 1203.57 189.482 1203.37 189.088 1203.24C188.704 1203.11 188.213 1203.05 187.616 1203.05ZM198.493 1213H196.765V1203.06H193.341V1201.58H201.917V1203.06H198.493V1213Z" fill="#01284E"/>
<path d="M156.958 1236.56C156.958 1237.55 156.832 1238.46 156.58 1239.27C156.34 1240.08 155.968 1240.77 155.464 1241.36C154.972 1241.95 154.342 1242.39 153.574 1242.69L156.67 1246.06H153.61L151.216 1243.18C151.168 1243.18 151.114 1243.18 151.054 1243.18C151.006 1243.18 150.958 1243.18 150.91 1243.18C149.878 1243.18 148.978 1243.02 148.21 1242.71C147.454 1242.39 146.83 1241.94 146.338 1241.36C145.846 1240.77 145.474 1240.07 145.222 1239.26C144.982 1238.44 144.862 1237.53 144.862 1236.54C144.862 1235.21 145.078 1234.05 145.51 1233.06C145.954 1232.08 146.62 1231.32 147.508 1230.78C148.408 1230.23 149.548 1229.95 150.928 1229.95C152.284 1229.95 153.406 1230.23 154.294 1230.78C155.182 1231.32 155.848 1232.09 156.292 1233.08C156.736 1234.07 156.958 1235.22 156.958 1236.56ZM147.292 1236.56C147.292 1237.53 147.418 1238.36 147.67 1239.06C147.934 1239.75 148.33 1240.29 148.858 1240.66C149.398 1241.03 150.082 1241.22 150.91 1241.22C151.762 1241.22 152.452 1241.03 152.98 1240.66C153.508 1240.29 153.898 1239.75 154.15 1239.06C154.402 1238.36 154.528 1237.53 154.528 1236.56C154.528 1235.1 154.246 1233.96 153.682 1233.14C153.118 1232.31 152.2 1231.89 150.928 1231.89C150.088 1231.89 149.398 1232.08 148.858 1232.45C148.33 1232.82 147.934 1233.36 147.67 1234.05C147.418 1234.75 147.292 1235.58 147.292 1236.56ZM165.059 1243H162.791V1234.99C162.791 1234.73 162.791 1234.46 162.791 1234.18C162.803 1233.9 162.815 1233.63 162.827 1233.35C162.839 1233.06 162.851 1232.8 162.863 1232.56C162.743 1232.68 162.593 1232.82 162.413 1232.99C162.233 1233.15 162.047 1233.31 161.855 1233.48L160.415 1234.63L159.281 1233.23L163.169 1230.15H165.059V1243ZM182.573 1243H173.771V1241.33L177.047 1238.01C177.695 1237.35 178.223 1236.79 178.631 1236.32C179.051 1235.84 179.357 1235.4 179.549 1234.99C179.753 1234.58 179.855 1234.14 179.855 1233.66C179.855 1233.07 179.687 1232.63 179.351 1232.34C179.015 1232.04 178.571 1231.89 178.019 1231.89C177.479 1231.89 176.975 1232.01 176.507 1232.24C176.039 1232.45 175.553 1232.76 175.049 1233.17L173.807 1231.68C174.167 1231.37 174.551 1231.08 174.959 1230.83C175.367 1230.57 175.829 1230.36 176.345 1230.2C176.861 1230.05 177.461 1229.97 178.145 1229.97C178.973 1229.97 179.681 1230.12 180.269 1230.42C180.869 1230.71 181.331 1231.11 181.655 1231.62C181.979 1232.14 182.141 1232.74 182.141 1233.42C182.141 1233.95 182.063 1234.44 181.907 1234.9C181.751 1235.34 181.523 1235.78 181.223 1236.21C180.923 1236.65 180.557 1237.08 180.125 1237.53C179.693 1237.97 179.207 1238.45 178.667 1238.97L176.633 1240.93V1241.04H182.573V1243ZM192.838 1236.56C192.838 1237.6 192.76 1238.53 192.604 1239.35C192.448 1240.16 192.19 1240.86 191.83 1241.43C191.482 1242 191.026 1242.43 190.462 1242.73C189.91 1243.03 189.232 1243.18 188.428 1243.18C187.42 1243.18 186.592 1242.92 185.944 1242.39C185.296 1241.86 184.816 1241.1 184.504 1240.12C184.192 1239.12 184.036 1237.94 184.036 1236.56C184.036 1235.18 184.18 1233.99 184.468 1233.01C184.756 1232.03 185.218 1231.27 185.854 1230.74C186.502 1230.21 187.36 1229.95 188.428 1229.95C189.436 1229.95 190.264 1230.21 190.912 1230.74C191.56 1231.26 192.04 1232.01 192.352 1233.01C192.676 1233.99 192.838 1235.18 192.838 1236.56ZM186.322 1236.57C186.322 1237.62 186.388 1238.49 186.52 1239.2C186.652 1239.9 186.868 1240.43 187.168 1240.79C187.48 1241.13 187.9 1241.31 188.428 1241.31C188.956 1241.31 189.37 1241.13 189.67 1240.79C189.982 1240.44 190.204 1239.91 190.336 1239.2C190.48 1238.49 190.552 1237.62 190.552 1236.57C190.552 1235.52 190.48 1234.64 190.336 1233.95C190.204 1233.24 189.982 1232.71 189.67 1232.36C189.37 1232 188.956 1231.82 188.428 1231.82C187.9 1231.82 187.48 1232 187.168 1232.36C186.868 1232.71 186.652 1233.23 186.52 1233.93C186.388 1234.62 186.322 1235.51 186.322 1236.57ZM203.175 1243H194.373V1241.33L197.649 1238.01C198.297 1237.35 198.825 1236.79 199.233 1236.32C199.653 1235.84 199.959 1235.4 200.151 1234.99C200.355 1234.58 200.457 1234.14 200.457 1233.66C200.457 1233.07 200.289 1232.63 199.953 1232.34C199.617 1232.04 199.173 1231.89 198.621 1231.89C198.081 1231.89 197.577 1232.01 197.109 1232.24C196.641 1232.45 196.155 1232.76 195.651 1233.17L194.409 1231.68C194.769 1231.37 195.153 1231.08 195.561 1230.83C195.969 1230.57 196.431 1230.36 196.947 1230.2C197.463 1230.05 198.063 1229.97 198.747 1229.97C199.575 1229.97 200.283 1230.12 200.871 1230.42C201.471 1230.71 201.933 1231.11 202.257 1231.62C202.581 1232.14 202.743 1232.74 202.743 1233.42C202.743 1233.95 202.665 1234.44 202.509 1234.9C202.353 1235.34 202.125 1235.78 201.825 1236.21C201.525 1236.65 201.159 1237.08 200.727 1237.53C200.295 1237.97 199.809 1238.45 199.269 1238.97L197.235 1240.93V1241.04H203.175V1243ZM213.475 1243H204.673V1241.33L207.949 1238.01C208.597 1237.35 209.125 1236.79 209.533 1236.32C209.953 1235.84 210.259 1235.4 210.451 1234.99C210.655 1234.58 210.757 1234.14 210.757 1233.66C210.757 1233.07 210.589 1232.63 210.253 1232.34C209.917 1232.04 209.473 1231.89 208.921 1231.89C208.381 1231.89 207.877 1232.01 207.409 1232.24C206.941 1232.45 206.455 1232.76 205.951 1233.17L204.709 1231.68C205.069 1231.37 205.453 1231.08 205.861 1230.83C206.269 1230.57 206.731 1230.36 207.247 1230.2C207.763 1230.05 208.363 1229.97 209.047 1229.97C209.875 1229.97 210.583 1230.12 211.171 1230.42C211.771 1230.71 212.233 1231.11 212.557 1231.62C212.881 1232.14 213.043 1232.74 213.043 1233.42C213.043 1233.95 212.965 1234.44 212.809 1234.9C212.653 1235.34 212.425 1235.78 212.125 1236.21C211.825 1236.65 211.459 1237.08 211.027 1237.53C210.595 1237.97 210.109 1238.45 209.569 1238.97L207.535 1240.93V1241.04H213.475V1243Z" fill="#005B71"/>
<g filter="url(#filter4_f_930_747)">
<circle cx="409" cy="1155" r="10.6129" stroke="#005B71" stroke-opacity="0.8" stroke-width="2"/>
</g>
<g filter="url(#filter5_f_930_747)">
<circle cx="408.613" cy="1154.61" r="16.4194" stroke="#005B71" stroke-opacity="0.6" stroke-width="2"/>
</g>
<g filter="url(#filter6_f_930_747)">
<circle cx="409" cy="1155" r="23" stroke="#005B71" stroke-opacity="0.4" stroke-width="2"/>
</g>
<path d="M410.542 1148.81L409.991 1154.09L415.276 1152.61L415.662 1155.14L410.597 1155.55L413.872 1159.9L411.505 1161.19L409.165 1156.38L407.046 1161.19L404.596 1159.9L407.817 1155.55L402.807 1155.14L403.192 1152.61L408.422 1154.09L407.844 1148.81H410.542Z" fill="#005B71"/>
<path d="M369.394 1213L365.938 1203.29H365.874C365.885 1203.5 365.901 1203.79 365.922 1204.15C365.944 1204.51 365.96 1204.9 365.97 1205.32C365.981 1205.74 365.986 1206.15 365.986 1206.55V1213H364.418V1201.58H366.882L370.162 1210.74H370.226L373.602 1201.58H376.066V1213H374.386V1206.46C374.386 1206.08 374.392 1205.7 374.402 1205.3C374.424 1204.9 374.44 1204.52 374.45 1204.17C374.472 1203.82 374.488 1203.53 374.498 1203.3H374.434L370.882 1213H369.394ZM387.426 1201.58L383.394 1213H381.602L377.586 1201.58H379.362L381.81 1208.74C381.906 1209 381.997 1209.28 382.082 1209.58C382.167 1209.86 382.247 1210.15 382.322 1210.44C382.397 1210.73 382.455 1211 382.498 1211.26C382.551 1211 382.61 1210.73 382.674 1210.44C382.749 1210.15 382.829 1209.86 382.914 1209.56C383.01 1209.26 383.101 1208.98 383.186 1208.73L385.634 1201.58H387.426ZM392.15 1201.58C393.643 1201.58 394.731 1201.88 395.414 1202.49C396.096 1203.09 396.438 1203.92 396.438 1205C396.438 1205.48 396.358 1205.94 396.198 1206.38C396.048 1206.81 395.798 1207.21 395.446 1207.56C395.094 1207.9 394.624 1208.17 394.038 1208.38C393.462 1208.57 392.752 1208.66 391.91 1208.66H390.678V1213H388.95V1201.58H392.15ZM392.022 1203.03H390.678V1207.21H391.718C392.368 1207.21 392.912 1207.14 393.35 1207C393.787 1206.85 394.112 1206.62 394.326 1206.31C394.55 1205.99 394.662 1205.58 394.662 1205.06C394.662 1204.38 394.448 1203.87 394.022 1203.54C393.606 1203.2 392.939 1203.03 392.022 1203.03ZM406.247 1201.58C407.217 1201.58 408.028 1201.67 408.679 1201.85C409.34 1202.03 409.836 1202.33 410.167 1202.76C410.508 1203.18 410.679 1203.73 410.679 1204.42C410.679 1204.87 410.599 1205.27 410.439 1205.62C410.279 1205.97 410.044 1206.25 409.735 1206.49C409.436 1206.71 409.063 1206.86 408.615 1206.94V1207.02C409.073 1207.09 409.484 1207.23 409.847 1207.43C410.209 1207.62 410.497 1207.91 410.711 1208.28C410.924 1208.65 411.031 1209.14 411.031 1209.74C411.031 1210.43 410.865 1211.02 410.535 1211.51C410.215 1211.99 409.751 1212.36 409.143 1212.62C408.545 1212.87 407.831 1213 406.999 1213H402.903V1201.58H406.247ZM406.535 1206.34C407.431 1206.34 408.044 1206.2 408.375 1205.91C408.716 1205.62 408.887 1205.2 408.887 1204.63C408.887 1204.06 408.684 1203.65 408.279 1203.4C407.873 1203.15 407.228 1203.03 406.343 1203.03H404.631V1206.34H406.535ZM404.631 1207.75V1211.56H406.727C407.655 1211.56 408.3 1211.38 408.663 1211.02C409.025 1210.65 409.207 1210.17 409.207 1209.58C409.207 1209.21 409.127 1208.89 408.967 1208.62C408.807 1208.34 408.535 1208.13 408.151 1207.98C407.777 1207.83 407.265 1207.75 406.615 1207.75H404.631ZM419.835 1213H413.403V1201.58H419.835V1203.05H415.131V1206.31H419.547V1207.77H415.131V1211.51H419.835V1213ZM426.149 1213H424.421V1203.06H420.997V1201.58H429.573V1203.06H426.149V1213ZM437.32 1213L436.104 1209.7H431.688L430.472 1213H428.68L433.016 1201.53H434.808L439.128 1213H437.32ZM434.472 1204.98C434.44 1204.87 434.381 1204.69 434.296 1204.46C434.221 1204.21 434.146 1203.97 434.072 1203.72C433.997 1203.46 433.938 1203.26 433.896 1203.1C433.842 1203.31 433.778 1203.54 433.704 1203.8C433.64 1204.05 433.576 1204.27 433.512 1204.49C433.448 1204.69 433.394 1204.86 433.352 1204.98L432.2 1208.2H435.624L434.472 1204.98ZM448.201 1201.4C448.787 1201.4 449.294 1201.5 449.721 1201.7C450.158 1201.9 450.494 1202.17 450.729 1202.54C450.974 1202.9 451.097 1203.35 451.097 1203.88C451.097 1204.56 450.878 1205.14 450.441 1205.62C450.003 1206.1 449.459 1206.54 448.809 1206.92L451.641 1209.66C451.897 1209.31 452.11 1208.94 452.281 1208.52C452.451 1208.09 452.595 1207.64 452.713 1207.16H454.441C454.281 1207.82 454.062 1208.46 453.785 1209.08C453.518 1209.69 453.171 1210.24 452.745 1210.73L455.081 1213H452.873L451.625 1211.8C451.369 1212 451.107 1212.19 450.841 1212.36C450.574 1212.53 450.286 1212.67 449.977 1212.79C449.678 1212.9 449.353 1212.98 449.001 1213.05C448.649 1213.12 448.265 1213.16 447.849 1213.16C447.081 1213.16 446.414 1213.04 445.849 1212.79C445.283 1212.54 444.846 1212.17 444.537 1211.7C444.238 1211.22 444.089 1210.65 444.089 1209.99C444.089 1209.45 444.179 1208.98 444.361 1208.58C444.553 1208.19 444.825 1207.84 445.177 1207.54C445.539 1207.23 445.961 1206.94 446.441 1206.66C446.206 1206.4 445.987 1206.13 445.785 1205.85C445.593 1205.56 445.433 1205.26 445.305 1204.95C445.187 1204.64 445.129 1204.31 445.129 1203.94C445.129 1203.41 445.251 1202.96 445.497 1202.58C445.753 1202.2 446.11 1201.91 446.569 1201.7C447.038 1201.5 447.582 1201.4 448.201 1201.4ZM447.449 1207.7C447.118 1207.91 446.835 1208.11 446.601 1208.33C446.377 1208.53 446.195 1208.76 446.057 1209.02C445.929 1209.26 445.865 1209.55 445.865 1209.9C445.865 1210.44 446.051 1210.88 446.425 1211.21C446.809 1211.53 447.31 1211.69 447.929 1211.69C448.515 1211.69 449.022 1211.6 449.449 1211.42C449.886 1211.23 450.259 1211.01 450.569 1210.74L447.449 1207.7ZM448.153 1202.76C447.758 1202.76 447.427 1202.86 447.161 1203.06C446.894 1203.27 446.761 1203.57 446.761 1203.98C446.761 1204.33 446.851 1204.66 447.033 1204.97C447.214 1205.27 447.47 1205.59 447.801 1205.94C448.377 1205.61 448.798 1205.3 449.065 1205C449.331 1204.69 449.465 1204.34 449.465 1203.94C449.465 1203.58 449.342 1203.29 449.097 1203.08C448.851 1202.87 448.537 1202.76 448.153 1202.76ZM352.145 1233V1221.58H353.873V1231.51H358.753V1233H352.145ZM367.843 1233L366.627 1229.7H362.211L360.995 1233H359.203L363.539 1221.53H365.331L369.651 1233H367.843ZM364.995 1224.98C364.963 1224.87 364.904 1224.69 364.819 1224.46C364.744 1224.21 364.67 1223.97 364.595 1223.72C364.52 1223.46 364.462 1223.26 364.419 1223.1C364.366 1223.31 364.302 1223.54 364.227 1223.8C364.163 1224.05 364.099 1224.27 364.035 1224.49C363.971 1224.69 363.918 1224.86 363.875 1224.98L362.723 1228.2H366.147L364.995 1224.98ZM380.568 1233H378.472L372.696 1223.77H372.632C372.643 1223.98 372.653 1224.21 372.664 1224.46C372.685 1224.7 372.701 1224.96 372.712 1225.24C372.723 1225.51 372.733 1225.78 372.744 1226.07C372.755 1226.35 372.76 1226.63 372.76 1226.92V1233H371.192V1221.58H373.272L379.032 1230.76H379.08C379.069 1230.6 379.059 1230.4 379.048 1230.17C379.037 1229.92 379.027 1229.66 379.016 1229.38C379.016 1229.11 379.011 1228.82 379 1228.54C378.989 1228.25 378.979 1227.98 378.968 1227.72V1221.58H380.568V1233ZM392.862 1227.18C392.862 1228.46 392.622 1229.53 392.142 1230.39C391.662 1231.26 390.968 1231.91 390.062 1232.34C389.166 1232.78 388.083 1233 386.814 1233H383.614V1221.58H387.15C388.312 1221.58 389.32 1221.79 390.174 1222.22C391.027 1222.64 391.688 1223.27 392.158 1224.1C392.627 1224.93 392.862 1225.95 392.862 1227.18ZM391.054 1227.22C391.054 1226.26 390.899 1225.47 390.59 1224.86C390.28 1224.24 389.822 1223.78 389.214 1223.48C388.616 1223.18 387.891 1223.03 387.038 1223.03H385.342V1231.54H386.734C388.174 1231.54 389.251 1231.18 389.966 1230.46C390.691 1229.73 391.054 1228.65 391.054 1227.22ZM398.868 1233H394.436V1232.01L395.796 1231.61V1222.98L394.436 1222.57V1221.58H398.868V1222.57L397.524 1222.98V1231.61L398.868 1232.01V1233ZM410.38 1233H408.284L402.508 1223.77H402.444C402.455 1223.98 402.466 1224.21 402.476 1224.46C402.498 1224.7 402.514 1224.96 402.524 1225.24C402.535 1225.51 402.546 1225.78 402.556 1226.07C402.567 1226.35 402.572 1226.63 402.572 1226.92V1233H401.004V1221.58H403.084L408.844 1230.76H408.892C408.882 1230.6 408.871 1230.4 408.86 1230.17C408.85 1229.92 408.839 1229.66 408.828 1229.38C408.828 1229.11 408.823 1228.82 408.812 1228.54C408.802 1228.25 408.791 1227.98 408.78 1227.72V1221.58H410.38V1233ZM418.194 1226.86H422.322V1232.55C421.714 1232.75 421.09 1232.9 420.45 1233C419.821 1233.11 419.101 1233.16 418.29 1233.16C417.128 1233.16 416.141 1232.93 415.33 1232.46C414.53 1231.99 413.917 1231.31 413.49 1230.44C413.074 1229.57 412.866 1228.51 412.866 1227.29C412.866 1226.09 413.101 1225.06 413.57 1224.18C414.04 1223.31 414.712 1222.63 415.586 1222.15C416.472 1221.66 417.544 1221.42 418.802 1221.42C419.432 1221.42 420.034 1221.48 420.61 1221.61C421.186 1221.73 421.72 1221.89 422.21 1222.1L421.586 1223.54C421.192 1223.36 420.749 1223.21 420.258 1223.1C419.778 1222.97 419.272 1222.9 418.738 1222.9C417.896 1222.9 417.165 1223.09 416.546 1223.45C415.938 1223.8 415.469 1224.31 415.138 1224.97C414.818 1225.62 414.658 1226.4 414.658 1227.3C414.658 1228.16 414.792 1228.91 415.058 1229.58C415.325 1230.24 415.746 1230.75 416.322 1231.13C416.898 1231.5 417.65 1231.69 418.578 1231.69C418.888 1231.69 419.16 1231.68 419.394 1231.66C419.629 1231.62 419.842 1231.59 420.034 1231.56C420.237 1231.52 420.429 1231.48 420.61 1231.45V1228.34H418.194V1226.86ZM432.408 1221.58C433.901 1221.58 434.989 1221.88 435.672 1222.49C436.354 1223.09 436.696 1223.92 436.696 1225C436.696 1225.48 436.616 1225.94 436.456 1226.38C436.306 1226.81 436.056 1227.21 435.704 1227.56C435.352 1227.9 434.882 1228.17 434.296 1228.38C433.72 1228.57 433.01 1228.66 432.168 1228.66H430.936V1233H429.208V1221.58H432.408ZM432.28 1223.03H430.936V1227.21H431.976C432.626 1227.21 433.17 1227.14 433.608 1227C434.045 1226.85 434.37 1226.62 434.584 1226.31C434.808 1225.99 434.92 1225.58 434.92 1225.06C434.92 1224.38 434.706 1223.87 434.28 1223.54C433.864 1223.2 433.197 1223.03 432.28 1223.03ZM445.328 1233L444.112 1229.7H439.696L438.48 1233H436.688L441.024 1221.53H442.816L447.136 1233H445.328ZM442.48 1224.98C442.448 1224.87 442.389 1224.69 442.304 1224.46C442.229 1224.21 442.154 1223.97 442.08 1223.72C442.005 1223.46 441.946 1223.26 441.904 1223.1C441.85 1223.31 441.786 1223.54 441.712 1223.8C441.648 1224.05 441.584 1224.27 441.52 1224.49C441.456 1224.69 441.402 1224.86 441.36 1224.98L440.208 1228.2H443.632L442.48 1224.98ZM453.132 1226.86H457.26V1232.55C456.652 1232.75 456.028 1232.9 455.388 1233C454.758 1233.11 454.038 1233.16 453.228 1233.16C452.065 1233.16 451.078 1232.93 450.268 1232.46C449.468 1231.99 448.854 1231.31 448.428 1230.44C448.012 1229.57 447.804 1228.51 447.804 1227.29C447.804 1226.09 448.038 1225.06 448.508 1224.18C448.977 1223.31 449.649 1222.63 450.524 1222.15C451.409 1221.66 452.481 1221.42 453.74 1221.42C454.369 1221.42 454.972 1221.48 455.548 1221.61C456.124 1221.73 456.657 1221.89 457.148 1222.1L456.524 1223.54C456.129 1223.36 455.686 1223.21 455.196 1223.1C454.716 1222.97 454.209 1222.9 453.676 1222.9C452.833 1222.9 452.102 1223.09 451.484 1223.45C450.876 1223.8 450.406 1224.31 450.076 1224.97C449.756 1225.62 449.596 1226.4 449.596 1227.3C449.596 1228.16 449.729 1228.91 449.996 1229.58C450.262 1230.24 450.684 1230.75 451.26 1231.13C451.836 1231.5 452.588 1231.69 453.516 1231.69C453.825 1231.69 454.097 1231.68 454.332 1231.66C454.566 1231.62 454.78 1231.59 454.972 1231.56C455.174 1231.52 455.366 1231.48 455.548 1231.45V1228.34H453.132V1226.86ZM466.421 1233H459.989V1221.58H466.421V1223.05H461.717V1226.31H466.133V1227.77H461.717V1231.51H466.421V1233Z" fill="#01284E"/>
<path d="M386.958 1256.56C386.958 1257.55 386.832 1258.46 386.58 1259.27C386.34 1260.08 385.968 1260.77 385.464 1261.36C384.972 1261.95 384.342 1262.39 383.574 1262.69L386.67 1266.06H383.61L381.216 1263.18C381.168 1263.18 381.114 1263.18 381.054 1263.18C381.006 1263.18 380.958 1263.18 380.91 1263.18C379.878 1263.18 378.978 1263.02 378.21 1262.71C377.454 1262.39 376.83 1261.94 376.338 1261.36C375.846 1260.77 375.474 1260.07 375.222 1259.26C374.982 1258.44 374.862 1257.53 374.862 1256.54C374.862 1255.21 375.078 1254.05 375.51 1253.06C375.954 1252.08 376.62 1251.32 377.508 1250.78C378.408 1250.23 379.548 1249.95 380.928 1249.95C382.284 1249.95 383.406 1250.23 384.294 1250.78C385.182 1251.32 385.848 1252.09 386.292 1253.08C386.736 1254.07 386.958 1255.22 386.958 1256.56ZM377.292 1256.56C377.292 1257.53 377.418 1258.36 377.67 1259.06C377.934 1259.75 378.33 1260.29 378.858 1260.66C379.398 1261.03 380.082 1261.22 380.91 1261.22C381.762 1261.22 382.452 1261.03 382.98 1260.66C383.508 1260.29 383.898 1259.75 384.15 1259.06C384.402 1258.36 384.528 1257.53 384.528 1256.56C384.528 1255.1 384.246 1253.96 383.682 1253.14C383.118 1252.31 382.2 1251.89 380.928 1251.89C380.088 1251.89 379.398 1252.08 378.858 1252.45C378.33 1252.82 377.934 1253.36 377.67 1254.05C377.418 1254.75 377.292 1255.58 377.292 1256.56ZM397.093 1253.08C397.093 1253.66 396.973 1254.16 396.733 1254.59C396.505 1255.03 396.187 1255.38 395.779 1255.66C395.371 1255.92 394.897 1256.11 394.357 1256.23V1256.29C395.389 1256.41 396.169 1256.72 396.697 1257.24C397.225 1257.76 397.489 1258.44 397.489 1259.29C397.489 1260.04 397.309 1260.7 396.949 1261.29C396.589 1261.88 396.031 1262.34 395.275 1262.68C394.531 1263.01 393.571 1263.18 392.395 1263.18C391.699 1263.18 391.051 1263.12 390.451 1263C389.851 1262.89 389.287 1262.72 388.759 1262.48V1260.48C389.299 1260.76 389.875 1260.97 390.487 1261.11C391.099 1261.25 391.675 1261.33 392.215 1261.33C393.259 1261.33 393.997 1261.14 394.429 1260.77C394.861 1260.38 395.077 1259.86 395.077 1259.18C395.077 1258.75 394.969 1258.4 394.753 1258.12C394.537 1257.85 394.183 1257.64 393.691 1257.51C393.211 1257.37 392.581 1257.29 391.801 1257.29H390.721V1255.48H391.819C392.575 1255.48 393.169 1255.39 393.601 1255.22C394.045 1255.06 394.357 1254.82 394.537 1254.52C394.729 1254.22 394.825 1253.87 394.825 1253.48C394.825 1252.96 394.657 1252.56 394.321 1252.27C393.985 1251.98 393.481 1251.84 392.809 1251.84C392.377 1251.84 391.987 1251.89 391.639 1251.98C391.291 1252.08 390.973 1252.21 390.685 1252.36C390.397 1252.51 390.127 1252.66 389.875 1252.83L388.795 1251.26C389.119 1251.02 389.485 1250.81 389.893 1250.62C390.301 1250.41 390.757 1250.26 391.261 1250.15C391.765 1250.03 392.317 1249.97 392.917 1249.97C394.249 1249.97 395.275 1250.25 395.995 1250.81C396.727 1251.37 397.093 1252.12 397.093 1253.08ZM412.573 1263H403.771V1261.33L407.047 1258.01C407.695 1257.35 408.223 1256.79 408.631 1256.32C409.051 1255.84 409.357 1255.4 409.549 1254.99C409.753 1254.58 409.855 1254.14 409.855 1253.66C409.855 1253.07 409.687 1252.63 409.351 1252.34C409.015 1252.04 408.571 1251.89 408.019 1251.89C407.479 1251.89 406.975 1252.01 406.507 1252.24C406.039 1252.45 405.553 1252.76 405.049 1253.17L403.807 1251.68C404.167 1251.37 404.551 1251.08 404.959 1250.83C405.367 1250.57 405.829 1250.36 406.345 1250.2C406.861 1250.05 407.461 1249.97 408.145 1249.97C408.973 1249.97 409.681 1250.12 410.269 1250.42C410.869 1250.71 411.331 1251.11 411.655 1251.62C411.979 1252.14 412.141 1252.74 412.141 1253.42C412.141 1253.95 412.063 1254.44 411.907 1254.9C411.751 1255.34 411.523 1255.78 411.223 1256.21C410.923 1256.65 410.557 1257.08 410.125 1257.53C409.693 1257.97 409.207 1258.45 408.667 1258.97L406.633 1260.93V1261.04H412.573V1263ZM422.838 1256.56C422.838 1257.6 422.76 1258.53 422.604 1259.35C422.448 1260.16 422.19 1260.86 421.83 1261.43C421.482 1262 421.026 1262.43 420.462 1262.73C419.91 1263.03 419.232 1263.18 418.428 1263.18C417.42 1263.18 416.592 1262.92 415.944 1262.39C415.296 1261.86 414.816 1261.1 414.504 1260.12C414.192 1259.12 414.036 1257.94 414.036 1256.56C414.036 1255.18 414.18 1253.99 414.468 1253.01C414.756 1252.03 415.218 1251.27 415.854 1250.74C416.502 1250.21 417.36 1249.95 418.428 1249.95C419.436 1249.95 420.264 1250.21 420.912 1250.74C421.56 1251.26 422.04 1252.01 422.352 1253.01C422.676 1253.99 422.838 1255.18 422.838 1256.56ZM416.322 1256.57C416.322 1257.62 416.388 1258.49 416.52 1259.2C416.652 1259.9 416.868 1260.43 417.168 1260.79C417.48 1261.13 417.9 1261.31 418.428 1261.31C418.956 1261.31 419.37 1261.13 419.67 1260.79C419.982 1260.44 420.204 1259.91 420.336 1259.2C420.48 1258.49 420.552 1257.62 420.552 1256.57C420.552 1255.52 420.48 1254.64 420.336 1253.95C420.204 1253.24 419.982 1252.71 419.67 1252.36C419.37 1252 418.956 1251.82 418.428 1251.82C417.9 1251.82 417.48 1252 417.168 1252.36C416.868 1252.71 416.652 1253.23 416.52 1253.93C416.388 1254.62 416.322 1255.51 416.322 1256.57ZM433.175 1263H424.373V1261.33L427.649 1258.01C428.297 1257.35 428.825 1256.79 429.233 1256.32C429.653 1255.84 429.959 1255.4 430.151 1254.99C430.355 1254.58 430.457 1254.14 430.457 1253.66C430.457 1253.07 430.289 1252.63 429.953 1252.34C429.617 1252.04 429.173 1251.89 428.621 1251.89C428.081 1251.89 427.577 1252.01 427.109 1252.24C426.641 1252.45 426.155 1252.76 425.651 1253.17L424.409 1251.68C424.769 1251.37 425.153 1251.08 425.561 1250.83C425.969 1250.57 426.431 1250.36 426.947 1250.2C427.463 1250.05 428.063 1249.97 428.747 1249.97C429.575 1249.97 430.283 1250.12 430.871 1250.42C431.471 1250.71 431.933 1251.11 432.257 1251.62C432.581 1252.14 432.743 1252.74 432.743 1253.42C432.743 1253.95 432.665 1254.44 432.509 1254.9C432.353 1255.34 432.125 1255.78 431.825 1256.21C431.525 1256.65 431.159 1257.08 430.727 1257.53C430.295 1257.97 429.809 1258.45 429.269 1258.97L427.235 1260.93V1261.04H433.175V1263ZM442.971 1253.08C442.971 1253.66 442.851 1254.16 442.611 1254.59C442.383 1255.03 442.065 1255.38 441.657 1255.66C441.249 1255.92 440.775 1256.11 440.235 1256.23V1256.29C441.267 1256.41 442.047 1256.72 442.575 1257.24C443.103 1257.76 443.367 1258.44 443.367 1259.29C443.367 1260.04 443.187 1260.7 442.827 1261.29C442.467 1261.88 441.909 1262.34 441.153 1262.68C440.409 1263.01 439.449 1263.18 438.273 1263.18C437.577 1263.18 436.929 1263.12 436.329 1263C435.729 1262.89 435.165 1262.72 434.637 1262.48V1260.48C435.177 1260.76 435.753 1260.97 436.365 1261.11C436.977 1261.25 437.553 1261.33 438.093 1261.33C439.137 1261.33 439.875 1261.14 440.307 1260.77C440.739 1260.38 440.955 1259.86 440.955 1259.18C440.955 1258.75 440.847 1258.4 440.631 1258.12C440.415 1257.85 440.061 1257.64 439.569 1257.51C439.089 1257.37 438.459 1257.29 437.679 1257.29H436.599V1255.48H437.697C438.453 1255.48 439.047 1255.39 439.479 1255.22C439.923 1255.06 440.235 1254.82 440.415 1254.52C440.607 1254.22 440.703 1253.87 440.703 1253.48C440.703 1252.96 440.535 1252.56 440.199 1252.27C439.863 1251.98 439.359 1251.84 438.687 1251.84C438.255 1251.84 437.865 1251.89 437.517 1251.98C437.169 1252.08 436.851 1252.21 436.563 1252.36C436.275 1252.51 436.005 1252.66 435.753 1252.83L434.673 1251.26C434.997 1251.02 435.363 1250.81 435.771 1250.62C436.179 1250.41 436.635 1250.26 437.139 1250.15C437.643 1250.03 438.195 1249.97 438.795 1249.97C440.127 1249.97 441.153 1250.25 441.873 1250.81C442.605 1251.37 442.971 1252.12 442.971 1253.08Z" fill="#005B71"/>
<g filter="url(#filter7_f_930_747)">
<circle cx="639" cy="1155" r="10.6129" stroke="#0088A9" stroke-opacity="0.8" stroke-width="2"/>
</g>
<g filter="url(#filter8_f_930_747)">
<circle cx="638.613" cy="1154.61" r="16.4194" stroke="#0088A9" stroke-opacity="0.6" stroke-width="2"/>
</g>
<g filter="url(#filter9_f_930_747)">
<circle cx="639" cy="1155" r="23" stroke="#0088A9" stroke-opacity="0.4" stroke-width="2"/>
</g>
<path d="M640.542 1148.81L639.991 1154.09L645.276 1152.61L645.662 1155.14L640.597 1155.55L643.872 1159.9L641.505 1161.19L639.165 1156.38L637.046 1161.19L634.596 1159.9L637.817 1155.55L632.807 1155.14L633.192 1152.61L638.422 1154.09L637.844 1148.81H640.542Z" fill="#0088A9"/>
<path d="M596.502 1209.91C596.502 1210.59 596.337 1211.18 596.006 1211.66C595.675 1212.14 595.201 1212.51 594.582 1212.78C593.963 1213.03 593.227 1213.16 592.374 1213.16C591.958 1213.16 591.558 1213.13 591.174 1213.08C590.79 1213.04 590.433 1212.97 590.102 1212.89C589.771 1212.8 589.478 1212.7 589.222 1212.57V1210.94C589.649 1211.13 590.15 1211.3 590.726 1211.46C591.302 1211.61 591.889 1211.69 592.486 1211.69C592.998 1211.69 593.425 1211.62 593.766 1211.48C594.107 1211.34 594.363 1211.15 594.534 1210.9C594.705 1210.66 594.79 1210.37 594.79 1210.04C594.79 1209.69 594.699 1209.39 594.518 1209.16C594.347 1208.91 594.075 1208.69 593.702 1208.49C593.339 1208.27 592.849 1208.05 592.23 1207.82C591.803 1207.66 591.414 1207.48 591.062 1207.29C590.721 1207.09 590.417 1206.85 590.15 1206.58C589.894 1206.32 589.697 1206.01 589.558 1205.66C589.419 1205.3 589.35 1204.89 589.35 1204.42C589.35 1203.79 589.505 1203.26 589.814 1202.81C590.134 1202.36 590.571 1202.02 591.126 1201.78C591.681 1201.54 592.326 1201.42 593.062 1201.42C593.681 1201.42 594.251 1201.48 594.774 1201.61C595.307 1201.73 595.814 1201.89 596.294 1202.1L595.75 1203.53C595.313 1203.35 594.87 1203.2 594.422 1203.08C593.974 1202.96 593.505 1202.9 593.014 1202.9C592.587 1202.9 592.23 1202.97 591.942 1203.1C591.654 1203.22 591.435 1203.4 591.286 1203.62C591.147 1203.85 591.078 1204.11 591.078 1204.41C591.078 1204.76 591.158 1205.05 591.318 1205.29C591.478 1205.52 591.734 1205.74 592.086 1205.94C592.438 1206.14 592.902 1206.35 593.478 1206.58C594.118 1206.83 594.662 1207.1 595.11 1207.38C595.569 1207.67 595.915 1208.02 596.15 1208.42C596.385 1208.82 596.502 1209.31 596.502 1209.91ZM605.171 1213H598.739V1201.58H605.171V1203.05H600.467V1206.31H604.883V1207.77H600.467V1211.51H605.171V1213ZM614.077 1213H607.645V1201.58H614.077V1203.05H609.373V1206.31H613.789V1207.77H609.373V1211.51H614.077V1213ZM625.799 1207.18C625.799 1208.46 625.559 1209.53 625.079 1210.39C624.599 1211.26 623.906 1211.91 622.999 1212.34C622.103 1212.78 621.021 1213 619.751 1213H616.551V1201.58H620.087C621.25 1201.58 622.258 1201.79 623.111 1202.22C623.965 1202.64 624.626 1203.27 625.095 1204.1C625.565 1204.93 625.799 1205.95 625.799 1207.18ZM623.991 1207.22C623.991 1206.26 623.837 1205.47 623.527 1204.86C623.218 1204.24 622.759 1203.78 622.151 1203.48C621.554 1203.18 620.829 1203.03 619.975 1203.03H618.279V1211.54H619.671C621.111 1211.54 622.189 1211.18 622.903 1210.46C623.629 1209.73 623.991 1208.65 623.991 1207.22ZM635.642 1201.58C636.623 1201.58 637.429 1201.7 638.058 1201.94C638.687 1202.19 639.157 1202.56 639.466 1203.05C639.775 1203.53 639.93 1204.14 639.93 1204.87C639.93 1205.46 639.818 1205.95 639.594 1206.36C639.381 1206.75 639.103 1207.08 638.762 1207.34C638.421 1207.58 638.063 1207.78 637.69 1207.93L640.89 1213H638.906L636.154 1208.38H634.17V1213H632.442V1201.58H635.642ZM635.53 1203.05H634.17V1206.94H635.61C636.197 1206.94 636.677 1206.86 637.05 1206.71C637.434 1206.56 637.711 1206.34 637.882 1206.04C638.063 1205.74 638.154 1205.37 638.154 1204.94C638.154 1204.48 638.058 1204.11 637.866 1203.85C637.685 1203.57 637.397 1203.37 637.002 1203.24C636.618 1203.11 636.127 1203.05 635.53 1203.05ZM652.647 1207.27C652.647 1208.16 652.535 1208.96 652.311 1209.69C652.098 1210.4 651.767 1211.02 651.319 1211.54C650.882 1212.07 650.327 1212.47 649.655 1212.74C648.994 1213.02 648.22 1213.16 647.335 1213.16C646.428 1213.16 645.639 1213.02 644.967 1212.74C644.306 1212.46 643.751 1212.06 643.303 1211.54C642.866 1211.02 642.54 1210.4 642.327 1209.67C642.114 1208.95 642.007 1208.14 642.007 1207.26C642.007 1206.08 642.199 1205.06 642.583 1204.18C642.967 1203.31 643.554 1202.63 644.343 1202.14C645.143 1201.65 646.146 1201.4 647.351 1201.4C648.524 1201.4 649.5 1201.65 650.279 1202.14C651.068 1202.62 651.66 1203.3 652.055 1204.18C652.45 1205.06 652.647 1206.09 652.647 1207.27ZM643.831 1207.27C643.831 1208.19 643.954 1208.98 644.199 1209.64C644.444 1210.29 644.828 1210.8 645.351 1211.16C645.874 1211.51 646.535 1211.69 647.335 1211.69C648.146 1211.69 648.807 1211.51 649.319 1211.16C649.831 1210.8 650.21 1210.29 650.455 1209.64C650.7 1208.98 650.823 1208.19 650.823 1207.27C650.823 1205.9 650.546 1204.82 649.991 1204.06C649.447 1203.28 648.567 1202.89 647.351 1202.89C646.54 1202.89 645.874 1203.06 645.351 1203.42C644.828 1203.77 644.444 1204.27 644.199 1204.92C643.954 1205.57 643.831 1206.35 643.831 1207.27ZM663.993 1208.97C663.993 1209.76 663.828 1210.47 663.497 1211.11C663.177 1211.74 662.681 1212.24 662.009 1212.62C661.337 1212.98 660.489 1213.16 659.465 1213.16C658.015 1213.16 656.911 1212.78 656.153 1212.01C655.407 1211.23 655.033 1210.21 655.033 1208.94V1201.58H656.761V1208.86C656.761 1209.79 656.991 1210.5 657.449 1210.98C657.908 1211.45 658.607 1211.69 659.545 1211.69C660.185 1211.69 660.708 1211.57 661.113 1211.34C661.519 1211.1 661.812 1210.78 661.993 1210.36C662.185 1209.93 662.281 1209.43 662.281 1208.84V1201.58H663.993V1208.97ZM676.318 1213H674.222L668.446 1203.77H668.382C668.393 1203.98 668.403 1204.21 668.414 1204.46C668.435 1204.7 668.451 1204.96 668.462 1205.24C668.473 1205.51 668.483 1205.78 668.494 1206.07C668.505 1206.35 668.51 1206.63 668.51 1206.92V1213H666.942V1201.58H669.022L674.782 1210.76H674.83C674.819 1210.6 674.809 1210.4 674.798 1210.17C674.787 1209.92 674.777 1209.66 674.766 1209.38C674.766 1209.11 674.761 1208.82 674.75 1208.54C674.739 1208.25 674.729 1207.98 674.718 1207.72V1201.58H676.318V1213ZM688.612 1207.18C688.612 1208.46 688.372 1209.53 687.892 1210.39C687.412 1211.26 686.718 1211.91 685.812 1212.34C684.916 1212.78 683.833 1213 682.564 1213H679.364V1201.58H682.9C684.062 1201.58 685.07 1201.79 685.924 1202.22C686.777 1202.64 687.438 1203.27 687.908 1204.1C688.377 1204.93 688.612 1205.95 688.612 1207.18ZM686.804 1207.22C686.804 1206.26 686.649 1205.47 686.34 1204.86C686.03 1204.24 685.572 1203.78 684.964 1203.48C684.366 1203.18 683.641 1203.03 682.788 1203.03H681.092V1211.54H682.484C683.924 1211.54 685.001 1211.18 685.716 1210.46C686.441 1209.73 686.804 1208.65 686.804 1207.22Z" fill="#01284E"/>
<g filter="url(#filter10_f_930_747)">
<circle cx="869" cy="1155" r="10.6129" stroke="#0088A9" stroke-opacity="0.8" stroke-width="2"/>
</g>
<g filter="url(#filter11_f_930_747)">
<circle cx="868.613" cy="1154.61" r="16.4194" stroke="#0088A9" stroke-opacity="0.6" stroke-width="2"/>
</g>
<g filter="url(#filter12_f_930_747)">
<circle cx="869" cy="1155" r="23" stroke="#0088A9" stroke-opacity="0.4" stroke-width="2"/>
</g>
<path d="M870.542 1148.81L869.991 1154.09L875.276 1152.61L875.662 1155.14L870.597 1155.55L873.872 1159.9L871.505 1161.19L869.165 1156.38L867.046 1161.19L864.596 1159.9L867.817 1155.55L862.807 1155.14L863.192 1152.61L868.422 1154.09L867.844 1148.81H870.542Z" fill="#0088A9"/>
<path d="M809.382 1213H807.702V1205.42C807.702 1205.15 807.702 1204.9 807.702 1204.68C807.712 1204.45 807.723 1204.22 807.734 1204.01C807.744 1203.78 807.755 1203.57 807.766 1203.37C807.627 1203.51 807.483 1203.64 807.334 1203.77C807.184 1203.9 807.014 1204.05 806.822 1204.22L805.574 1205.22L804.71 1204.14L807.974 1201.58H809.382V1213ZM821.018 1207.27C821.018 1208.2 820.943 1209.03 820.794 1209.75C820.655 1210.48 820.431 1211.1 820.122 1211.61C819.823 1212.11 819.423 1212.49 818.922 1212.76C818.431 1213.03 817.839 1213.16 817.146 1213.16C816.271 1213.16 815.551 1212.93 814.986 1212.46C814.421 1211.99 813.999 1211.31 813.722 1210.44C813.445 1209.55 813.306 1208.5 813.306 1207.27C813.306 1206.03 813.429 1204.98 813.674 1204.1C813.93 1203.23 814.341 1202.56 814.906 1202.1C815.471 1201.63 816.218 1201.4 817.146 1201.4C818.021 1201.4 818.741 1201.63 819.306 1202.1C819.882 1202.56 820.309 1203.23 820.586 1204.1C820.874 1204.98 821.018 1206.03 821.018 1207.27ZM815.002 1207.27C815.002 1208.26 815.071 1209.09 815.21 1209.75C815.349 1210.41 815.573 1210.91 815.882 1211.24C816.202 1211.57 816.623 1211.74 817.146 1211.74C817.669 1211.74 818.085 1211.58 818.394 1211.26C818.714 1210.93 818.943 1210.43 819.082 1209.77C819.231 1209.1 819.306 1208.26 819.306 1207.27C819.306 1206.28 819.231 1205.46 819.082 1204.81C818.943 1204.15 818.714 1203.65 818.394 1203.32C818.085 1202.99 817.669 1202.82 817.146 1202.82C816.623 1202.82 816.202 1202.99 815.882 1203.32C815.573 1203.65 815.349 1204.15 815.21 1204.81C815.071 1205.46 815.002 1206.28 815.002 1207.27ZM830.174 1207.27C830.174 1208.2 830.1 1209.03 829.95 1209.75C829.812 1210.48 829.588 1211.1 829.278 1211.61C828.98 1212.11 828.58 1212.49 828.078 1212.76C827.588 1213.03 826.996 1213.16 826.302 1213.16C825.428 1213.16 824.708 1212.93 824.142 1212.46C823.577 1211.99 823.156 1211.31 822.878 1210.44C822.601 1209.55 822.462 1208.5 822.462 1207.27C822.462 1206.03 822.585 1204.98 822.83 1204.1C823.086 1203.23 823.497 1202.56 824.062 1202.1C824.628 1201.63 825.374 1201.4 826.302 1201.4C827.177 1201.4 827.897 1201.63 828.462 1202.1C829.038 1202.56 829.465 1203.23 829.742 1204.1C830.03 1204.98 830.174 1206.03 830.174 1207.27ZM824.158 1207.27C824.158 1208.26 824.228 1209.09 824.366 1209.75C824.505 1210.41 824.729 1210.91 825.038 1211.24C825.358 1211.57 825.78 1211.74 826.302 1211.74C826.825 1211.74 827.241 1211.58 827.55 1211.26C827.87 1210.93 828.1 1210.43 828.238 1209.77C828.388 1209.1 828.462 1208.26 828.462 1207.27C828.462 1206.28 828.388 1205.46 828.238 1204.81C828.1 1204.15 827.87 1203.65 827.55 1203.32C827.241 1202.99 826.825 1202.82 826.302 1202.82C825.78 1202.82 825.358 1202.99 825.038 1203.32C824.729 1203.65 824.505 1204.15 824.366 1204.81C824.228 1205.46 824.158 1206.28 824.158 1207.27ZM839.33 1207.27C839.33 1208.2 839.256 1209.03 839.106 1209.75C838.968 1210.48 838.744 1211.1 838.434 1211.61C838.136 1212.11 837.736 1212.49 837.234 1212.76C836.744 1213.03 836.152 1213.16 835.458 1213.16C834.584 1213.16 833.864 1212.93 833.298 1212.46C832.733 1211.99 832.312 1211.31 832.034 1210.44C831.757 1209.55 831.618 1208.5 831.618 1207.27C831.618 1206.03 831.741 1204.98 831.986 1204.1C832.242 1203.23 832.653 1202.56 833.218 1202.1C833.784 1201.63 834.53 1201.4 835.458 1201.4C836.333 1201.4 837.053 1201.63 837.618 1202.1C838.194 1202.56 838.621 1203.23 838.898 1204.1C839.186 1204.98 839.33 1206.03 839.33 1207.27ZM833.314 1207.27C833.314 1208.26 833.384 1209.09 833.522 1209.75C833.661 1210.41 833.885 1210.91 834.194 1211.24C834.514 1211.57 834.936 1211.74 835.458 1211.74C835.981 1211.74 836.397 1211.58 836.706 1211.26C837.026 1210.93 837.256 1210.43 837.394 1209.77C837.544 1209.1 837.618 1208.26 837.618 1207.27C837.618 1206.28 837.544 1205.46 837.394 1204.81C837.256 1204.15 837.026 1203.65 836.706 1203.32C836.397 1202.99 835.981 1202.82 835.458 1202.82C834.936 1202.82 834.514 1202.99 834.194 1203.32C833.885 1203.65 833.661 1204.15 833.522 1204.81C833.384 1205.46 833.314 1206.28 833.314 1207.27ZM849.075 1201.58C850.046 1201.58 850.856 1201.67 851.507 1201.85C852.168 1202.03 852.664 1202.33 852.995 1202.76C853.336 1203.18 853.507 1203.73 853.507 1204.42C853.507 1204.87 853.427 1205.27 853.267 1205.62C853.107 1205.97 852.872 1206.25 852.563 1206.49C852.264 1206.71 851.891 1206.86 851.443 1206.94V1207.02C851.902 1207.09 852.312 1207.23 852.675 1207.43C853.038 1207.62 853.326 1207.91 853.539 1208.28C853.752 1208.65 853.859 1209.14 853.859 1209.74C853.859 1210.43 853.694 1211.02 853.363 1211.51C853.043 1211.99 852.579 1212.36 851.971 1212.62C851.374 1212.87 850.659 1213 849.827 1213H845.731V1201.58H849.075ZM849.363 1206.34C850.259 1206.34 850.872 1206.2 851.203 1205.91C851.544 1205.62 851.715 1205.2 851.715 1204.63C851.715 1204.06 851.512 1203.65 851.107 1203.4C850.702 1203.15 850.056 1203.03 849.171 1203.03H847.459V1206.34H849.363ZM847.459 1207.75V1211.56H849.555C850.483 1211.56 851.128 1211.38 851.491 1211.02C851.854 1210.65 852.035 1210.17 852.035 1209.58C852.035 1209.21 851.955 1208.89 851.795 1208.62C851.635 1208.34 851.363 1208.13 850.979 1207.98C850.606 1207.83 850.094 1207.75 849.443 1207.75H847.459ZM862.663 1213H856.231V1201.58H862.663V1203.05H857.959V1206.31H862.375V1207.77H857.959V1211.51H862.663V1213ZM868.977 1213H867.249V1203.06H863.825V1201.58H872.401V1203.06H868.977V1213ZM880.148 1213L878.932 1209.7H874.516L873.3 1213H871.508L875.844 1201.53H877.636L881.956 1213H880.148ZM877.3 1204.98C877.268 1204.87 877.209 1204.69 877.124 1204.46C877.049 1204.21 876.974 1203.97 876.9 1203.72C876.825 1203.46 876.766 1203.26 876.724 1203.1C876.67 1203.31 876.606 1203.54 876.532 1203.8C876.468 1204.05 876.404 1204.27 876.34 1204.49C876.276 1204.69 876.222 1204.86 876.18 1204.98L875.028 1208.2H878.452L877.3 1204.98ZM896.517 1208.97C896.517 1209.76 896.351 1210.47 896.021 1211.11C895.701 1211.74 895.205 1212.24 894.533 1212.62C893.861 1212.98 893.013 1213.16 891.989 1213.16C890.538 1213.16 889.434 1212.78 888.677 1212.01C887.93 1211.23 887.557 1210.21 887.557 1208.94V1201.58H889.285V1208.86C889.285 1209.79 889.514 1210.5 889.973 1210.98C890.431 1211.45 891.13 1211.69 892.069 1211.69C892.709 1211.69 893.231 1211.57 893.637 1211.34C894.042 1211.1 894.335 1210.78 894.517 1210.36C894.709 1209.93 894.805 1209.43 894.805 1208.84V1201.58H896.517V1208.97ZM906.025 1209.91C906.025 1210.59 905.86 1211.18 905.529 1211.66C905.199 1212.14 904.724 1212.51 904.105 1212.78C903.487 1213.03 902.751 1213.16 901.897 1213.16C901.481 1213.16 901.081 1213.13 900.697 1213.08C900.313 1213.04 899.956 1212.97 899.625 1212.89C899.295 1212.8 899.001 1212.7 898.745 1212.57V1210.94C899.172 1211.13 899.673 1211.3 900.249 1211.46C900.825 1211.61 901.412 1211.69 902.009 1211.69C902.521 1211.69 902.948 1211.62 903.289 1211.48C903.631 1211.34 903.887 1211.15 904.057 1210.9C904.228 1210.66 904.313 1210.37 904.313 1210.04C904.313 1209.69 904.223 1209.39 904.041 1209.16C903.871 1208.91 903.599 1208.69 903.225 1208.49C902.863 1208.27 902.372 1208.05 901.753 1207.82C901.327 1207.66 900.937 1207.48 900.585 1207.29C900.244 1207.09 899.94 1206.85 899.673 1206.58C899.417 1206.32 899.22 1206.01 899.081 1205.66C898.943 1205.3 898.873 1204.89 898.873 1204.42C898.873 1203.79 899.028 1203.26 899.337 1202.81C899.657 1202.36 900.095 1202.02 900.649 1201.78C901.204 1201.54 901.849 1201.42 902.585 1201.42C903.204 1201.42 903.775 1201.48 904.297 1201.61C904.831 1201.73 905.337 1201.89 905.817 1202.1L905.273 1203.53C904.836 1203.35 904.393 1203.2 903.945 1203.08C903.497 1202.96 903.028 1202.9 902.537 1202.9C902.111 1202.9 901.753 1202.97 901.465 1203.1C901.177 1203.22 900.959 1203.4 900.809 1203.62C900.671 1203.85 900.601 1204.11 900.601 1204.41C900.601 1204.76 900.681 1205.05 900.841 1205.29C901.001 1205.52 901.257 1205.74 901.609 1205.94C901.961 1206.14 902.425 1206.35 903.001 1206.58C903.641 1206.83 904.185 1207.1 904.633 1207.38C905.092 1207.67 905.439 1208.02 905.673 1208.42C905.908 1208.82 906.025 1209.31 906.025 1209.91ZM914.694 1213H908.262V1201.58H914.694V1203.05H909.99V1206.31H914.406V1207.77H909.99V1211.51H914.694V1213ZM920.368 1201.58C921.35 1201.58 922.155 1201.7 922.784 1201.94C923.414 1202.19 923.883 1202.56 924.192 1203.05C924.502 1203.53 924.656 1204.14 924.656 1204.87C924.656 1205.46 924.544 1205.95 924.32 1206.36C924.107 1206.75 923.83 1207.08 923.488 1207.34C923.147 1207.58 922.79 1207.78 922.416 1207.93L925.616 1213H923.632L920.88 1208.38H918.896V1213H917.168V1201.58H920.368ZM920.256 1203.05H918.896V1206.94H920.336C920.923 1206.94 921.403 1206.86 921.776 1206.71C922.16 1206.56 922.438 1206.34 922.608 1206.04C922.79 1205.74 922.88 1205.37 922.88 1204.94C922.88 1204.48 922.784 1204.11 922.592 1203.85C922.411 1203.57 922.123 1203.37 921.728 1203.24C921.344 1203.11 920.854 1203.05 920.256 1203.05ZM933.853 1209.91C933.853 1210.59 933.688 1211.18 933.357 1211.66C933.027 1212.14 932.552 1212.51 931.933 1212.78C931.315 1213.03 930.579 1213.16 929.725 1213.16C929.309 1213.16 928.909 1213.13 928.525 1213.08C928.141 1213.04 927.784 1212.97 927.453 1212.89C927.123 1212.8 926.829 1212.7 926.573 1212.57V1210.94C927 1211.13 927.501 1211.3 928.077 1211.46C928.653 1211.61 929.24 1211.69 929.837 1211.69C930.349 1211.69 930.776 1211.62 931.117 1211.48C931.459 1211.34 931.715 1211.15 931.885 1210.9C932.056 1210.66 932.141 1210.37 932.141 1210.04C932.141 1209.69 932.051 1209.39 931.869 1209.16C931.699 1208.91 931.427 1208.69 931.053 1208.49C930.691 1208.27 930.2 1208.05 929.581 1207.82C929.155 1207.66 928.765 1207.48 928.413 1207.29C928.072 1207.09 927.768 1206.85 927.501 1206.58C927.245 1206.32 927.048 1206.01 926.909 1205.66C926.771 1205.3 926.701 1204.89 926.701 1204.42C926.701 1203.79 926.856 1203.26 927.165 1202.81C927.485 1202.36 927.923 1202.02 928.477 1201.78C929.032 1201.54 929.677 1201.42 930.413 1201.42C931.032 1201.42 931.603 1201.48 932.125 1201.61C932.659 1201.73 933.165 1201.89 933.645 1202.1L933.101 1203.53C932.664 1203.35 932.221 1203.2 931.773 1203.08C931.325 1202.96 930.856 1202.9 930.365 1202.9C929.939 1202.9 929.581 1202.97 929.293 1203.1C929.005 1203.22 928.787 1203.4 928.637 1203.62C928.499 1203.85 928.429 1204.11 928.429 1204.41C928.429 1204.76 928.509 1205.05 928.669 1205.29C928.829 1205.52 929.085 1205.74 929.437 1205.94C929.789 1206.14 930.253 1206.35 930.829 1206.58C931.469 1206.83 932.013 1207.1 932.461 1207.38C932.92 1207.67 933.267 1208.02 933.501 1208.42C933.736 1208.82 933.853 1209.31 933.853 1209.91Z" fill="#01284E"/>
<path d="M266.958 906.556C266.958 907.552 266.832 908.458 266.58 909.274C266.34 910.078 265.968 910.774 265.464 911.362C264.972 911.95 264.342 912.394 263.574 912.694L266.67 916.06H263.61L261.216 913.18C261.168 913.18 261.114 913.18 261.054 913.18C261.006 913.18 260.958 913.18 260.91 913.18C259.878 913.18 258.978 913.024 258.21 912.712C257.454 912.388 256.83 911.938 256.338 911.362C255.846 910.774 255.474 910.072 255.222 909.256C254.982 908.44 254.862 907.534 254.862 906.538C254.862 905.206 255.078 904.048 255.51 903.064C255.954 902.08 256.62 901.318 257.508 900.778C258.408 900.226 259.548 899.95 260.928 899.95C262.284 899.95 263.406 900.226 264.294 900.778C265.182 901.318 265.848 902.086 266.292 903.082C266.736 904.066 266.958 905.224 266.958 906.556ZM257.292 906.556C257.292 907.528 257.418 908.362 257.67 909.058C257.934 909.754 258.33 910.288 258.858 910.66C259.398 911.032 260.082 911.218 260.91 911.218C261.762 911.218 262.452 911.032 262.98 910.66C263.508 910.288 263.898 909.754 264.15 909.058C264.402 908.362 264.528 907.528 264.528 906.556C264.528 905.104 264.246 903.964 263.682 903.136C263.118 902.308 262.2 901.894 260.928 901.894C260.088 901.894 259.398 902.08 258.858 902.452C258.33 902.824 257.934 903.358 257.67 904.054C257.418 904.75 257.292 905.584 257.292 906.556ZM277.093 903.082C277.093 903.658 276.973 904.162 276.733 904.594C276.505 905.026 276.187 905.38 275.779 905.656C275.371 905.92 274.897 906.112 274.357 906.232V906.286C275.389 906.406 276.169 906.724 276.697 907.24C277.225 907.756 277.489 908.44 277.489 909.292C277.489 910.036 277.309 910.702 276.949 911.29C276.589 911.878 276.031 912.34 275.275 912.676C274.531 913.012 273.571 913.18 272.395 913.18C271.699 913.18 271.051 913.12 270.451 913C269.851 912.892 269.287 912.718 268.759 912.478V910.48C269.299 910.756 269.875 910.966 270.487 911.11C271.099 911.254 271.675 911.326 272.215 911.326C273.259 911.326 273.997 911.14 274.429 910.768C274.861 910.384 275.077 909.856 275.077 909.184C275.077 908.752 274.969 908.398 274.753 908.122C274.537 907.846 274.183 907.642 273.691 907.51C273.211 907.366 272.581 907.294 271.801 907.294H270.721V905.476H271.819C272.575 905.476 273.169 905.392 273.601 905.224C274.045 905.056 274.357 904.822 274.537 904.522C274.729 904.222 274.825 903.874 274.825 903.478C274.825 902.962 274.657 902.56 274.321 902.272C273.985 901.984 273.481 901.84 272.809 901.84C272.377 901.84 271.987 901.888 271.639 901.984C271.291 902.08 270.973 902.206 270.685 902.362C270.397 902.506 270.127 902.662 269.875 902.83L268.795 901.264C269.119 901.024 269.485 900.808 269.893 900.616C270.301 900.412 270.757 900.256 271.261 900.148C271.765 900.028 272.317 899.968 272.917 899.968C274.249 899.968 275.275 900.25 275.995 900.814C276.727 901.366 277.093 902.122 277.093 903.082ZM292.573 913H283.771V911.326L287.047 908.014C287.695 907.354 288.223 906.79 288.631 906.322C289.051 905.842 289.357 905.398 289.549 904.99C289.753 904.582 289.855 904.138 289.855 903.658C289.855 903.07 289.687 902.632 289.351 902.344C289.015 902.044 288.571 901.894 288.019 901.894C287.479 901.894 286.975 902.008 286.507 902.236C286.039 902.452 285.553 902.764 285.049 903.172L283.807 901.678C284.167 901.366 284.551 901.084 284.959 900.832C285.367 900.568 285.829 900.358 286.345 900.202C286.861 900.046 287.461 899.968 288.145 899.968C288.973 899.968 289.681 900.118 290.269 900.418C290.869 900.706 291.331 901.108 291.655 901.624C291.979 902.14 292.141 902.74 292.141 903.424C292.141 903.952 292.063 904.444 291.907 904.9C291.751 905.344 291.523 905.782 291.223 906.214C290.923 906.646 290.557 907.084 290.125 907.528C289.693 907.972 289.207 908.452 288.667 908.968L286.633 910.93V911.038H292.573V913ZM302.838 906.556C302.838 907.6 302.76 908.53 302.604 909.346C302.448 910.162 302.19 910.858 301.83 911.434C301.482 911.998 301.026 912.43 300.462 912.73C299.91 913.03 299.232 913.18 298.428 913.18C297.42 913.18 296.592 912.916 295.944 912.388C295.296 911.86 294.816 911.104 294.504 910.12C294.192 909.124 294.036 907.936 294.036 906.556C294.036 905.176 294.18 903.994 294.468 903.01C294.756 902.026 295.218 901.27 295.854 900.742C296.502 900.214 297.36 899.95 298.428 899.95C299.436 899.95 300.264 900.214 300.912 900.742C301.56 901.258 302.04 902.014 302.352 903.01C302.676 903.994 302.838 905.176 302.838 906.556ZM296.322 906.574C296.322 907.618 296.388 908.494 296.52 909.202C296.652 909.898 296.868 910.426 297.168 910.786C297.48 911.134 297.9 911.308 298.428 911.308C298.956 911.308 299.37 911.134 299.67 910.786C299.982 910.438 300.204 909.91 300.336 909.202C300.48 908.494 300.552 907.618 300.552 906.574C300.552 905.518 300.48 904.642 300.336 903.946C300.204 903.238 299.982 902.71 299.67 902.362C299.37 902.002 298.956 901.822 298.428 901.822C297.9 901.822 297.48 902.002 297.168 902.362C296.868 902.71 296.652 903.232 296.52 903.928C296.388 904.624 296.322 905.506 296.322 906.574ZM313.175 913H304.373V911.326L307.649 908.014C308.297 907.354 308.825 906.79 309.233 906.322C309.653 905.842 309.959 905.398 310.151 904.99C310.355 904.582 310.457 904.138 310.457 903.658C310.457 903.07 310.289 902.632 309.953 902.344C309.617 902.044 309.173 901.894 308.621 901.894C308.081 901.894 307.577 902.008 307.109 902.236C306.641 902.452 306.155 902.764 305.651 903.172L304.409 901.678C304.769 901.366 305.153 901.084 305.561 900.832C305.969 900.568 306.431 900.358 306.947 900.202C307.463 900.046 308.063 899.968 308.747 899.968C309.575 899.968 310.283 900.118 310.871 900.418C311.471 900.706 311.933 901.108 312.257 901.624C312.581 902.14 312.743 902.74 312.743 903.424C312.743 903.952 312.665 904.444 312.509 904.9C312.353 905.344 312.125 905.782 311.825 906.214C311.525 906.646 311.159 907.084 310.727 907.528C310.295 907.972 309.809 908.452 309.269 908.968L307.235 910.93V911.038H313.175V913ZM323.475 913H314.673V911.326L317.949 908.014C318.597 907.354 319.125 906.79 319.533 906.322C319.953 905.842 320.259 905.398 320.451 904.99C320.655 904.582 320.757 904.138 320.757 903.658C320.757 903.07 320.589 902.632 320.253 902.344C319.917 902.044 319.473 901.894 318.921 901.894C318.381 901.894 317.877 902.008 317.409 902.236C316.941 902.452 316.455 902.764 315.951 903.172L314.709 901.678C315.069 901.366 315.453 901.084 315.861 900.832C316.269 900.568 316.731 900.358 317.247 900.202C317.763 900.046 318.363 899.968 319.047 899.968C319.875 899.968 320.583 900.118 321.171 900.418C321.771 900.706 322.233 901.108 322.557 901.624C322.881 902.14 323.043 902.74 323.043 903.424C323.043 903.952 322.965 904.444 322.809 904.9C322.653 905.344 322.425 905.782 322.125 906.214C321.825 906.646 321.459 907.084 321.027 907.528C320.595 907.972 320.109 908.452 319.569 908.968L317.535 910.93V911.038H323.475V913Z" fill="#005B71"/>
<path d="M250.613 941L247.157 931.288H247.093C247.104 931.501 247.12 931.789 247.141 932.152C247.163 932.515 247.179 932.904 247.189 933.32C247.2 933.736 247.205 934.147 247.205 934.552V941H245.637V929.576H248.101L251.381 938.744H251.445L254.821 929.576H257.285V941H255.605V934.456C255.605 934.083 255.611 933.699 255.621 933.304C255.643 932.899 255.659 932.52 255.669 932.168C255.691 931.816 255.707 931.528 255.717 931.304H255.653L252.101 941H250.613ZM268.645 929.576L264.613 941H262.821L258.805 929.576H260.581L263.029 936.744C263.125 937 263.215 937.277 263.301 937.576C263.386 937.864 263.466 938.152 263.541 938.44C263.615 938.728 263.674 939 263.717 939.256C263.77 939 263.829 938.728 263.893 938.44C263.967 938.152 264.047 937.859 264.133 937.56C264.229 937.261 264.319 936.984 264.405 936.728L266.853 929.576H268.645ZM273.368 929.576C274.862 929.576 275.95 929.88 276.632 930.488C277.315 931.085 277.656 931.923 277.656 933C277.656 933.48 277.576 933.939 277.416 934.376C277.267 934.813 277.016 935.208 276.664 935.56C276.312 935.901 275.843 936.173 275.256 936.376C274.68 936.568 273.971 936.664 273.128 936.664H271.896V941H270.168V929.576H273.368ZM273.24 931.032H271.896V935.208H272.936C273.587 935.208 274.131 935.139 274.568 935C275.006 934.851 275.331 934.621 275.544 934.312C275.768 933.992 275.88 933.576 275.88 933.064C275.88 932.381 275.667 931.875 275.24 931.544C274.824 931.203 274.158 931.032 273.24 931.032ZM291.242 941L290.026 937.704H285.61L284.394 941H282.602L286.938 929.528H288.73L293.05 941H291.242ZM288.394 932.984C288.362 932.867 288.303 932.691 288.218 932.456C288.143 932.211 288.068 931.965 287.994 931.72C287.919 931.464 287.86 931.256 287.818 931.096C287.764 931.309 287.7 931.544 287.626 931.8C287.562 932.045 287.498 932.275 287.434 932.488C287.37 932.691 287.316 932.856 287.274 932.984L286.122 936.2H289.546L288.394 932.984ZM294.59 941V929.576H296.318V939.512H301.198V941H294.59ZM306.368 929.576C307.862 929.576 308.95 929.88 309.632 930.488C310.315 931.085 310.656 931.923 310.656 933C310.656 933.48 310.576 933.939 310.416 934.376C310.267 934.813 310.016 935.208 309.664 935.56C309.312 935.901 308.843 936.173 308.256 936.376C307.68 936.568 306.971 936.664 306.128 936.664H304.896V941H303.168V929.576H306.368ZM306.24 931.032H304.896V935.208H305.936C306.587 935.208 307.131 935.139 307.568 935C308.006 934.851 308.331 934.621 308.544 934.312C308.768 933.992 308.88 933.576 308.88 933.064C308.88 932.381 308.667 931.875 308.24 931.544C307.824 931.203 307.158 931.032 306.24 931.032ZM321.877 941H320.149V935.784H314.693V941H312.965V929.576H314.693V934.312H320.149V929.576H321.877V941ZM332.054 941L330.838 937.704H326.422L325.206 941H323.414L327.75 929.528H329.542L333.862 941H332.054ZM329.206 932.984C329.174 932.867 329.115 932.691 329.03 932.456C328.955 932.211 328.881 931.965 328.806 931.72C328.731 931.464 328.673 931.256 328.63 931.096C328.577 931.309 328.513 931.544 328.438 931.8C328.374 932.045 328.31 932.275 328.246 932.488C328.182 932.691 328.129 932.856 328.086 932.984L326.934 936.2H330.358L329.206 932.984Z" fill="#01284E"/>
<g filter="url(#filter13_f_930_747)">
<circle cx="289" cy="987" r="10.6129" stroke="#005B71" stroke-opacity="0.8" stroke-width="2"/>
</g>
<g filter="url(#filter14_f_930_747)">
<circle cx="288.613" cy="986.613" r="16.4194" stroke="#005B71" stroke-opacity="0.6" stroke-width="2"/>
</g>
<g filter="url(#filter15_f_930_747)">
<circle cx="289" cy="987" r="23" stroke="#005B71" stroke-opacity="0.4" stroke-width="2"/>
</g>
<path d="M290.542 980.807L289.991 986.092L295.276 984.605L295.662 987.138L290.597 987.551L293.872 991.9L291.505 993.194L289.165 988.377L287.046 993.194L284.596 991.9L287.817 987.551L282.807 987.138L283.192 984.605L288.422 986.092L287.844 980.807H290.542Z" fill="#005B71"/>
<path d="M470.095 909.576C471.076 909.576 471.882 909.699 472.511 909.944C473.14 910.189 473.61 910.557 473.919 911.048C474.228 911.528 474.383 912.136 474.383 912.872C474.383 913.459 474.271 913.955 474.047 914.36C473.834 914.755 473.556 915.08 473.215 915.336C472.874 915.581 472.516 915.779 472.143 915.928L475.343 921H473.359L470.607 916.376H468.623V921H466.895V909.576H470.095ZM469.983 911.048H468.623V914.936H470.063C470.65 914.936 471.13 914.861 471.503 914.712C471.887 914.563 472.164 914.339 472.335 914.04C472.516 913.741 472.607 913.373 472.607 912.936C472.607 912.477 472.511 912.115 472.319 911.848C472.138 911.571 471.85 911.368 471.455 911.24C471.071 911.112 470.58 911.048 469.983 911.048ZM483.452 921H477.02V909.576H483.452V911.048H478.748V914.312H483.164V915.768H478.748V919.512H483.452V921ZM492.486 917.912C492.486 918.595 492.321 919.176 491.99 919.656C491.66 920.136 491.185 920.509 490.566 920.776C489.948 921.032 489.212 921.16 488.358 921.16C487.942 921.16 487.542 921.133 487.158 921.08C486.774 921.037 486.417 920.973 486.086 920.888C485.756 920.803 485.462 920.696 485.206 920.568V918.936C485.633 919.128 486.134 919.304 486.71 919.464C487.286 919.613 487.873 919.688 488.47 919.688C488.982 919.688 489.409 919.619 489.75 919.48C490.092 919.341 490.348 919.149 490.518 918.904C490.689 918.659 490.774 918.371 490.774 918.04C490.774 917.688 490.684 917.395 490.502 917.16C490.332 916.915 490.06 916.691 489.686 916.488C489.324 916.275 488.833 916.051 488.214 915.816C487.788 915.656 487.398 915.48 487.046 915.288C486.705 915.085 486.401 914.851 486.134 914.584C485.878 914.317 485.681 914.008 485.542 913.656C485.404 913.304 485.334 912.893 485.334 912.424C485.334 911.795 485.489 911.256 485.798 910.808C486.118 910.36 486.556 910.019 487.11 909.784C487.665 909.539 488.31 909.416 489.046 909.416C489.665 909.416 490.236 909.48 490.758 909.608C491.292 909.725 491.798 909.891 492.278 910.104L491.734 911.528C491.297 911.347 490.854 911.197 490.406 911.08C489.958 910.963 489.489 910.904 488.998 910.904C488.572 910.904 488.214 910.968 487.926 911.096C487.638 911.224 487.42 911.4 487.27 911.624C487.132 911.848 487.062 912.109 487.062 912.408C487.062 912.76 487.142 913.053 487.302 913.288C487.462 913.523 487.718 913.741 488.07 913.944C488.422 914.136 488.886 914.349 489.462 914.584C490.102 914.829 490.646 915.096 491.094 915.384C491.553 915.672 491.9 916.019 492.134 916.424C492.369 916.819 492.486 917.315 492.486 917.912ZM501.155 921H494.723V909.576H501.155V911.048H496.451V914.312H500.867V915.768H496.451V919.512H501.155V921ZM510.749 921L509.533 917.704H505.117L503.901 921H502.109L506.445 909.528H508.237L512.557 921H510.749ZM507.901 912.984C507.869 912.867 507.811 912.691 507.725 912.456C507.651 912.211 507.576 911.965 507.501 911.72C507.427 911.464 507.368 911.256 507.325 911.096C507.272 911.309 507.208 911.544 507.133 911.8C507.069 912.045 507.005 912.275 506.941 912.488C506.877 912.691 506.824 912.856 506.781 912.984L505.629 916.2H509.053L507.901 912.984ZM517.298 909.576C518.279 909.576 519.085 909.699 519.714 909.944C520.343 910.189 520.813 910.557 521.122 911.048C521.431 911.528 521.586 912.136 521.586 912.872C521.586 913.459 521.474 913.955 521.25 914.36C521.037 914.755 520.759 915.08 520.418 915.336C520.077 915.581 519.719 915.779 519.346 915.928L522.546 921H520.562L517.81 916.376H515.826V921H514.098V909.576H517.298ZM517.186 911.048H515.826V914.936H517.266C517.853 914.936 518.333 914.861 518.706 914.712C519.09 914.563 519.367 914.339 519.538 914.04C519.719 913.741 519.81 913.373 519.81 912.936C519.81 912.477 519.714 912.115 519.522 911.848C519.341 911.571 519.053 911.368 518.658 911.24C518.274 911.112 517.783 911.048 517.186 911.048ZM529.103 910.904C528.538 910.904 528.031 911.005 527.583 911.208C527.135 911.4 526.751 911.688 526.431 912.072C526.122 912.456 525.882 912.92 525.711 913.464C525.551 914.008 525.471 914.621 525.471 915.304C525.471 916.2 525.604 916.979 525.871 917.64C526.138 918.291 526.538 918.792 527.071 919.144C527.604 919.496 528.276 919.672 529.087 919.672C529.578 919.672 530.047 919.629 530.495 919.544C530.954 919.448 531.418 919.325 531.887 919.176V920.664C531.439 920.835 530.98 920.957 530.511 921.032C530.042 921.117 529.498 921.16 528.879 921.16C527.716 921.16 526.746 920.92 525.967 920.44C525.199 919.96 524.623 919.277 524.239 918.392C523.855 917.507 523.663 916.472 523.663 915.288C523.663 914.424 523.78 913.635 524.015 912.92C524.26 912.195 524.612 911.571 525.071 911.048C525.53 910.525 526.095 910.125 526.767 909.848C527.45 909.56 528.234 909.416 529.119 909.416C529.695 909.416 530.26 909.48 530.815 909.608C531.37 909.725 531.871 909.896 532.319 910.12L531.679 911.56C531.306 911.389 530.9 911.24 530.463 911.112C530.036 910.973 529.583 910.904 529.103 910.904ZM543.26 921H541.532V915.784H536.076V921H534.348V909.576H536.076V914.312H541.532V909.576H543.26V921ZM552.749 921H546.317V909.576H552.749V911.048H548.045V914.312H552.461V915.768H548.045V919.512H552.749V921ZM558.423 909.576C559.404 909.576 560.21 909.699 560.839 909.944C561.468 910.189 561.938 910.557 562.247 911.048C562.556 911.528 562.711 912.136 562.711 912.872C562.711 913.459 562.599 913.955 562.375 914.36C562.162 914.755 561.884 915.08 561.543 915.336C561.202 915.581 560.844 915.779 560.471 915.928L563.671 921H561.687L558.935 916.376H556.951V921H555.223V909.576H558.423ZM558.311 911.048H556.951V914.936H558.391C558.978 914.936 559.458 914.861 559.831 914.712C560.215 914.563 560.492 914.339 560.663 914.04C560.844 913.741 560.935 913.373 560.935 912.936C560.935 912.477 560.839 912.115 560.647 911.848C560.466 911.571 560.178 911.368 559.783 911.24C559.399 911.112 558.908 911.048 558.311 911.048ZM571.908 917.912C571.908 918.595 571.743 919.176 571.412 919.656C571.081 920.136 570.607 920.509 569.988 920.776C569.369 921.032 568.633 921.16 567.78 921.16C567.364 921.16 566.964 921.133 566.58 921.08C566.196 921.037 565.839 920.973 565.508 920.888C565.177 920.803 564.884 920.696 564.628 920.568V918.936C565.055 919.128 565.556 919.304 566.132 919.464C566.708 919.613 567.295 919.688 567.892 919.688C568.404 919.688 568.831 919.619 569.172 919.48C569.513 919.341 569.769 919.149 569.94 918.904C570.111 918.659 570.196 918.371 570.196 918.04C570.196 917.688 570.105 917.395 569.924 917.16C569.753 916.915 569.481 916.691 569.108 916.488C568.745 916.275 568.255 916.051 567.636 915.816C567.209 915.656 566.82 915.48 566.468 915.288C566.127 915.085 565.823 914.851 565.556 914.584C565.3 914.317 565.103 914.008 564.964 913.656C564.825 913.304 564.756 912.893 564.756 912.424C564.756 911.795 564.911 911.256 565.22 910.808C565.54 910.36 565.977 910.019 566.532 909.784C567.087 909.539 567.732 909.416 568.468 909.416C569.087 909.416 569.657 909.48 570.18 909.608C570.713 909.725 571.22 909.891 571.7 910.104L571.156 911.528C570.719 911.347 570.276 911.197 569.828 911.08C569.38 910.963 568.911 910.904 568.42 910.904C567.993 910.904 567.636 910.968 567.348 911.096C567.06 911.224 566.841 911.4 566.692 911.624C566.553 911.848 566.484 912.109 566.484 912.408C566.484 912.76 566.564 913.053 566.724 913.288C566.884 913.523 567.14 913.741 567.492 913.944C567.844 914.136 568.308 914.349 568.884 914.584C569.524 914.829 570.068 915.096 570.516 915.384C570.975 915.672 571.321 916.019 571.556 916.424C571.791 916.819 571.908 917.315 571.908 917.912ZM475.717 935.272C475.717 936.157 475.605 936.963 475.381 937.688C475.168 938.403 474.837 939.021 474.389 939.544C473.952 940.067 473.397 940.467 472.725 940.744C472.064 941.021 471.291 941.16 470.405 941.16C469.499 941.16 468.709 941.021 468.037 940.744C467.376 940.456 466.821 940.056 466.373 939.544C465.936 939.021 465.611 938.397 465.397 937.672C465.184 936.947 465.077 936.141 465.077 935.256C465.077 934.083 465.269 933.059 465.653 932.184C466.037 931.309 466.624 930.627 467.413 930.136C468.213 929.645 469.216 929.4 470.421 929.4C471.595 929.4 472.571 929.645 473.349 930.136C474.139 930.616 474.731 931.299 475.125 932.184C475.52 933.059 475.717 934.088 475.717 935.272ZM466.901 935.272C466.901 936.189 467.024 936.979 467.269 937.64C467.515 938.291 467.899 938.797 468.421 939.16C468.944 939.512 469.605 939.688 470.405 939.688C471.216 939.688 471.877 939.512 472.389 939.16C472.901 938.797 473.28 938.291 473.525 937.64C473.771 936.979 473.893 936.189 473.893 935.272C473.893 933.896 473.616 932.824 473.061 932.056C472.517 931.277 471.637 930.888 470.421 930.888C469.611 930.888 468.944 931.064 468.421 931.416C467.899 931.768 467.515 932.269 467.269 932.92C467.024 933.571 466.901 934.355 466.901 935.272ZM487.576 941H485.48L479.704 931.768H479.64C479.65 931.981 479.661 932.211 479.672 932.456C479.693 932.701 479.709 932.963 479.72 933.24C479.73 933.507 479.741 933.784 479.752 934.072C479.762 934.349 479.768 934.632 479.768 934.92V941H478.2V929.576H480.28L486.04 938.76H486.088C486.077 938.6 486.066 938.403 486.056 938.168C486.045 937.923 486.034 937.661 486.024 937.384C486.024 937.107 486.018 936.824 486.008 936.536C485.997 936.248 485.986 935.976 485.976 935.72V929.576H487.576V941ZM493.966 929.576C494.936 929.576 495.747 929.667 496.398 929.848C497.059 930.029 497.555 930.333 497.886 930.76C498.227 931.176 498.398 931.731 498.398 932.424C498.398 932.872 498.318 933.272 498.158 933.624C497.998 933.965 497.763 934.253 497.454 934.488C497.155 934.712 496.782 934.861 496.334 934.936V935.016C496.792 935.091 497.203 935.229 497.566 935.432C497.928 935.624 498.216 935.907 498.43 936.28C498.643 936.653 498.75 937.139 498.75 937.736C498.75 938.429 498.584 939.021 498.254 939.512C497.934 939.992 497.47 940.36 496.862 940.616C496.264 940.872 495.55 941 494.718 941H490.622V929.576H493.966ZM494.254 934.344C495.15 934.344 495.763 934.2 496.094 933.912C496.435 933.624 496.606 933.197 496.606 932.632C496.606 932.056 496.403 931.645 495.998 931.4C495.592 931.155 494.947 931.032 494.062 931.032H492.35V934.344H494.254ZM492.35 935.752V939.56H494.446C495.374 939.56 496.019 939.379 496.382 939.016C496.744 938.653 496.926 938.173 496.926 937.576C496.926 937.213 496.846 936.893 496.686 936.616C496.526 936.339 496.254 936.125 495.87 935.976C495.496 935.827 494.984 935.752 494.334 935.752H492.35ZM511.202 935.272C511.202 936.157 511.09 936.963 510.866 937.688C510.652 938.403 510.322 939.021 509.874 939.544C509.436 940.067 508.882 940.467 508.21 940.744C507.548 941.021 506.775 941.16 505.89 941.16C504.983 941.16 504.194 941.021 503.522 940.744C502.86 940.456 502.306 940.056 501.858 939.544C501.42 939.021 501.095 938.397 500.882 937.672C500.668 936.947 500.562 936.141 500.562 935.256C500.562 934.083 500.754 933.059 501.138 932.184C501.522 931.309 502.108 930.627 502.898 930.136C503.698 929.645 504.7 929.4 505.906 929.4C507.079 929.4 508.055 929.645 508.834 930.136C509.623 930.616 510.215 931.299 510.61 932.184C511.004 933.059 511.202 934.088 511.202 935.272ZM502.386 935.272C502.386 936.189 502.508 936.979 502.754 937.64C502.999 938.291 503.383 938.797 503.906 939.16C504.428 939.512 505.09 939.688 505.89 939.688C506.7 939.688 507.362 939.512 507.874 939.16C508.386 938.797 508.764 938.291 509.01 937.64C509.255 936.979 509.378 936.189 509.378 935.272C509.378 933.896 509.1 932.824 508.546 932.056C508.002 931.277 507.122 930.888 505.906 930.888C505.095 930.888 504.428 931.064 503.906 931.416C503.383 931.768 502.999 932.269 502.754 932.92C502.508 933.571 502.386 934.355 502.386 935.272ZM520.492 941L519.276 937.704H514.86L513.644 941H511.852L516.188 929.528H517.98L522.3 941H520.492ZM517.644 932.984C517.612 932.867 517.553 932.691 517.468 932.456C517.393 932.211 517.318 931.965 517.244 931.72C517.169 931.464 517.11 931.256 517.068 931.096C517.014 931.309 516.95 931.544 516.876 931.8C516.812 932.045 516.748 932.275 516.684 932.488C516.62 932.691 516.566 932.856 516.524 932.984L515.372 936.2H518.796L517.644 932.984ZM527.04 929.576C528.022 929.576 528.827 929.699 529.456 929.944C530.086 930.189 530.555 930.557 530.864 931.048C531.174 931.528 531.328 932.136 531.328 932.872C531.328 933.459 531.216 933.955 530.992 934.36C530.779 934.755 530.502 935.08 530.16 935.336C529.819 935.581 529.462 935.779 529.088 935.928L532.288 941H530.304L527.552 936.376H525.568V941H523.84V929.576H527.04ZM526.928 931.048H525.568V934.936H527.008C527.595 934.936 528.075 934.861 528.448 934.712C528.832 934.563 529.11 934.339 529.28 934.04C529.462 933.741 529.552 933.373 529.552 932.936C529.552 932.477 529.456 932.115 529.264 931.848C529.083 931.571 528.795 931.368 528.4 931.24C528.016 931.112 527.526 931.048 526.928 931.048ZM543.213 935.176C543.213 936.456 542.973 937.528 542.493 938.392C542.013 939.256 541.32 939.907 540.413 940.344C539.517 940.781 538.435 941 537.165 941H533.965V929.576H537.501C538.664 929.576 539.672 929.789 540.525 930.216C541.379 930.643 542.04 931.272 542.509 932.104C542.979 932.925 543.213 933.949 543.213 935.176ZM541.405 935.224C541.405 934.264 541.251 933.475 540.941 932.856C540.632 932.237 540.173 931.779 539.565 931.48C538.968 931.181 538.243 931.032 537.389 931.032H535.693V939.544H537.085C538.525 939.544 539.603 939.181 540.317 938.456C541.043 937.731 541.405 936.653 541.405 935.224ZM549.22 941H544.788V940.008L546.148 939.608V930.984L544.788 930.568V929.576H549.22V930.568L547.876 930.984V939.608L549.22 940.008V941ZM560.732 941H558.636L552.86 931.768H552.796C552.807 931.981 552.817 932.211 552.828 932.456C552.849 932.701 552.865 932.963 552.876 933.24C552.887 933.507 552.897 933.784 552.908 934.072C552.919 934.349 552.924 934.632 552.924 934.92V941H551.356V929.576H553.436L559.196 938.76H559.244C559.233 938.6 559.223 938.403 559.212 938.168C559.201 937.923 559.191 937.661 559.18 937.384C559.18 937.107 559.175 936.824 559.164 936.536C559.153 936.248 559.143 935.976 559.132 935.72V929.576H560.732V941ZM568.546 934.856H572.674V940.552C572.066 940.755 571.442 940.904 570.802 941C570.172 941.107 569.452 941.16 568.642 941.16C567.479 941.16 566.492 940.925 565.682 940.456C564.882 939.987 564.268 939.315 563.842 938.44C563.426 937.565 563.218 936.515 563.218 935.288C563.218 934.093 563.452 933.059 563.922 932.184C564.391 931.309 565.063 930.632 565.938 930.152C566.823 929.661 567.895 929.416 569.154 929.416C569.783 929.416 570.386 929.48 570.962 929.608C571.538 929.725 572.071 929.891 572.562 930.104L571.938 931.544C571.543 931.363 571.1 931.213 570.61 931.096C570.13 930.968 569.623 930.904 569.09 930.904C568.247 930.904 567.516 931.085 566.898 931.448C566.29 931.8 565.82 932.307 565.49 932.968C565.17 933.619 565.01 934.397 565.01 935.304C565.01 936.157 565.143 936.915 565.41 937.576C565.676 938.237 566.098 938.755 566.674 939.128C567.25 939.501 568.002 939.688 568.93 939.688C569.239 939.688 569.511 939.677 569.746 939.656C569.98 939.624 570.194 939.592 570.386 939.56C570.588 939.517 570.78 939.48 570.962 939.448V936.344H568.546V934.856Z" fill="#01284E"/>
<g filter="url(#filter16_f_930_747)">
<circle cx="519" cy="987" r="10.6129" stroke="#0088A9" stroke-opacity="0.8" stroke-width="2"/>
</g>
<g filter="url(#filter17_f_930_747)">
<circle cx="518.613" cy="986.613" r="16.4194" stroke="#0088A9" stroke-opacity="0.6" stroke-width="2"/>
</g>
<g filter="url(#filter18_f_930_747)">
<circle cx="519" cy="987" r="23" stroke="#0088A9" stroke-opacity="0.4" stroke-width="2"/>
</g>
<path d="M520.542 980.807L519.991 986.092L525.276 984.605L525.662 987.138L520.597 987.551L523.872 991.9L521.505 993.194L519.165 988.377L517.046 993.194L514.596 991.9L517.817 987.551L512.807 987.138L513.192 984.605L518.422 986.092L517.844 980.807H520.542Z" fill="#0088A9"/>
<path d="M702.095 929.576C703.588 929.576 704.676 929.88 705.359 930.488C706.042 931.085 706.383 931.923 706.383 933C706.383 933.48 706.303 933.939 706.143 934.376C705.994 934.813 705.743 935.208 705.391 935.56C705.039 935.901 704.57 936.173 703.983 936.376C703.407 936.568 702.698 936.664 701.855 936.664H700.623V941H698.895V929.576H702.095ZM701.967 931.032H700.623V935.208H701.663C702.314 935.208 702.858 935.139 703.295 935C703.732 934.851 704.058 934.621 704.271 934.312C704.495 933.992 704.607 933.576 704.607 933.064C704.607 932.381 704.394 931.875 703.967 931.544C703.551 931.203 702.884 931.032 701.967 931.032ZM717.556 936.968C717.556 937.757 717.391 938.472 717.06 939.112C716.74 939.741 716.244 940.243 715.572 940.616C714.9 940.979 714.052 941.16 713.028 941.16C711.577 941.16 710.473 940.776 709.716 940.008C708.969 939.229 708.596 938.205 708.596 936.936V929.576H710.324V936.856C710.324 937.795 710.553 938.504 711.012 938.984C711.471 939.453 712.169 939.688 713.108 939.688C713.748 939.688 714.271 939.571 714.676 939.336C715.081 939.101 715.375 938.776 715.556 938.36C715.748 937.933 715.844 937.427 715.844 936.84V929.576H717.556V936.968ZM723.848 929.576C724.819 929.576 725.63 929.667 726.28 929.848C726.942 930.029 727.438 930.333 727.768 930.76C728.11 931.176 728.28 931.731 728.28 932.424C728.28 932.872 728.2 933.272 728.04 933.624C727.88 933.965 727.646 934.253 727.336 934.488C727.038 934.712 726.664 934.861 726.216 934.936V935.016C726.675 935.091 727.086 935.229 727.448 935.432C727.811 935.624 728.099 935.907 728.312 936.28C728.526 936.653 728.632 937.139 728.632 937.736C728.632 938.429 728.467 939.021 728.136 939.512C727.816 939.992 727.352 940.36 726.744 940.616C726.147 940.872 725.432 941 724.6 941H720.504V929.576H723.848ZM724.136 934.344C725.032 934.344 725.646 934.2 725.976 933.912C726.318 933.624 726.488 933.197 726.488 932.632C726.488 932.056 726.286 931.645 725.88 931.4C725.475 931.155 724.83 931.032 723.944 931.032H722.232V934.344H724.136ZM722.232 935.752V939.56H724.328C725.256 939.56 725.902 939.379 726.264 939.016C726.627 938.653 726.808 938.173 726.808 937.576C726.808 937.213 726.728 936.893 726.568 936.616C726.408 936.339 726.136 936.125 725.752 935.976C725.379 935.827 724.867 935.752 724.216 935.752H722.232ZM731.004 941V929.576H732.732V939.512H737.612V941H731.004ZM746.015 941H739.583V929.576H746.015V931.048H741.311V934.312H745.727V935.768H741.311V939.512H746.015V941ZM757.737 935.176C757.737 936.456 757.497 937.528 757.017 938.392C756.537 939.256 755.843 939.907 754.937 940.344C754.041 940.781 752.958 941 751.689 941H748.489V929.576H752.025C753.187 929.576 754.195 929.789 755.049 930.216C755.902 930.643 756.563 931.272 757.033 932.104C757.502 932.925 757.737 933.949 757.737 935.176ZM755.929 935.224C755.929 934.264 755.774 933.475 755.465 932.856C755.155 932.237 754.697 931.779 754.089 931.48C753.491 931.181 752.766 931.032 751.913 931.032H750.217V939.544H751.609C753.049 939.544 754.126 939.181 754.841 938.456C755.566 937.731 755.929 936.653 755.929 935.224ZM767.723 929.576C768.694 929.576 769.505 929.667 770.155 929.848C770.817 930.029 771.313 930.333 771.643 930.76C771.985 931.176 772.155 931.731 772.155 932.424C772.155 932.872 772.075 933.272 771.915 933.624C771.755 933.965 771.521 934.253 771.211 934.488C770.913 934.712 770.539 934.861 770.091 934.936V935.016C770.55 935.091 770.961 935.229 771.323 935.432C771.686 935.624 771.974 935.907 772.187 936.28C772.401 936.653 772.507 937.139 772.507 937.736C772.507 938.429 772.342 939.021 772.011 939.512C771.691 939.992 771.227 940.36 770.619 940.616C770.022 940.872 769.307 941 768.475 941H764.379V929.576H767.723ZM768.011 934.344C768.907 934.344 769.521 934.2 769.851 933.912C770.193 933.624 770.363 933.197 770.363 932.632C770.363 932.056 770.161 931.645 769.755 931.4C769.35 931.155 768.705 931.032 767.819 931.032H766.107V934.344H768.011ZM766.107 935.752V939.56H768.203C769.131 939.56 769.777 939.379 770.139 939.016C770.502 938.653 770.683 938.173 770.683 937.576C770.683 937.213 770.603 936.893 770.443 936.616C770.283 936.339 770.011 936.125 769.627 935.976C769.254 935.827 768.742 935.752 768.091 935.752H766.107ZM781.311 941H774.879V929.576H781.311V931.048H776.607V934.312H781.023V935.768H776.607V939.512H781.311V941ZM787.626 941H785.898V931.064H782.474V929.576H791.05V931.064H787.626V941ZM798.796 941L797.58 937.704H793.164L791.948 941H790.156L794.492 929.528H796.284L800.604 941H798.796ZM795.948 932.984C795.916 932.867 795.858 932.691 795.772 932.456C795.698 932.211 795.623 931.965 795.548 931.72C795.474 931.464 795.415 931.256 795.372 931.096C795.319 931.309 795.255 931.544 795.18 931.8C795.116 932.045 795.052 932.275 794.988 932.488C794.924 932.691 794.871 932.856 794.828 932.984L793.676 936.2H797.1L795.948 932.984Z" fill="#01284E"/>
<g filter="url(#filter19_f_930_747)">
<circle cx="749" cy="987" r="10.6129" stroke="#0088A9" stroke-opacity="0.8" stroke-width="2"/>
</g>
<g filter="url(#filter20_f_930_747)">
<circle cx="748.613" cy="986.613" r="16.4194" stroke="#0088A9" stroke-opacity="0.6" stroke-width="2"/>
</g>
<g filter="url(#filter21_f_930_747)">
<circle cx="749" cy="987" r="23" stroke="#0088A9" stroke-opacity="0.4" stroke-width="2"/>
</g>
<path d="M750.542 980.807L749.991 986.092L755.276 984.605L755.662 987.138L750.597 987.551L753.872 991.9L751.505 993.194L749.165 988.377L747.046 993.194L744.596 991.9L747.817 987.551L742.807 987.138L743.192 984.605L748.422 986.092L747.844 980.807H750.542Z" fill="#0088A9"/>
<path d="M405.884 795.304C409.468 795.304 412.412 795.795 414.716 796.776C417.063 797.715 418.791 799.144 419.9 801.064C421.052 802.984 421.628 805.395 421.628 808.296C421.628 810.728 421.202 812.755 420.348 814.376C419.538 815.997 418.471 817.299 417.148 818.28C415.868 819.219 414.503 819.965 413.052 820.52L424.956 841H418.3L407.932 822.12H399.676V841H393.98V795.304H405.884ZM405.564 800.296H399.676V817.256H405.82C408.124 817.256 410.002 816.936 411.452 816.296C412.946 815.613 414.034 814.632 414.716 813.352C415.399 812.072 415.74 810.472 415.74 808.552C415.74 806.547 415.378 804.947 414.652 803.752C413.927 802.557 412.796 801.683 411.26 801.128C409.767 800.573 407.868 800.296 405.564 800.296ZM459.061 823.784C459.061 826.643 458.699 829.181 457.973 831.4C457.291 833.576 456.288 835.432 454.965 836.968C453.643 838.504 452.043 839.677 450.165 840.488C448.288 841.256 446.197 841.64 443.893 841.64C441.76 841.64 439.776 841.256 437.941 840.488C436.149 839.677 434.571 838.504 433.205 836.968C431.883 835.432 430.859 833.576 430.133 831.4C429.408 829.181 429.045 826.643 429.045 823.784C429.045 819.987 429.643 816.787 430.837 814.184C432.075 811.539 433.824 809.533 436.085 808.168C438.347 806.76 441.013 806.056 444.085 806.056C447.029 806.056 449.611 806.76 451.829 808.168C454.091 809.533 455.861 811.539 457.141 814.184C458.421 816.787 459.061 819.987 459.061 823.784ZM434.805 823.784C434.805 826.472 435.125 828.819 435.765 830.824C436.405 832.787 437.408 834.301 438.773 835.368C440.139 836.435 441.888 836.968 444.021 836.968C446.155 836.968 447.904 836.435 449.269 835.368C450.635 834.301 451.637 832.787 452.277 830.824C452.96 828.819 453.301 826.472 453.301 823.784C453.301 821.053 452.96 818.728 452.277 816.808C451.637 814.888 450.635 813.416 449.269 812.392C447.904 811.325 446.133 810.792 443.957 810.792C440.757 810.792 438.432 811.944 436.981 814.248C435.531 816.552 434.805 819.731 434.805 823.784ZM479.689 806.12C483.615 806.12 486.537 807.037 488.457 808.872C490.42 810.707 491.401 813.629 491.401 817.64V841H487.369L486.281 836.136H486.025C485.087 837.373 484.127 838.419 483.145 839.272C482.207 840.083 481.097 840.68 479.817 841.064C478.58 841.448 477.044 841.64 475.209 841.64C473.289 841.64 471.561 841.277 470.025 840.552C468.489 839.827 467.273 838.717 466.377 837.224C465.481 835.688 465.033 833.768 465.033 831.464C465.033 828.051 466.292 825.427 468.809 823.592C471.327 821.715 475.209 820.691 480.457 820.52L485.897 820.328V818.28C485.897 815.421 485.321 813.437 484.169 812.328C483.06 811.219 481.46 810.664 479.369 810.664C477.705 810.664 476.105 810.941 474.569 811.496C473.076 812.008 471.647 812.605 470.281 813.288L468.553 809.064C470.004 808.253 471.689 807.571 473.609 807.016C475.529 806.419 477.556 806.12 479.689 806.12ZM481.225 824.424C477.3 824.595 474.569 825.277 473.033 826.472C471.54 827.667 470.793 829.352 470.793 831.528C470.793 833.448 471.327 834.856 472.393 835.752C473.46 836.648 474.847 837.096 476.553 837.096C479.199 837.096 481.417 836.307 483.209 834.728C485.001 833.107 485.897 830.632 485.897 827.304V824.232L481.225 824.424ZM512.729 841.64C508.761 841.64 505.561 840.168 503.129 837.224C500.74 834.237 499.545 829.8 499.545 823.912C499.545 818.024 500.761 813.587 503.193 810.6C505.625 807.571 508.825 806.056 512.793 806.056C514.457 806.056 515.908 806.291 517.145 806.76C518.383 807.187 519.449 807.784 520.345 808.552C521.284 809.32 522.073 810.173 522.713 811.112H523.097C523.055 810.557 522.969 809.747 522.841 808.68C522.756 807.571 522.713 806.696 522.713 806.056V792.36H528.281V841H523.801L522.969 836.392H522.713C522.073 837.373 521.284 838.269 520.345 839.08C519.449 839.848 518.361 840.467 517.081 840.936C515.844 841.405 514.393 841.64 512.729 841.64ZM513.753 836.968C517.081 836.968 519.407 835.987 520.729 834.024C522.095 832.019 522.777 829.011 522.777 825V823.976C522.777 819.709 522.137 816.445 520.857 814.184C519.577 811.88 517.188 810.728 513.689 810.728C510.873 810.728 508.761 811.944 507.353 814.376C505.988 816.765 505.305 819.987 505.305 824.04C505.305 828.136 505.988 831.315 507.353 833.576C508.761 835.837 510.895 836.968 513.753 836.968ZM574.048 806.056C577.717 806.056 580.448 807.059 582.24 809.064C584.032 811.027 584.928 814.227 584.928 818.664V841H579.424V818.92C579.424 816.232 578.89 814.205 577.824 812.84C576.8 811.475 575.178 810.792 572.96 810.792C569.888 810.792 567.69 811.752 566.368 813.672C565.088 815.592 564.448 818.387 564.448 822.056V841H558.88V818.92C558.88 817.128 558.645 815.635 558.176 814.44C557.706 813.203 557.002 812.285 556.064 811.688C555.125 811.091 553.909 810.792 552.416 810.792C550.282 810.792 548.597 811.283 547.36 812.264C546.122 813.203 545.248 814.589 544.736 816.424C544.224 818.259 543.968 820.52 543.968 823.208V841H538.4V806.696H542.88L543.712 811.368H544.032C544.714 810.173 545.546 809.192 546.528 808.424C547.509 807.613 548.597 807.016 549.792 806.632C550.986 806.248 552.224 806.056 553.504 806.056C555.978 806.056 558.048 806.525 559.712 807.464C561.376 808.403 562.592 809.853 563.36 811.816H563.744C564.81 809.853 566.261 808.403 568.096 807.464C569.973 806.525 571.957 806.056 574.048 806.056ZM607.189 806.12C611.115 806.12 614.037 807.037 615.957 808.872C617.92 810.707 618.901 813.629 618.901 817.64V841H614.869L613.781 836.136H613.525C612.587 837.373 611.627 838.419 610.645 839.272C609.707 840.083 608.597 840.68 607.317 841.064C606.08 841.448 604.544 841.64 602.709 841.64C600.789 841.64 599.061 841.277 597.525 840.552C595.989 839.827 594.773 838.717 593.877 837.224C592.981 835.688 592.533 833.768 592.533 831.464C592.533 828.051 593.792 825.427 596.309 823.592C598.827 821.715 602.709 820.691 607.957 820.52L613.397 820.328V818.28C613.397 815.421 612.821 813.437 611.669 812.328C610.56 811.219 608.96 810.664 606.869 810.664C605.205 810.664 603.605 810.941 602.069 811.496C600.576 812.008 599.147 812.605 597.781 813.288L596.053 809.064C597.504 808.253 599.189 807.571 601.109 807.016C603.029 806.419 605.056 806.12 607.189 806.12ZM608.725 824.424C604.8 824.595 602.069 825.277 600.533 826.472C599.04 827.667 598.293 829.352 598.293 831.528C598.293 833.448 598.827 834.856 599.893 835.752C600.96 836.648 602.347 837.096 604.053 837.096C606.699 837.096 608.917 836.307 610.709 834.728C612.501 833.107 613.397 830.632 613.397 827.304V824.232L608.725 824.424ZM644.389 806.056C648.357 806.056 651.536 807.528 653.925 810.472C656.357 813.416 657.573 817.853 657.573 823.784C657.573 827.667 657.019 830.952 655.909 833.64C654.8 836.285 653.243 838.291 651.237 839.656C649.275 840.979 646.971 841.64 644.325 841.64C642.661 841.64 641.189 841.405 639.909 840.936C638.672 840.467 637.605 839.869 636.709 839.144C635.813 838.376 635.045 837.544 634.405 836.648H634.021C634.107 837.373 634.192 838.291 634.277 839.4C634.363 840.509 634.405 841.469 634.405 842.28V856.36H628.837V806.696H633.381L634.149 811.368H634.405C635.045 810.387 635.813 809.491 636.709 808.68C637.605 807.869 638.672 807.229 639.909 806.76C641.189 806.291 642.683 806.056 644.389 806.056ZM643.301 810.792C641.168 810.792 639.44 811.24 638.117 812.136C636.837 812.989 635.899 814.291 635.301 816.04C634.704 817.789 634.405 820.008 634.405 822.696V823.784C634.405 826.6 634.661 828.989 635.173 830.952C635.728 832.915 636.667 834.408 637.989 835.432C639.312 836.456 641.125 836.968 643.429 836.968C645.349 836.968 646.928 836.392 648.165 835.24C649.403 834.088 650.32 832.531 650.917 830.568C651.515 828.563 651.813 826.28 651.813 823.72C651.813 819.795 651.109 816.659 649.701 814.312C648.336 811.965 646.203 810.792 643.301 810.792Z" fill="#01284E"/>
</g>
<defs>
<filter id="filter0_f_930_747" x="-168.107" y="1023.23" width="1391.51" height="98.5117" filterUnits="userSpaceOnUse" color-interpolation-filters="sRGB">
<feFlood flood-opacity="0" result="BackgroundImageFix"/>
<feBlend mode="normal" in="SourceGraphic" in2="BackgroundImageFix" result="shape"/>
<feGaussianBlur stdDeviation="12" result="effect1_foregroundBlur_930_747"/>
</filter>
<filter id="filter1_f_930_747" x="165.387" y="1141.39" width="27.2256" height="27.2256" filterUnits="userSpaceOnUse" color-interpolation-filters="sRGB">
<feFlood flood-opacity="0" result="BackgroundImageFix"/>
<feBlend mode="normal" in="SourceGraphic" in2="BackgroundImageFix" result="shape"/>
<feGaussianBlur stdDeviation="1" result="effect1_foregroundBlur_930_747"/>
</filter>
<filter id="filter2_f_930_747" x="158.193" y="1134.19" width="40.8389" height="40.8389" filterUnits="userSpaceOnUse" color-interpolation-filters="sRGB">
<feFlood flood-opacity="0" result="BackgroundImageFix"/>
<feBlend mode="normal" in="SourceGraphic" in2="BackgroundImageFix" result="shape"/>
<feGaussianBlur stdDeviation="1.5" result="effect1_foregroundBlur_930_747"/>
</filter>
<filter id="filter3_f_930_747" x="151" y="1127" width="56" height="56" filterUnits="userSpaceOnUse" color-interpolation-filters="sRGB">
<feFlood flood-opacity="0" result="BackgroundImageFix"/>
<feBlend mode="normal" in="SourceGraphic" in2="BackgroundImageFix" result="shape"/>
<feGaussianBlur stdDeviation="2" result="effect1_foregroundBlur_930_747"/>
</filter>
<filter id="filter4_f_930_747" x="395.387" y="1141.39" width="27.2256" height="27.2256" filterUnits="userSpaceOnUse" color-interpolation-filters="sRGB">
<feFlood flood-opacity="0" result="BackgroundImageFix"/>
<feBlend mode="normal" in="SourceGraphic" in2="BackgroundImageFix" result="shape"/>
<feGaussianBlur stdDeviation="1" result="effect1_foregroundBlur_930_747"/>
</filter>
<filter id="filter5_f_930_747" x="388.193" y="1134.19" width="40.8389" height="40.8389" filterUnits="userSpaceOnUse" color-interpolation-filters="sRGB">
<feFlood flood-opacity="0" result="BackgroundImageFix"/>
<feBlend mode="normal" in="SourceGraphic" in2="BackgroundImageFix" result="shape"/>
<feGaussianBlur stdDeviation="1.5" result="effect1_foregroundBlur_930_747"/>
</filter>
<filter id="filter6_f_930_747" x="381" y="1127" width="56" height="56" filterUnits="userSpaceOnUse" color-interpolation-filters="sRGB">
<feFlood flood-opacity="0" result="BackgroundImageFix"/>
<feBlend mode="normal" in="SourceGraphic" in2="BackgroundImageFix" result="shape"/>
<feGaussianBlur stdDeviation="2" result="effect1_foregroundBlur_930_747"/>
</filter>
<filter id="filter7_f_930_747" x="625.387" y="1141.39" width="27.2256" height="27.2256" filterUnits="userSpaceOnUse" color-interpolation-filters="sRGB">
<feFlood flood-opacity="0" result="BackgroundImageFix"/>
<feBlend mode="normal" in="SourceGraphic" in2="BackgroundImageFix" result="shape"/>
<feGaussianBlur stdDeviation="1" result="effect1_foregroundBlur_930_747"/>
</filter>
<filter id="filter8_f_930_747" x="618.193" y="1134.19" width="40.8389" height="40.8389" filterUnits="userSpaceOnUse" color-interpolation-filters="sRGB">
<feFlood flood-opacity="0" result="BackgroundImageFix"/>
<feBlend mode="normal" in="SourceGraphic" in2="BackgroundImageFix" result="shape"/>
<feGaussianBlur stdDeviation="1.5" result="effect1_foregroundBlur_930_747"/>
</filter>
<filter id="filter9_f_930_747" x="611" y="1127" width="56" height="56" filterUnits="userSpaceOnUse" color-interpolation-filters="sRGB">
<feFlood flood-opacity="0" result="BackgroundImageFix"/>
<feBlend mode="normal" in="SourceGraphic" in2="BackgroundImageFix" result="shape"/>
<feGaussianBlur stdDeviation="2" result="effect1_foregroundBlur_930_747"/>
</filter>
<filter id="filter10_f_930_747" x="855.387" y="1141.39" width="27.2256" height="27.2256" filterUnits="userSpaceOnUse" color-interpolation-filters="sRGB">
<feFlood flood-opacity="0" result="BackgroundImageFix"/>
<feBlend mode="normal" in="SourceGraphic" in2="BackgroundImageFix" result="shape"/>
<feGaussianBlur stdDeviation="1" result="effect1_foregroundBlur_930_747"/>
</filter>
<filter id="filter11_f_930_747" x="848.193" y="1134.19" width="40.8389" height="40.8389" filterUnits="userSpaceOnUse" color-interpolation-filters="sRGB">
<feFlood flood-opacity="0" result="BackgroundImageFix"/>
<feBlend mode="normal" in="SourceGraphic" in2="BackgroundImageFix" result="shape"/>
<feGaussianBlur stdDeviation="1.5" result="effect1_foregroundBlur_930_747"/>
</filter>
<filter id="filter12_f_930_747" x="841" y="1127" width="56" height="56" filterUnits="userSpaceOnUse" color-interpolation-filters="sRGB">
<feFlood flood-opacity="0" result="BackgroundImageFix"/>
<feBlend mode="normal" in="SourceGraphic" in2="BackgroundImageFix" result="shape"/>
<feGaussianBlur stdDeviation="2" result="effect1_foregroundBlur_930_747"/>
</filter>
<filter id="filter13_f_930_747" x="275.387" y="973.387" width="27.2256" height="27.2256" filterUnits="userSpaceOnUse" color-interpolation-filters="sRGB">
<feFlood flood-opacity="0" result="BackgroundImageFix"/>
<feBlend mode="normal" in="SourceGraphic" in2="BackgroundImageFix" result="shape"/>
<feGaussianBlur stdDeviation="1" result="effect1_foregroundBlur_930_747"/>
</filter>
<filter id="filter14_f_930_747" x="268.193" y="966.193" width="40.8389" height="40.8389" filterUnits="userSpaceOnUse" color-interpolation-filters="sRGB">
<feFlood flood-opacity="0" result="BackgroundImageFix"/>
<feBlend mode="normal" in="SourceGraphic" in2="BackgroundImageFix" result="shape"/>
<feGaussianBlur stdDeviation="1.5" result="effect1_foregroundBlur_930_747"/>
</filter>
<filter id="filter15_f_930_747" x="261" y="959" width="56" height="56" filterUnits="userSpaceOnUse" color-interpolation-filters="sRGB">
<feFlood flood-opacity="0" result="BackgroundImageFix"/>
<feBlend mode="normal" in="SourceGraphic" in2="BackgroundImageFix" result="shape"/>
<feGaussianBlur stdDeviation="2" result="effect1_foregroundBlur_930_747"/>
</filter>
<filter id="filter16_f_930_747" x="505.387" y="973.387" width="27.2256" height="27.2256" filterUnits="userSpaceOnUse" color-interpolation-filters="sRGB">
<feFlood flood-opacity="0" result="BackgroundImageFix"/>
<feBlend mode="normal" in="SourceGraphic" in2="BackgroundImageFix" result="shape"/>
<feGaussianBlur stdDeviation="1" result="effect1_foregroundBlur_930_747"/>
</filter>
<filter id="filter17_f_930_747" x="498.193" y="966.193" width="40.8389" height="40.8389" filterUnits="userSpaceOnUse" color-interpolation-filters="sRGB">
<feFlood flood-opacity="0" result="BackgroundImageFix"/>
<feBlend mode="normal" in="SourceGraphic" in2="BackgroundImageFix" result="shape"/>
<feGaussianBlur stdDeviation="1.5" result="effect1_foregroundBlur_930_747"/>
</filter>
<filter id="filter18_f_930_747" x="491" y="959" width="56" height="56" filterUnits="userSpaceOnUse" color-interpolation-filters="sRGB">
<feFlood flood-opacity="0" result="BackgroundImageFix"/>
<feBlend mode="normal" in="SourceGraphic" in2="BackgroundImageFix" result="shape"/>
<feGaussianBlur stdDeviation="2" result="effect1_foregroundBlur_930_747"/>
</filter>
<filter id="filter19_f_930_747" x="735.387" y="973.387" width="27.2256" height="27.2256" filterUnits="userSpaceOnUse" color-interpolation-filters="sRGB">
<feFlood flood-opacity="0" result="BackgroundImageFix"/>
<feBlend mode="normal" in="SourceGraphic" in2="BackgroundImageFix" result="shape"/>
<feGaussianBlur stdDeviation="1" result="effect1_foregroundBlur_930_747"/>
</filter>
<filter id="filter20_f_930_747" x="728.193" y="966.193" width="40.8389" height="40.8389" filterUnits="userSpaceOnUse" color-interpolation-filters="sRGB">
<feFlood flood-opacity="0" result="BackgroundImageFix"/>
<feBlend mode="normal" in="SourceGraphic" in2="BackgroundImageFix" result="shape"/>
<feGaussianBlur stdDeviation="1.5" result="effect1_foregroundBlur_930_747"/>
</filter>
<filter id="filter21_f_930_747" x="721" y="959" width="56" height="56" filterUnits="userSpaceOnUse" color-interpolation-filters="sRGB">
<feFlood flood-opacity="0" result="BackgroundImageFix"/>
<feBlend mode="normal" in="SourceGraphic" in2="BackgroundImageFix" result="shape"/>
<feGaussianBlur stdDeviation="2" result="effect1_foregroundBlur_930_747"/>
</filter>
<linearGradient id="paint0_linear_930_747" x1="524" y1="856.735" x2="524" y2="700.391" gradientUnits="userSpaceOnUse">
<stop stop-color="#E6F5F8"/>
<stop offset="1" stop-color="#E6F5F8" stop-opacity="0"/>
</linearGradient>
<linearGradient id="paint1_linear_930_747" x1="474" y1="1186.6" x2="474" y2="1300.37" gradientUnits="userSpaceOnUse">
<stop stop-color="#BFE5EE"/>
<stop offset="1" stop-color="#BFE5EE" stop-opacity="0"/>
</linearGradient>
<linearGradient id="paint2_linear_930_747" x1="474" y1="1186.6" x2="474" y2="1300.37" gradientUnits="userSpaceOnUse">
<stop stop-color="#BFE5EE"/>
<stop offset="1" stop-color="#BFE5EE" stop-opacity="0"/>
</linearGradient>
<clipPath id="clip0_930_747">
<rect width="1048" height="2000" fill="white"/>
</clipPath>
</defs>
</svg>
