<svg viewBox="0 0 64 64" xml:space="preserve" xmlns="http://www.w3.org/2000/svg" enable-background="new 0 0 64 64"><path d="M62 31a7.972 7.972 0 0 0-2.619-5.912A8.001 8.001 0 0 0 53 14.062l-.072 1.145c-.347-2.607-2.348-4.69-4.926-5.124l-.015.184c.002-.09.013-.177.013-.267a8 8 0 0 0-16 0v45a6.996 6.996 0 0 0 13.34 2.953c.219.021.436.047.66.047a7 7 0 0 0 7-7v-.422a5 5 0 0 0 2.949-3.893l.051.025A7.004 7.004 0 0 0 61 40a6.954 6.954 0 0 0-1.047-3.669A7.96 7.96 0 0 0 62 31zM44 41l.104.05c-.193.243-.251.261-.104-.05z" fill="#0097bc" class="fill-ffcb57"></path><path d="M32 47c-8.271 0-15-6.729-15-15s6.729-15 15-15v2c-7.168 0-13 5.832-13 13s5.832 13 13 13v2zM28.843 51.728c-5.251-.834-10.041-3.804-13.141-8.146l1.628-1.162c2.791 3.909 7.101 6.582 11.826 7.333l-.313 1.975z" fill="#01284e" class="fill-e56565"></path><path d="M14.387 41.473A19.982 19.982 0 0 1 12 32c0-9.879 7.083-18.176 16.843-19.728l.314 1.975C20.375 15.644 14 23.11 14 32c0 2.977.742 5.923 2.146 8.521l-1.759.952z" fill="#01284e" class="fill-e56565"></path><path d="M63 31a9.002 9.002 0 0 0-2.461-6.175A8.954 8.954 0 0 0 61 22a9.005 9.005 0 0 0-7.622-8.887 6.959 6.959 0 0 0-4.415-3.829C48.597 4.656 44.721 1 40 1a8.983 8.983 0 0 0-7 3.356V1h-7.781l-1.596 6.382a25.8 25.8 0 0 0-3.103 1.291l-5.646-3.388-9.59 9.589 3.388 5.646a25.826 25.826 0 0 0-1.291 3.104L1 25.22v13.56l6.382 1.596a26.07 26.07 0 0 0 1.545 3.605l1.774-.922a23.84 23.84 0 0 1-1.588-3.82l-.168-.534L3 37.219V26.781l5.945-1.486.168-.534a24.025 24.025 0 0 1 1.588-3.82l.258-.496-3.157-5.26 7.381-7.382 5.261 3.157.497-.259a23.72 23.72 0 0 1 3.819-1.587l.534-.169L26.781 3H31v58h-4.219l-1.486-5.945-.534-.169a23.758 23.758 0 0 1-3.819-1.587l-.497-.259-5.261 3.157-7.933-7.934-1.414 1.414 9.038 9.037 5.646-3.388a25.8 25.8 0 0 0 3.103 1.291L25.219 63H33v-2.726A7.976 7.976 0 0 0 39 63c2.956 0 5.536-1.615 6.921-4.006.026.001.053.006.079.006 4.346 0 7.886-3.485 7.99-7.806a6.015 6.015 0 0 0 2.822-3.732C59.886 46.3 62 43.323 62 40a7.955 7.955 0 0 0-.842-3.559A8.962 8.962 0 0 0 63 31zm-3.897 5.856c.586.951.897 2.038.897 3.144 0 2.179-1.215 4.159-3.058 5.208C56.552 42.274 54.04 40 51 40v2c2.206 0 4 1.794 4 4s-1.794 4-4 4-4-1.794-4-4h-2c0 3.309 2.691 6 6 6a6.1 6.1 0 0 0 .922-.078 6.005 6.005 0 0 1-5.172 5.026c.157-.625.25-1.275.25-1.948 0-4.411-3.589-8-8-8v2c3.309 0 6 2.691 6 6s-2.691 6-6 6-6-2.691-6-6V10c0-3.859 3.14-7 7-7s7 3.141 7 7-3.14 7-7 7v2c4.493 0 8.216-3.312 8.883-7.621A4.973 4.973 0 0 1 52 16c0 2.757-2.243 5-5 5v2c3.86 0 7-3.141 7-7 0-.242-.015-.48-.039-.716A7.007 7.007 0 0 1 59 22c0 3.859-3.14 7-7 7v2c3.196 0 6.001-1.679 7.598-4.197A6.996 6.996 0 0 1 61 31a6.982 6.982 0 0 1-1.792 4.664l-.499.557.394.635z" fill="#3f3a34" class="fill-3f3a34"></path><path d="M37 54h2v2h-2zM42 31h2v2h-2zM36 9h2v2h-2zM53 24h2v2h-2zM35 38h2v2h-2zM54 36h2v2h-2z" fill="#3f3a34" class="fill-3f3a34"></path></svg>