<svg viewBox="0 0 32 32" xml:space="preserve" xmlns="http://www.w3.org/2000/svg"><path d="M16 27a1 1 0 0 1-1-1v-6a1 1 0 1 1 2 0v6a1 1 0 0 1-1 1z" fill="" class="fill-00acba"></path><path d="M24 27a1 1 0 0 1-1-1v-2H9v2a1 1 0 1 1-2 0v-3a1 1 0 0 1 1-1h16a1 1 0 0 1 1 1v3a1 1 0 0 1-1 1z" fill="" class="fill-00acba"></path><path d="M24 21H7c-3.309 0-6-2.691-6-6s2.691-6 6-6h.055c.499-4.494 4.32-8 8.945-8a8.986 8.986 0 0 1 8.495 6.017C28.125 7.272 31 10.307 31 14c0 3.86-3.14 7-7 7zM7 11c-2.206 0-4 1.794-4 4s1.794 4 4 4h17c2.757 0 5-2.243 5-5s-2.243-5-5-5c-.047 0-.088-.002-.129.002a1 1 0 0 1-1.09-.746A6.985 6.985 0 0 0 16 3c-3.86 0-7 3.14-7 7v.1a1.002 1.002 0 0 1-1.215.977A3.696 3.696 0 0 0 7 11z" fill="#0097bc" class="fill-0181b0"></path><path d="M16 31c-1.654 0-3-1.346-3-3s1.346-3 3-3 3 1.346 3 3-1.346 3-3 3zm0-4a1 1 0 0 0 0 2 1 1 0 0 0 0-2zM24 31c-1.654 0-3-1.346-3-3s1.346-3 3-3 3 1.346 3 3-1.346 3-3 3zm0-4a1 1 0 0 0 0 2 1 1 0 0 0 0-2zM8 31c-1.654 0-3-1.346-3-3s1.346-3 3-3 3 1.346 3 3-1.346 3-3 3zm0-4a1 1 0 0 0 0 2 1 1 0 0 0 0-2z" fill="#0097bc" class="fill-f5d803"></path></svg>